M48
; DRILL file {KiCad 9.0.3} date 2026-09-07T16:07:47+0200
; FORMAT={-:-/ absolute / metric / decimal}
; #@! TF.CreationDate,2026-09-07T16:07:47+02:00
; #@! TF.GenerationSoftware,Kicad,Pcbnew,9.0.3
; #@! TF.FileFunction,Plated,1,2,PTH
FMAT,2
METRIC
; #@! TA.AperFunction,Plated,PTH,ViaDrill
T1C0.300
; #@! TA.AperFunction,Plated,PTH,ComponentDrill
T2C0.500
; #@! TA.AperFunction,Plated,PTH,ComponentDrill
T3C0.760
; #@! TA.AperFunction,Plated,PTH,ComponentDrill
T4C0.900
; #@! TA.AperFunction,Plated,PTH,ComponentDrill
T5C1.000
; #@! TA.AperFunction,Plated,PTH,ComponentDrill
T6C1.200
; #@! TA.AperFunction,Plated,PTH,ComponentDrill
T7C1.300
; #@! TA.AperFunction,Plated,PTH,ComponentDrill
T8C3.000
%
G90
G05
T1
X90.2Y-112.2
X90.5Y-53.1
X90.8Y-98.0
X97.2Y-96.4
X102.6Y-112.1
X110.6Y-97.8
X115.2Y-101.6
X115.3Y-80.5
X115.5Y-85.5
X116.2Y-81.8
X116.9Y-78.6
X116.9Y-84.5
X117.9Y-53.1
X119.3Y-97.1
X119.6Y-81.9
X120.4Y-111.6
X120.6Y-59.7
X121.2Y-63.0
X121.3Y-84.5
X121.5Y-85.8
X122.3Y-80.9
X122.5Y-57.3
X122.6Y-60.2
X123.0Y-82.4
X123.1Y-69.0
X123.3Y-54.8
X123.4Y-79.6
X124.5Y-69.1
X124.6Y-78.5
X124.8Y-61.0
X125.0Y-57.3
X125.1Y-72.0
X125.2Y-70.3
X126.4Y-83.2
X127.2Y-88.7
X127.4Y-78.7
X127.5Y-57.7
X129.3Y-76.8
X130.1Y-81.6
X131.4Y-72.3
X131.6Y-83.1
X131.8Y-68.8
X132.2Y-73.8
X133.1Y-68.8
X133.8Y-72.3
X135.0Y-87.9
X135.6Y-74.7
X136.0Y-81.0
X136.5Y-66.1
X137.3Y-68.3
X137.3Y-74.7
X137.6Y-91.1
X137.9Y-72.7
X137.9Y-76.8
X138.8Y-64.7
X138.9Y-74.9
X139.0Y-71.5
X139.4Y-68.4
X139.6Y-80.1
X139.7Y-77.1
X139.8Y-61.3
X140.5Y-75.9
X141.1Y-61.2
X141.3Y-66.9
X141.6Y-73.1
X141.8Y-68.5
X141.8Y-78.4
X146.0Y-80.2
X146.7Y-59.2
X146.8Y-55.7
X146.9Y-62.0
X147.0Y-72.3
X148.5Y-53.3
X148.6Y-81.2
X148.6Y-91.3
T2
X127.65Y-109.35
X128.309Y-107.759
X128.309Y-110.941
X129.9Y-107.1
X129.9Y-111.6
X131.491Y-107.759
X131.491Y-110.941
X132.15Y-109.35
X143.25Y-109.5
X143.909Y-107.909
X143.909Y-111.091
X145.5Y-107.25
X145.5Y-111.75
X147.091Y-107.909
X147.091Y-111.091
X147.75Y-109.5
T3
X105.48Y-106.9
X108.02Y-106.9
X113.1Y-106.9
X115.64Y-106.9
X118.18Y-106.9
T4
X91.17Y-59.705
X91.17Y-62.245
X91.17Y-64.785
X91.17Y-67.325
X91.17Y-69.865
X91.17Y-72.405
X91.17Y-74.945
X91.17Y-77.485
X91.17Y-80.025
X91.17Y-82.565
X91.17Y-85.105
X91.17Y-87.645
X91.17Y-90.185
X91.17Y-92.725
X91.17Y-95.265
X114.03Y-59.705
X114.03Y-62.245
X114.03Y-64.785
X114.03Y-67.325
X114.03Y-69.865
X114.03Y-72.405
X114.03Y-74.945
X114.03Y-77.485
X114.03Y-80.025
X114.03Y-82.565
X114.03Y-85.105
X114.03Y-87.645
X114.03Y-90.185
X114.03Y-92.725
X114.03Y-95.265
T6
X121.22Y-56.3
X123.76Y-56.3
X126.3Y-56.3
X128.84Y-56.3
T7
X138.213Y-78.562
X138.213Y-102.062
X145.713Y-78.562
X145.713Y-98.562
T8
X129.9Y-109.35
X145.5Y-109.5
T5
G00X90.8Y-106.25
M15
G01X90.8Y-107.75
M16
G05
G00X94.3Y-100.0
M15
G01X96.3Y-100.0
M16
G05
G00X94.65Y-106.0
M15
G01X95.95Y-106.0
M16
G05
G00X99.8Y-106.25
M15
G01X99.8Y-107.75
M16
G05
M30
