%TF.GenerationSoftware,KiCad,Pcbnew,9.0.3*%
%TF.CreationDate,2026-09-07T16:07:35+02:00*%
%TF.ProjectId,Bluetooth_Module,426c7565-746f-46f7-9468-5f4d6f64756c,rev?*%
%TF.SameCoordinates,Original*%
%TF.FileFunction,Legend,Top*%
%TF.FilePolarity,Positive*%
%FSLAX46Y46*%
G04 Gerber Fmt 4.6, Leading zero omitted, Abs format (unit mm)*
G04 Created by KiCad (PCBNEW 9.0.3) date 2026-09-07 16:07:35*
%MOMM*%
%LPD*%
G01*
G04 APERTURE LIST*
%ADD10C,0.150000*%
%ADD11C,0.254000*%
%ADD12C,0.120000*%
%ADD13C,0.100000*%
%ADD14C,0.200000*%
G04 APERTURE END LIST*
D10*
X144457142Y-67154819D02*
X144123809Y-66678628D01*
X143885714Y-67154819D02*
X143885714Y-66154819D01*
X143885714Y-66154819D02*
X144266666Y-66154819D01*
X144266666Y-66154819D02*
X144361904Y-66202438D01*
X144361904Y-66202438D02*
X144409523Y-66250057D01*
X144409523Y-66250057D02*
X144457142Y-66345295D01*
X144457142Y-66345295D02*
X144457142Y-66488152D01*
X144457142Y-66488152D02*
X144409523Y-66583390D01*
X144409523Y-66583390D02*
X144361904Y-66631009D01*
X144361904Y-66631009D02*
X144266666Y-66678628D01*
X144266666Y-66678628D02*
X143885714Y-66678628D01*
X145409523Y-67154819D02*
X144838095Y-67154819D01*
X145123809Y-67154819D02*
X145123809Y-66154819D01*
X145123809Y-66154819D02*
X145028571Y-66297676D01*
X145028571Y-66297676D02*
X144933333Y-66392914D01*
X144933333Y-66392914D02*
X144838095Y-66440533D01*
X146314285Y-66154819D02*
X145838095Y-66154819D01*
X145838095Y-66154819D02*
X145790476Y-66631009D01*
X145790476Y-66631009D02*
X145838095Y-66583390D01*
X145838095Y-66583390D02*
X145933333Y-66535771D01*
X145933333Y-66535771D02*
X146171428Y-66535771D01*
X146171428Y-66535771D02*
X146266666Y-66583390D01*
X146266666Y-66583390D02*
X146314285Y-66631009D01*
X146314285Y-66631009D02*
X146361904Y-66726247D01*
X146361904Y-66726247D02*
X146361904Y-66964342D01*
X146361904Y-66964342D02*
X146314285Y-67059580D01*
X146314285Y-67059580D02*
X146266666Y-67107200D01*
X146266666Y-67107200D02*
X146171428Y-67154819D01*
X146171428Y-67154819D02*
X145933333Y-67154819D01*
X145933333Y-67154819D02*
X145838095Y-67107200D01*
X145838095Y-67107200D02*
X145790476Y-67059580D01*
X143757142Y-60054819D02*
X143423809Y-59578628D01*
X143185714Y-60054819D02*
X143185714Y-59054819D01*
X143185714Y-59054819D02*
X143566666Y-59054819D01*
X143566666Y-59054819D02*
X143661904Y-59102438D01*
X143661904Y-59102438D02*
X143709523Y-59150057D01*
X143709523Y-59150057D02*
X143757142Y-59245295D01*
X143757142Y-59245295D02*
X143757142Y-59388152D01*
X143757142Y-59388152D02*
X143709523Y-59483390D01*
X143709523Y-59483390D02*
X143661904Y-59531009D01*
X143661904Y-59531009D02*
X143566666Y-59578628D01*
X143566666Y-59578628D02*
X143185714Y-59578628D01*
X144709523Y-60054819D02*
X144138095Y-60054819D01*
X144423809Y-60054819D02*
X144423809Y-59054819D01*
X144423809Y-59054819D02*
X144328571Y-59197676D01*
X144328571Y-59197676D02*
X144233333Y-59292914D01*
X144233333Y-59292914D02*
X144138095Y-59340533D01*
X145566666Y-59054819D02*
X145376190Y-59054819D01*
X145376190Y-59054819D02*
X145280952Y-59102438D01*
X145280952Y-59102438D02*
X145233333Y-59150057D01*
X145233333Y-59150057D02*
X145138095Y-59292914D01*
X145138095Y-59292914D02*
X145090476Y-59483390D01*
X145090476Y-59483390D02*
X145090476Y-59864342D01*
X145090476Y-59864342D02*
X145138095Y-59959580D01*
X145138095Y-59959580D02*
X145185714Y-60007200D01*
X145185714Y-60007200D02*
X145280952Y-60054819D01*
X145280952Y-60054819D02*
X145471428Y-60054819D01*
X145471428Y-60054819D02*
X145566666Y-60007200D01*
X145566666Y-60007200D02*
X145614285Y-59959580D01*
X145614285Y-59959580D02*
X145661904Y-59864342D01*
X145661904Y-59864342D02*
X145661904Y-59626247D01*
X145661904Y-59626247D02*
X145614285Y-59531009D01*
X145614285Y-59531009D02*
X145566666Y-59483390D01*
X145566666Y-59483390D02*
X145471428Y-59435771D01*
X145471428Y-59435771D02*
X145280952Y-59435771D01*
X145280952Y-59435771D02*
X145185714Y-59483390D01*
X145185714Y-59483390D02*
X145138095Y-59531009D01*
X145138095Y-59531009D02*
X145090476Y-59626247D01*
X133750057Y-60295238D02*
X133702438Y-60390476D01*
X133702438Y-60390476D02*
X133607200Y-60485714D01*
X133607200Y-60485714D02*
X133464342Y-60628571D01*
X133464342Y-60628571D02*
X133416723Y-60723809D01*
X133416723Y-60723809D02*
X133416723Y-60819047D01*
X133654819Y-60771428D02*
X133607200Y-60866666D01*
X133607200Y-60866666D02*
X133511961Y-60961904D01*
X133511961Y-60961904D02*
X133321485Y-61009523D01*
X133321485Y-61009523D02*
X132988152Y-61009523D01*
X132988152Y-61009523D02*
X132797676Y-60961904D01*
X132797676Y-60961904D02*
X132702438Y-60866666D01*
X132702438Y-60866666D02*
X132654819Y-60771428D01*
X132654819Y-60771428D02*
X132654819Y-60580952D01*
X132654819Y-60580952D02*
X132702438Y-60485714D01*
X132702438Y-60485714D02*
X132797676Y-60390476D01*
X132797676Y-60390476D02*
X132988152Y-60342857D01*
X132988152Y-60342857D02*
X133321485Y-60342857D01*
X133321485Y-60342857D02*
X133511961Y-60390476D01*
X133511961Y-60390476D02*
X133607200Y-60485714D01*
X133607200Y-60485714D02*
X133654819Y-60580952D01*
X133654819Y-60580952D02*
X133654819Y-60771428D01*
X132654819Y-59485714D02*
X132654819Y-59676190D01*
X132654819Y-59676190D02*
X132702438Y-59771428D01*
X132702438Y-59771428D02*
X132750057Y-59819047D01*
X132750057Y-59819047D02*
X132892914Y-59914285D01*
X132892914Y-59914285D02*
X133083390Y-59961904D01*
X133083390Y-59961904D02*
X133464342Y-59961904D01*
X133464342Y-59961904D02*
X133559580Y-59914285D01*
X133559580Y-59914285D02*
X133607200Y-59866666D01*
X133607200Y-59866666D02*
X133654819Y-59771428D01*
X133654819Y-59771428D02*
X133654819Y-59580952D01*
X133654819Y-59580952D02*
X133607200Y-59485714D01*
X133607200Y-59485714D02*
X133559580Y-59438095D01*
X133559580Y-59438095D02*
X133464342Y-59390476D01*
X133464342Y-59390476D02*
X133226247Y-59390476D01*
X133226247Y-59390476D02*
X133131009Y-59438095D01*
X133131009Y-59438095D02*
X133083390Y-59485714D01*
X133083390Y-59485714D02*
X133035771Y-59580952D01*
X133035771Y-59580952D02*
X133035771Y-59771428D01*
X133035771Y-59771428D02*
X133083390Y-59866666D01*
X133083390Y-59866666D02*
X133131009Y-59914285D01*
X133131009Y-59914285D02*
X133226247Y-59961904D01*
X95358333Y-67659580D02*
X95310714Y-67707200D01*
X95310714Y-67707200D02*
X95167857Y-67754819D01*
X95167857Y-67754819D02*
X95072619Y-67754819D01*
X95072619Y-67754819D02*
X94929762Y-67707200D01*
X94929762Y-67707200D02*
X94834524Y-67611961D01*
X94834524Y-67611961D02*
X94786905Y-67516723D01*
X94786905Y-67516723D02*
X94739286Y-67326247D01*
X94739286Y-67326247D02*
X94739286Y-67183390D01*
X94739286Y-67183390D02*
X94786905Y-66992914D01*
X94786905Y-66992914D02*
X94834524Y-66897676D01*
X94834524Y-66897676D02*
X94929762Y-66802438D01*
X94929762Y-66802438D02*
X95072619Y-66754819D01*
X95072619Y-66754819D02*
X95167857Y-66754819D01*
X95167857Y-66754819D02*
X95310714Y-66802438D01*
X95310714Y-66802438D02*
X95358333Y-66850057D01*
X96215476Y-66754819D02*
X96025000Y-66754819D01*
X96025000Y-66754819D02*
X95929762Y-66802438D01*
X95929762Y-66802438D02*
X95882143Y-66850057D01*
X95882143Y-66850057D02*
X95786905Y-66992914D01*
X95786905Y-66992914D02*
X95739286Y-67183390D01*
X95739286Y-67183390D02*
X95739286Y-67564342D01*
X95739286Y-67564342D02*
X95786905Y-67659580D01*
X95786905Y-67659580D02*
X95834524Y-67707200D01*
X95834524Y-67707200D02*
X95929762Y-67754819D01*
X95929762Y-67754819D02*
X96120238Y-67754819D01*
X96120238Y-67754819D02*
X96215476Y-67707200D01*
X96215476Y-67707200D02*
X96263095Y-67659580D01*
X96263095Y-67659580D02*
X96310714Y-67564342D01*
X96310714Y-67564342D02*
X96310714Y-67326247D01*
X96310714Y-67326247D02*
X96263095Y-67231009D01*
X96263095Y-67231009D02*
X96215476Y-67183390D01*
X96215476Y-67183390D02*
X96120238Y-67135771D01*
X96120238Y-67135771D02*
X95929762Y-67135771D01*
X95929762Y-67135771D02*
X95834524Y-67183390D01*
X95834524Y-67183390D02*
X95786905Y-67231009D01*
X95786905Y-67231009D02*
X95739286Y-67326247D01*
X101838095Y-97259819D02*
X101838095Y-98069342D01*
X101838095Y-98069342D02*
X101885714Y-98164580D01*
X101885714Y-98164580D02*
X101933333Y-98212200D01*
X101933333Y-98212200D02*
X102028571Y-98259819D01*
X102028571Y-98259819D02*
X102219047Y-98259819D01*
X102219047Y-98259819D02*
X102314285Y-98212200D01*
X102314285Y-98212200D02*
X102361904Y-98164580D01*
X102361904Y-98164580D02*
X102409523Y-98069342D01*
X102409523Y-98069342D02*
X102409523Y-97259819D01*
X103409523Y-98259819D02*
X102838095Y-98259819D01*
X103123809Y-98259819D02*
X103123809Y-97259819D01*
X103123809Y-97259819D02*
X103028571Y-97402676D01*
X103028571Y-97402676D02*
X102933333Y-97497914D01*
X102933333Y-97497914D02*
X102838095Y-97545533D01*
X112459580Y-98166666D02*
X112507200Y-98214285D01*
X112507200Y-98214285D02*
X112554819Y-98357142D01*
X112554819Y-98357142D02*
X112554819Y-98452380D01*
X112554819Y-98452380D02*
X112507200Y-98595237D01*
X112507200Y-98595237D02*
X112411961Y-98690475D01*
X112411961Y-98690475D02*
X112316723Y-98738094D01*
X112316723Y-98738094D02*
X112126247Y-98785713D01*
X112126247Y-98785713D02*
X111983390Y-98785713D01*
X111983390Y-98785713D02*
X111792914Y-98738094D01*
X111792914Y-98738094D02*
X111697676Y-98690475D01*
X111697676Y-98690475D02*
X111602438Y-98595237D01*
X111602438Y-98595237D02*
X111554819Y-98452380D01*
X111554819Y-98452380D02*
X111554819Y-98357142D01*
X111554819Y-98357142D02*
X111602438Y-98214285D01*
X111602438Y-98214285D02*
X111650057Y-98166666D01*
X111650057Y-97785713D02*
X111602438Y-97738094D01*
X111602438Y-97738094D02*
X111554819Y-97642856D01*
X111554819Y-97642856D02*
X111554819Y-97404761D01*
X111554819Y-97404761D02*
X111602438Y-97309523D01*
X111602438Y-97309523D02*
X111650057Y-97261904D01*
X111650057Y-97261904D02*
X111745295Y-97214285D01*
X111745295Y-97214285D02*
X111840533Y-97214285D01*
X111840533Y-97214285D02*
X111983390Y-97261904D01*
X111983390Y-97261904D02*
X112554819Y-97833332D01*
X112554819Y-97833332D02*
X112554819Y-97214285D01*
X110233333Y-92584819D02*
X109900000Y-92108628D01*
X109661905Y-92584819D02*
X109661905Y-91584819D01*
X109661905Y-91584819D02*
X110042857Y-91584819D01*
X110042857Y-91584819D02*
X110138095Y-91632438D01*
X110138095Y-91632438D02*
X110185714Y-91680057D01*
X110185714Y-91680057D02*
X110233333Y-91775295D01*
X110233333Y-91775295D02*
X110233333Y-91918152D01*
X110233333Y-91918152D02*
X110185714Y-92013390D01*
X110185714Y-92013390D02*
X110138095Y-92061009D01*
X110138095Y-92061009D02*
X110042857Y-92108628D01*
X110042857Y-92108628D02*
X109661905Y-92108628D01*
X110614286Y-91680057D02*
X110661905Y-91632438D01*
X110661905Y-91632438D02*
X110757143Y-91584819D01*
X110757143Y-91584819D02*
X110995238Y-91584819D01*
X110995238Y-91584819D02*
X111090476Y-91632438D01*
X111090476Y-91632438D02*
X111138095Y-91680057D01*
X111138095Y-91680057D02*
X111185714Y-91775295D01*
X111185714Y-91775295D02*
X111185714Y-91870533D01*
X111185714Y-91870533D02*
X111138095Y-92013390D01*
X111138095Y-92013390D02*
X110566667Y-92584819D01*
X110566667Y-92584819D02*
X111185714Y-92584819D01*
X101838095Y-59004819D02*
X101838095Y-58004819D01*
X101838095Y-58481009D02*
X102409523Y-58481009D01*
X102409523Y-59004819D02*
X102409523Y-58004819D01*
X103409523Y-59004819D02*
X102838095Y-59004819D01*
X103123809Y-59004819D02*
X103123809Y-58004819D01*
X103123809Y-58004819D02*
X103028571Y-58147676D01*
X103028571Y-58147676D02*
X102933333Y-58242914D01*
X102933333Y-58242914D02*
X102838095Y-58290533D01*
D11*
X122657856Y-106974318D02*
X122657856Y-105704318D01*
X122657856Y-105704318D02*
X123141666Y-105704318D01*
X123141666Y-105704318D02*
X123262618Y-105764794D01*
X123262618Y-105764794D02*
X123323095Y-105825270D01*
X123323095Y-105825270D02*
X123383571Y-105946222D01*
X123383571Y-105946222D02*
X123383571Y-106127651D01*
X123383571Y-106127651D02*
X123323095Y-106248603D01*
X123323095Y-106248603D02*
X123262618Y-106309080D01*
X123262618Y-106309080D02*
X123141666Y-106369556D01*
X123141666Y-106369556D02*
X122657856Y-106369556D01*
X123867380Y-106913842D02*
X124048809Y-106974318D01*
X124048809Y-106974318D02*
X124351190Y-106974318D01*
X124351190Y-106974318D02*
X124472142Y-106913842D01*
X124472142Y-106913842D02*
X124532618Y-106853365D01*
X124532618Y-106853365D02*
X124593095Y-106732413D01*
X124593095Y-106732413D02*
X124593095Y-106611461D01*
X124593095Y-106611461D02*
X124532618Y-106490508D01*
X124532618Y-106490508D02*
X124472142Y-106430032D01*
X124472142Y-106430032D02*
X124351190Y-106369556D01*
X124351190Y-106369556D02*
X124109285Y-106309080D01*
X124109285Y-106309080D02*
X123988333Y-106248603D01*
X123988333Y-106248603D02*
X123927856Y-106188127D01*
X123927856Y-106188127D02*
X123867380Y-106067175D01*
X123867380Y-106067175D02*
X123867380Y-105946222D01*
X123867380Y-105946222D02*
X123927856Y-105825270D01*
X123927856Y-105825270D02*
X123988333Y-105764794D01*
X123988333Y-105764794D02*
X124109285Y-105704318D01*
X124109285Y-105704318D02*
X124411666Y-105704318D01*
X124411666Y-105704318D02*
X124593095Y-105764794D01*
X125802619Y-106974318D02*
X125076904Y-106974318D01*
X125439761Y-106974318D02*
X125439761Y-105704318D01*
X125439761Y-105704318D02*
X125318809Y-105885746D01*
X125318809Y-105885746D02*
X125197857Y-106006699D01*
X125197857Y-106006699D02*
X125076904Y-106067175D01*
D10*
X126350057Y-65695238D02*
X126302438Y-65790476D01*
X126302438Y-65790476D02*
X126207200Y-65885714D01*
X126207200Y-65885714D02*
X126064342Y-66028571D01*
X126064342Y-66028571D02*
X126016723Y-66123809D01*
X126016723Y-66123809D02*
X126016723Y-66219047D01*
X126254819Y-66171428D02*
X126207200Y-66266666D01*
X126207200Y-66266666D02*
X126111961Y-66361904D01*
X126111961Y-66361904D02*
X125921485Y-66409523D01*
X125921485Y-66409523D02*
X125588152Y-66409523D01*
X125588152Y-66409523D02*
X125397676Y-66361904D01*
X125397676Y-66361904D02*
X125302438Y-66266666D01*
X125302438Y-66266666D02*
X125254819Y-66171428D01*
X125254819Y-66171428D02*
X125254819Y-65980952D01*
X125254819Y-65980952D02*
X125302438Y-65885714D01*
X125302438Y-65885714D02*
X125397676Y-65790476D01*
X125397676Y-65790476D02*
X125588152Y-65742857D01*
X125588152Y-65742857D02*
X125921485Y-65742857D01*
X125921485Y-65742857D02*
X126111961Y-65790476D01*
X126111961Y-65790476D02*
X126207200Y-65885714D01*
X126207200Y-65885714D02*
X126254819Y-65980952D01*
X126254819Y-65980952D02*
X126254819Y-66171428D01*
X125588152Y-64885714D02*
X126254819Y-64885714D01*
X125207200Y-65123809D02*
X125921485Y-65361904D01*
X125921485Y-65361904D02*
X125921485Y-64742857D01*
X129233333Y-83354819D02*
X128900000Y-82878628D01*
X128661905Y-83354819D02*
X128661905Y-82354819D01*
X128661905Y-82354819D02*
X129042857Y-82354819D01*
X129042857Y-82354819D02*
X129138095Y-82402438D01*
X129138095Y-82402438D02*
X129185714Y-82450057D01*
X129185714Y-82450057D02*
X129233333Y-82545295D01*
X129233333Y-82545295D02*
X129233333Y-82688152D01*
X129233333Y-82688152D02*
X129185714Y-82783390D01*
X129185714Y-82783390D02*
X129138095Y-82831009D01*
X129138095Y-82831009D02*
X129042857Y-82878628D01*
X129042857Y-82878628D02*
X128661905Y-82878628D01*
X129804762Y-82783390D02*
X129709524Y-82735771D01*
X129709524Y-82735771D02*
X129661905Y-82688152D01*
X129661905Y-82688152D02*
X129614286Y-82592914D01*
X129614286Y-82592914D02*
X129614286Y-82545295D01*
X129614286Y-82545295D02*
X129661905Y-82450057D01*
X129661905Y-82450057D02*
X129709524Y-82402438D01*
X129709524Y-82402438D02*
X129804762Y-82354819D01*
X129804762Y-82354819D02*
X129995238Y-82354819D01*
X129995238Y-82354819D02*
X130090476Y-82402438D01*
X130090476Y-82402438D02*
X130138095Y-82450057D01*
X130138095Y-82450057D02*
X130185714Y-82545295D01*
X130185714Y-82545295D02*
X130185714Y-82592914D01*
X130185714Y-82592914D02*
X130138095Y-82688152D01*
X130138095Y-82688152D02*
X130090476Y-82735771D01*
X130090476Y-82735771D02*
X129995238Y-82783390D01*
X129995238Y-82783390D02*
X129804762Y-82783390D01*
X129804762Y-82783390D02*
X129709524Y-82831009D01*
X129709524Y-82831009D02*
X129661905Y-82878628D01*
X129661905Y-82878628D02*
X129614286Y-82973866D01*
X129614286Y-82973866D02*
X129614286Y-83164342D01*
X129614286Y-83164342D02*
X129661905Y-83259580D01*
X129661905Y-83259580D02*
X129709524Y-83307200D01*
X129709524Y-83307200D02*
X129804762Y-83354819D01*
X129804762Y-83354819D02*
X129995238Y-83354819D01*
X129995238Y-83354819D02*
X130090476Y-83307200D01*
X130090476Y-83307200D02*
X130138095Y-83259580D01*
X130138095Y-83259580D02*
X130185714Y-83164342D01*
X130185714Y-83164342D02*
X130185714Y-82973866D01*
X130185714Y-82973866D02*
X130138095Y-82878628D01*
X130138095Y-82878628D02*
X130090476Y-82831009D01*
X130090476Y-82831009D02*
X129995238Y-82783390D01*
X126961905Y-85954819D02*
X126961905Y-84954819D01*
X126961905Y-84954819D02*
X127200000Y-84954819D01*
X127200000Y-84954819D02*
X127342857Y-85002438D01*
X127342857Y-85002438D02*
X127438095Y-85097676D01*
X127438095Y-85097676D02*
X127485714Y-85192914D01*
X127485714Y-85192914D02*
X127533333Y-85383390D01*
X127533333Y-85383390D02*
X127533333Y-85526247D01*
X127533333Y-85526247D02*
X127485714Y-85716723D01*
X127485714Y-85716723D02*
X127438095Y-85811961D01*
X127438095Y-85811961D02*
X127342857Y-85907200D01*
X127342857Y-85907200D02*
X127200000Y-85954819D01*
X127200000Y-85954819D02*
X126961905Y-85954819D01*
X128485714Y-85954819D02*
X127914286Y-85954819D01*
X128200000Y-85954819D02*
X128200000Y-84954819D01*
X128200000Y-84954819D02*
X128104762Y-85097676D01*
X128104762Y-85097676D02*
X128009524Y-85192914D01*
X128009524Y-85192914D02*
X127914286Y-85240533D01*
X121059580Y-96966666D02*
X121107200Y-97014285D01*
X121107200Y-97014285D02*
X121154819Y-97157142D01*
X121154819Y-97157142D02*
X121154819Y-97252380D01*
X121154819Y-97252380D02*
X121107200Y-97395237D01*
X121107200Y-97395237D02*
X121011961Y-97490475D01*
X121011961Y-97490475D02*
X120916723Y-97538094D01*
X120916723Y-97538094D02*
X120726247Y-97585713D01*
X120726247Y-97585713D02*
X120583390Y-97585713D01*
X120583390Y-97585713D02*
X120392914Y-97538094D01*
X120392914Y-97538094D02*
X120297676Y-97490475D01*
X120297676Y-97490475D02*
X120202438Y-97395237D01*
X120202438Y-97395237D02*
X120154819Y-97252380D01*
X120154819Y-97252380D02*
X120154819Y-97157142D01*
X120154819Y-97157142D02*
X120202438Y-97014285D01*
X120202438Y-97014285D02*
X120250057Y-96966666D01*
X120154819Y-96633332D02*
X120154819Y-96014285D01*
X120154819Y-96014285D02*
X120535771Y-96347618D01*
X120535771Y-96347618D02*
X120535771Y-96204761D01*
X120535771Y-96204761D02*
X120583390Y-96109523D01*
X120583390Y-96109523D02*
X120631009Y-96061904D01*
X120631009Y-96061904D02*
X120726247Y-96014285D01*
X120726247Y-96014285D02*
X120964342Y-96014285D01*
X120964342Y-96014285D02*
X121059580Y-96061904D01*
X121059580Y-96061904D02*
X121107200Y-96109523D01*
X121107200Y-96109523D02*
X121154819Y-96204761D01*
X121154819Y-96204761D02*
X121154819Y-96490475D01*
X121154819Y-96490475D02*
X121107200Y-96585713D01*
X121107200Y-96585713D02*
X121059580Y-96633332D01*
X141303819Y-70692857D02*
X140827628Y-71026190D01*
X141303819Y-71264285D02*
X140303819Y-71264285D01*
X140303819Y-71264285D02*
X140303819Y-70883333D01*
X140303819Y-70883333D02*
X140351438Y-70788095D01*
X140351438Y-70788095D02*
X140399057Y-70740476D01*
X140399057Y-70740476D02*
X140494295Y-70692857D01*
X140494295Y-70692857D02*
X140637152Y-70692857D01*
X140637152Y-70692857D02*
X140732390Y-70740476D01*
X140732390Y-70740476D02*
X140780009Y-70788095D01*
X140780009Y-70788095D02*
X140827628Y-70883333D01*
X140827628Y-70883333D02*
X140827628Y-71264285D01*
X141303819Y-69740476D02*
X141303819Y-70311904D01*
X141303819Y-70026190D02*
X140303819Y-70026190D01*
X140303819Y-70026190D02*
X140446676Y-70121428D01*
X140446676Y-70121428D02*
X140541914Y-70216666D01*
X140541914Y-70216666D02*
X140589533Y-70311904D01*
X140303819Y-69407142D02*
X140303819Y-68788095D01*
X140303819Y-68788095D02*
X140684771Y-69121428D01*
X140684771Y-69121428D02*
X140684771Y-68978571D01*
X140684771Y-68978571D02*
X140732390Y-68883333D01*
X140732390Y-68883333D02*
X140780009Y-68835714D01*
X140780009Y-68835714D02*
X140875247Y-68788095D01*
X140875247Y-68788095D02*
X141113342Y-68788095D01*
X141113342Y-68788095D02*
X141208580Y-68835714D01*
X141208580Y-68835714D02*
X141256200Y-68883333D01*
X141256200Y-68883333D02*
X141303819Y-68978571D01*
X141303819Y-68978571D02*
X141303819Y-69264285D01*
X141303819Y-69264285D02*
X141256200Y-69359523D01*
X141256200Y-69359523D02*
X141208580Y-69407142D01*
X94966666Y-97154819D02*
X94966666Y-97869104D01*
X94966666Y-97869104D02*
X94919047Y-98011961D01*
X94919047Y-98011961D02*
X94823809Y-98107200D01*
X94823809Y-98107200D02*
X94680952Y-98154819D01*
X94680952Y-98154819D02*
X94585714Y-98154819D01*
X95871428Y-97488152D02*
X95871428Y-98154819D01*
X95633333Y-97107200D02*
X95395238Y-97821485D01*
X95395238Y-97821485D02*
X96014285Y-97821485D01*
X131366666Y-57154819D02*
X131366666Y-57869104D01*
X131366666Y-57869104D02*
X131319047Y-58011961D01*
X131319047Y-58011961D02*
X131223809Y-58107200D01*
X131223809Y-58107200D02*
X131080952Y-58154819D01*
X131080952Y-58154819D02*
X130985714Y-58154819D01*
X132366666Y-58154819D02*
X131795238Y-58154819D01*
X132080952Y-58154819D02*
X132080952Y-57154819D01*
X132080952Y-57154819D02*
X131985714Y-57297676D01*
X131985714Y-57297676D02*
X131890476Y-57392914D01*
X131890476Y-57392914D02*
X131795238Y-57440533D01*
X105354819Y-98638094D02*
X104354819Y-98638094D01*
X104354819Y-98638094D02*
X104354819Y-98399999D01*
X104354819Y-98399999D02*
X104402438Y-98257142D01*
X104402438Y-98257142D02*
X104497676Y-98161904D01*
X104497676Y-98161904D02*
X104592914Y-98114285D01*
X104592914Y-98114285D02*
X104783390Y-98066666D01*
X104783390Y-98066666D02*
X104926247Y-98066666D01*
X104926247Y-98066666D02*
X105116723Y-98114285D01*
X105116723Y-98114285D02*
X105211961Y-98161904D01*
X105211961Y-98161904D02*
X105307200Y-98257142D01*
X105307200Y-98257142D02*
X105354819Y-98399999D01*
X105354819Y-98399999D02*
X105354819Y-98638094D01*
X104354819Y-97161904D02*
X104354819Y-97638094D01*
X104354819Y-97638094D02*
X104831009Y-97685713D01*
X104831009Y-97685713D02*
X104783390Y-97638094D01*
X104783390Y-97638094D02*
X104735771Y-97542856D01*
X104735771Y-97542856D02*
X104735771Y-97304761D01*
X104735771Y-97304761D02*
X104783390Y-97209523D01*
X104783390Y-97209523D02*
X104831009Y-97161904D01*
X104831009Y-97161904D02*
X104926247Y-97114285D01*
X104926247Y-97114285D02*
X105164342Y-97114285D01*
X105164342Y-97114285D02*
X105259580Y-97161904D01*
X105259580Y-97161904D02*
X105307200Y-97209523D01*
X105307200Y-97209523D02*
X105354819Y-97304761D01*
X105354819Y-97304761D02*
X105354819Y-97542856D01*
X105354819Y-97542856D02*
X105307200Y-97638094D01*
X105307200Y-97638094D02*
X105259580Y-97685713D01*
X95033333Y-91209580D02*
X94985714Y-91257200D01*
X94985714Y-91257200D02*
X94842857Y-91304819D01*
X94842857Y-91304819D02*
X94747619Y-91304819D01*
X94747619Y-91304819D02*
X94604762Y-91257200D01*
X94604762Y-91257200D02*
X94509524Y-91161961D01*
X94509524Y-91161961D02*
X94461905Y-91066723D01*
X94461905Y-91066723D02*
X94414286Y-90876247D01*
X94414286Y-90876247D02*
X94414286Y-90733390D01*
X94414286Y-90733390D02*
X94461905Y-90542914D01*
X94461905Y-90542914D02*
X94509524Y-90447676D01*
X94509524Y-90447676D02*
X94604762Y-90352438D01*
X94604762Y-90352438D02*
X94747619Y-90304819D01*
X94747619Y-90304819D02*
X94842857Y-90304819D01*
X94842857Y-90304819D02*
X94985714Y-90352438D01*
X94985714Y-90352438D02*
X95033333Y-90400057D01*
X95890476Y-90638152D02*
X95890476Y-91304819D01*
X95652381Y-90257200D02*
X95414286Y-90971485D01*
X95414286Y-90971485D02*
X96033333Y-90971485D01*
X116324819Y-94442857D02*
X115848628Y-94776190D01*
X116324819Y-95014285D02*
X115324819Y-95014285D01*
X115324819Y-95014285D02*
X115324819Y-94633333D01*
X115324819Y-94633333D02*
X115372438Y-94538095D01*
X115372438Y-94538095D02*
X115420057Y-94490476D01*
X115420057Y-94490476D02*
X115515295Y-94442857D01*
X115515295Y-94442857D02*
X115658152Y-94442857D01*
X115658152Y-94442857D02*
X115753390Y-94490476D01*
X115753390Y-94490476D02*
X115801009Y-94538095D01*
X115801009Y-94538095D02*
X115848628Y-94633333D01*
X115848628Y-94633333D02*
X115848628Y-95014285D01*
X116324819Y-93490476D02*
X116324819Y-94061904D01*
X116324819Y-93776190D02*
X115324819Y-93776190D01*
X115324819Y-93776190D02*
X115467676Y-93871428D01*
X115467676Y-93871428D02*
X115562914Y-93966666D01*
X115562914Y-93966666D02*
X115610533Y-94061904D01*
X116324819Y-93014285D02*
X116324819Y-92823809D01*
X116324819Y-92823809D02*
X116277200Y-92728571D01*
X116277200Y-92728571D02*
X116229580Y-92680952D01*
X116229580Y-92680952D02*
X116086723Y-92585714D01*
X116086723Y-92585714D02*
X115896247Y-92538095D01*
X115896247Y-92538095D02*
X115515295Y-92538095D01*
X115515295Y-92538095D02*
X115420057Y-92585714D01*
X115420057Y-92585714D02*
X115372438Y-92633333D01*
X115372438Y-92633333D02*
X115324819Y-92728571D01*
X115324819Y-92728571D02*
X115324819Y-92919047D01*
X115324819Y-92919047D02*
X115372438Y-93014285D01*
X115372438Y-93014285D02*
X115420057Y-93061904D01*
X115420057Y-93061904D02*
X115515295Y-93109523D01*
X115515295Y-93109523D02*
X115753390Y-93109523D01*
X115753390Y-93109523D02*
X115848628Y-93061904D01*
X115848628Y-93061904D02*
X115896247Y-93014285D01*
X115896247Y-93014285D02*
X115943866Y-92919047D01*
X115943866Y-92919047D02*
X115943866Y-92728571D01*
X115943866Y-92728571D02*
X115896247Y-92633333D01*
X115896247Y-92633333D02*
X115848628Y-92585714D01*
X115848628Y-92585714D02*
X115753390Y-92538095D01*
X110133333Y-87354819D02*
X109800000Y-86878628D01*
X109561905Y-87354819D02*
X109561905Y-86354819D01*
X109561905Y-86354819D02*
X109942857Y-86354819D01*
X109942857Y-86354819D02*
X110038095Y-86402438D01*
X110038095Y-86402438D02*
X110085714Y-86450057D01*
X110085714Y-86450057D02*
X110133333Y-86545295D01*
X110133333Y-86545295D02*
X110133333Y-86688152D01*
X110133333Y-86688152D02*
X110085714Y-86783390D01*
X110085714Y-86783390D02*
X110038095Y-86831009D01*
X110038095Y-86831009D02*
X109942857Y-86878628D01*
X109942857Y-86878628D02*
X109561905Y-86878628D01*
X111085714Y-87354819D02*
X110514286Y-87354819D01*
X110800000Y-87354819D02*
X110800000Y-86354819D01*
X110800000Y-86354819D02*
X110704762Y-86497676D01*
X110704762Y-86497676D02*
X110609524Y-86592914D01*
X110609524Y-86592914D02*
X110514286Y-86640533D01*
X126250057Y-74795238D02*
X126202438Y-74890476D01*
X126202438Y-74890476D02*
X126107200Y-74985714D01*
X126107200Y-74985714D02*
X125964342Y-75128571D01*
X125964342Y-75128571D02*
X125916723Y-75223809D01*
X125916723Y-75223809D02*
X125916723Y-75319047D01*
X126154819Y-75271428D02*
X126107200Y-75366666D01*
X126107200Y-75366666D02*
X126011961Y-75461904D01*
X126011961Y-75461904D02*
X125821485Y-75509523D01*
X125821485Y-75509523D02*
X125488152Y-75509523D01*
X125488152Y-75509523D02*
X125297676Y-75461904D01*
X125297676Y-75461904D02*
X125202438Y-75366666D01*
X125202438Y-75366666D02*
X125154819Y-75271428D01*
X125154819Y-75271428D02*
X125154819Y-75080952D01*
X125154819Y-75080952D02*
X125202438Y-74985714D01*
X125202438Y-74985714D02*
X125297676Y-74890476D01*
X125297676Y-74890476D02*
X125488152Y-74842857D01*
X125488152Y-74842857D02*
X125821485Y-74842857D01*
X125821485Y-74842857D02*
X126011961Y-74890476D01*
X126011961Y-74890476D02*
X126107200Y-74985714D01*
X126107200Y-74985714D02*
X126154819Y-75080952D01*
X126154819Y-75080952D02*
X126154819Y-75271428D01*
X125154819Y-74509523D02*
X125154819Y-73890476D01*
X125154819Y-73890476D02*
X125535771Y-74223809D01*
X125535771Y-74223809D02*
X125535771Y-74080952D01*
X125535771Y-74080952D02*
X125583390Y-73985714D01*
X125583390Y-73985714D02*
X125631009Y-73938095D01*
X125631009Y-73938095D02*
X125726247Y-73890476D01*
X125726247Y-73890476D02*
X125964342Y-73890476D01*
X125964342Y-73890476D02*
X126059580Y-73938095D01*
X126059580Y-73938095D02*
X126107200Y-73985714D01*
X126107200Y-73985714D02*
X126154819Y-74080952D01*
X126154819Y-74080952D02*
X126154819Y-74366666D01*
X126154819Y-74366666D02*
X126107200Y-74461904D01*
X126107200Y-74461904D02*
X126059580Y-74509523D01*
X132938095Y-107054819D02*
X132938095Y-106054819D01*
X132938095Y-106531009D02*
X133509523Y-106531009D01*
X133509523Y-107054819D02*
X133509523Y-106054819D01*
X134414285Y-106388152D02*
X134414285Y-107054819D01*
X134176190Y-106007200D02*
X133938095Y-106721485D01*
X133938095Y-106721485D02*
X134557142Y-106721485D01*
X142234905Y-72949819D02*
X142234905Y-71949819D01*
X142234905Y-71949819D02*
X142473000Y-71949819D01*
X142473000Y-71949819D02*
X142615857Y-71997438D01*
X142615857Y-71997438D02*
X142711095Y-72092676D01*
X142711095Y-72092676D02*
X142758714Y-72187914D01*
X142758714Y-72187914D02*
X142806333Y-72378390D01*
X142806333Y-72378390D02*
X142806333Y-72521247D01*
X142806333Y-72521247D02*
X142758714Y-72711723D01*
X142758714Y-72711723D02*
X142711095Y-72806961D01*
X142711095Y-72806961D02*
X142615857Y-72902200D01*
X142615857Y-72902200D02*
X142473000Y-72949819D01*
X142473000Y-72949819D02*
X142234905Y-72949819D01*
X143139667Y-71949819D02*
X143758714Y-71949819D01*
X143758714Y-71949819D02*
X143425381Y-72330771D01*
X143425381Y-72330771D02*
X143568238Y-72330771D01*
X143568238Y-72330771D02*
X143663476Y-72378390D01*
X143663476Y-72378390D02*
X143711095Y-72426009D01*
X143711095Y-72426009D02*
X143758714Y-72521247D01*
X143758714Y-72521247D02*
X143758714Y-72759342D01*
X143758714Y-72759342D02*
X143711095Y-72854580D01*
X143711095Y-72854580D02*
X143663476Y-72902200D01*
X143663476Y-72902200D02*
X143568238Y-72949819D01*
X143568238Y-72949819D02*
X143282524Y-72949819D01*
X143282524Y-72949819D02*
X143187286Y-72902200D01*
X143187286Y-72902200D02*
X143139667Y-72854580D01*
X117450057Y-67795238D02*
X117402438Y-67890476D01*
X117402438Y-67890476D02*
X117307200Y-67985714D01*
X117307200Y-67985714D02*
X117164342Y-68128571D01*
X117164342Y-68128571D02*
X117116723Y-68223809D01*
X117116723Y-68223809D02*
X117116723Y-68319047D01*
X117354819Y-68271428D02*
X117307200Y-68366666D01*
X117307200Y-68366666D02*
X117211961Y-68461904D01*
X117211961Y-68461904D02*
X117021485Y-68509523D01*
X117021485Y-68509523D02*
X116688152Y-68509523D01*
X116688152Y-68509523D02*
X116497676Y-68461904D01*
X116497676Y-68461904D02*
X116402438Y-68366666D01*
X116402438Y-68366666D02*
X116354819Y-68271428D01*
X116354819Y-68271428D02*
X116354819Y-68080952D01*
X116354819Y-68080952D02*
X116402438Y-67985714D01*
X116402438Y-67985714D02*
X116497676Y-67890476D01*
X116497676Y-67890476D02*
X116688152Y-67842857D01*
X116688152Y-67842857D02*
X117021485Y-67842857D01*
X117021485Y-67842857D02*
X117211961Y-67890476D01*
X117211961Y-67890476D02*
X117307200Y-67985714D01*
X117307200Y-67985714D02*
X117354819Y-68080952D01*
X117354819Y-68080952D02*
X117354819Y-68271428D01*
X117354819Y-66890476D02*
X117354819Y-67461904D01*
X117354819Y-67176190D02*
X116354819Y-67176190D01*
X116354819Y-67176190D02*
X116497676Y-67271428D01*
X116497676Y-67271428D02*
X116592914Y-67366666D01*
X116592914Y-67366666D02*
X116640533Y-67461904D01*
X116900057Y-74357738D02*
X116852438Y-74452976D01*
X116852438Y-74452976D02*
X116757200Y-74548214D01*
X116757200Y-74548214D02*
X116614342Y-74691071D01*
X116614342Y-74691071D02*
X116566723Y-74786309D01*
X116566723Y-74786309D02*
X116566723Y-74881547D01*
X116804819Y-74833928D02*
X116757200Y-74929166D01*
X116757200Y-74929166D02*
X116661961Y-75024404D01*
X116661961Y-75024404D02*
X116471485Y-75072023D01*
X116471485Y-75072023D02*
X116138152Y-75072023D01*
X116138152Y-75072023D02*
X115947676Y-75024404D01*
X115947676Y-75024404D02*
X115852438Y-74929166D01*
X115852438Y-74929166D02*
X115804819Y-74833928D01*
X115804819Y-74833928D02*
X115804819Y-74643452D01*
X115804819Y-74643452D02*
X115852438Y-74548214D01*
X115852438Y-74548214D02*
X115947676Y-74452976D01*
X115947676Y-74452976D02*
X116138152Y-74405357D01*
X116138152Y-74405357D02*
X116471485Y-74405357D01*
X116471485Y-74405357D02*
X116661961Y-74452976D01*
X116661961Y-74452976D02*
X116757200Y-74548214D01*
X116757200Y-74548214D02*
X116804819Y-74643452D01*
X116804819Y-74643452D02*
X116804819Y-74833928D01*
X115900057Y-74024404D02*
X115852438Y-73976785D01*
X115852438Y-73976785D02*
X115804819Y-73881547D01*
X115804819Y-73881547D02*
X115804819Y-73643452D01*
X115804819Y-73643452D02*
X115852438Y-73548214D01*
X115852438Y-73548214D02*
X115900057Y-73500595D01*
X115900057Y-73500595D02*
X115995295Y-73452976D01*
X115995295Y-73452976D02*
X116090533Y-73452976D01*
X116090533Y-73452976D02*
X116233390Y-73500595D01*
X116233390Y-73500595D02*
X116804819Y-74072023D01*
X116804819Y-74072023D02*
X116804819Y-73452976D01*
X143654819Y-56042857D02*
X143178628Y-56376190D01*
X143654819Y-56614285D02*
X142654819Y-56614285D01*
X142654819Y-56614285D02*
X142654819Y-56233333D01*
X142654819Y-56233333D02*
X142702438Y-56138095D01*
X142702438Y-56138095D02*
X142750057Y-56090476D01*
X142750057Y-56090476D02*
X142845295Y-56042857D01*
X142845295Y-56042857D02*
X142988152Y-56042857D01*
X142988152Y-56042857D02*
X143083390Y-56090476D01*
X143083390Y-56090476D02*
X143131009Y-56138095D01*
X143131009Y-56138095D02*
X143178628Y-56233333D01*
X143178628Y-56233333D02*
X143178628Y-56614285D01*
X143654819Y-55090476D02*
X143654819Y-55661904D01*
X143654819Y-55376190D02*
X142654819Y-55376190D01*
X142654819Y-55376190D02*
X142797676Y-55471428D01*
X142797676Y-55471428D02*
X142892914Y-55566666D01*
X142892914Y-55566666D02*
X142940533Y-55661904D01*
X142654819Y-54757142D02*
X142654819Y-54090476D01*
X142654819Y-54090476D02*
X143654819Y-54519047D01*
X123133333Y-79654819D02*
X122800000Y-79178628D01*
X122561905Y-79654819D02*
X122561905Y-78654819D01*
X122561905Y-78654819D02*
X122942857Y-78654819D01*
X122942857Y-78654819D02*
X123038095Y-78702438D01*
X123038095Y-78702438D02*
X123085714Y-78750057D01*
X123085714Y-78750057D02*
X123133333Y-78845295D01*
X123133333Y-78845295D02*
X123133333Y-78988152D01*
X123133333Y-78988152D02*
X123085714Y-79083390D01*
X123085714Y-79083390D02*
X123038095Y-79131009D01*
X123038095Y-79131009D02*
X122942857Y-79178628D01*
X122942857Y-79178628D02*
X122561905Y-79178628D01*
X124038095Y-78654819D02*
X123561905Y-78654819D01*
X123561905Y-78654819D02*
X123514286Y-79131009D01*
X123514286Y-79131009D02*
X123561905Y-79083390D01*
X123561905Y-79083390D02*
X123657143Y-79035771D01*
X123657143Y-79035771D02*
X123895238Y-79035771D01*
X123895238Y-79035771D02*
X123990476Y-79083390D01*
X123990476Y-79083390D02*
X124038095Y-79131009D01*
X124038095Y-79131009D02*
X124085714Y-79226247D01*
X124085714Y-79226247D02*
X124085714Y-79464342D01*
X124085714Y-79464342D02*
X124038095Y-79559580D01*
X124038095Y-79559580D02*
X123990476Y-79607200D01*
X123990476Y-79607200D02*
X123895238Y-79654819D01*
X123895238Y-79654819D02*
X123657143Y-79654819D01*
X123657143Y-79654819D02*
X123561905Y-79607200D01*
X123561905Y-79607200D02*
X123514286Y-79559580D01*
X135350057Y-67095238D02*
X135302438Y-67190476D01*
X135302438Y-67190476D02*
X135207200Y-67285714D01*
X135207200Y-67285714D02*
X135064342Y-67428571D01*
X135064342Y-67428571D02*
X135016723Y-67523809D01*
X135016723Y-67523809D02*
X135016723Y-67619047D01*
X135254819Y-67571428D02*
X135207200Y-67666666D01*
X135207200Y-67666666D02*
X135111961Y-67761904D01*
X135111961Y-67761904D02*
X134921485Y-67809523D01*
X134921485Y-67809523D02*
X134588152Y-67809523D01*
X134588152Y-67809523D02*
X134397676Y-67761904D01*
X134397676Y-67761904D02*
X134302438Y-67666666D01*
X134302438Y-67666666D02*
X134254819Y-67571428D01*
X134254819Y-67571428D02*
X134254819Y-67380952D01*
X134254819Y-67380952D02*
X134302438Y-67285714D01*
X134302438Y-67285714D02*
X134397676Y-67190476D01*
X134397676Y-67190476D02*
X134588152Y-67142857D01*
X134588152Y-67142857D02*
X134921485Y-67142857D01*
X134921485Y-67142857D02*
X135111961Y-67190476D01*
X135111961Y-67190476D02*
X135207200Y-67285714D01*
X135207200Y-67285714D02*
X135254819Y-67380952D01*
X135254819Y-67380952D02*
X135254819Y-67571428D01*
X134254819Y-66238095D02*
X134254819Y-66714285D01*
X134254819Y-66714285D02*
X134731009Y-66761904D01*
X134731009Y-66761904D02*
X134683390Y-66714285D01*
X134683390Y-66714285D02*
X134635771Y-66619047D01*
X134635771Y-66619047D02*
X134635771Y-66380952D01*
X134635771Y-66380952D02*
X134683390Y-66285714D01*
X134683390Y-66285714D02*
X134731009Y-66238095D01*
X134731009Y-66238095D02*
X134826247Y-66190476D01*
X134826247Y-66190476D02*
X135064342Y-66190476D01*
X135064342Y-66190476D02*
X135159580Y-66238095D01*
X135159580Y-66238095D02*
X135207200Y-66285714D01*
X135207200Y-66285714D02*
X135254819Y-66380952D01*
X135254819Y-66380952D02*
X135254819Y-66619047D01*
X135254819Y-66619047D02*
X135207200Y-66714285D01*
X135207200Y-66714285D02*
X135159580Y-66761904D01*
X136957142Y-75454819D02*
X136623809Y-74978628D01*
X136385714Y-75454819D02*
X136385714Y-74454819D01*
X136385714Y-74454819D02*
X136766666Y-74454819D01*
X136766666Y-74454819D02*
X136861904Y-74502438D01*
X136861904Y-74502438D02*
X136909523Y-74550057D01*
X136909523Y-74550057D02*
X136957142Y-74645295D01*
X136957142Y-74645295D02*
X136957142Y-74788152D01*
X136957142Y-74788152D02*
X136909523Y-74883390D01*
X136909523Y-74883390D02*
X136861904Y-74931009D01*
X136861904Y-74931009D02*
X136766666Y-74978628D01*
X136766666Y-74978628D02*
X136385714Y-74978628D01*
X137909523Y-75454819D02*
X137338095Y-75454819D01*
X137623809Y-75454819D02*
X137623809Y-74454819D01*
X137623809Y-74454819D02*
X137528571Y-74597676D01*
X137528571Y-74597676D02*
X137433333Y-74692914D01*
X137433333Y-74692914D02*
X137338095Y-74740533D01*
X138766666Y-74788152D02*
X138766666Y-75454819D01*
X138528571Y-74407200D02*
X138290476Y-75121485D01*
X138290476Y-75121485D02*
X138909523Y-75121485D01*
X122633333Y-78354819D02*
X122300000Y-77878628D01*
X122061905Y-78354819D02*
X122061905Y-77354819D01*
X122061905Y-77354819D02*
X122442857Y-77354819D01*
X122442857Y-77354819D02*
X122538095Y-77402438D01*
X122538095Y-77402438D02*
X122585714Y-77450057D01*
X122585714Y-77450057D02*
X122633333Y-77545295D01*
X122633333Y-77545295D02*
X122633333Y-77688152D01*
X122633333Y-77688152D02*
X122585714Y-77783390D01*
X122585714Y-77783390D02*
X122538095Y-77831009D01*
X122538095Y-77831009D02*
X122442857Y-77878628D01*
X122442857Y-77878628D02*
X122061905Y-77878628D01*
X123490476Y-77354819D02*
X123300000Y-77354819D01*
X123300000Y-77354819D02*
X123204762Y-77402438D01*
X123204762Y-77402438D02*
X123157143Y-77450057D01*
X123157143Y-77450057D02*
X123061905Y-77592914D01*
X123061905Y-77592914D02*
X123014286Y-77783390D01*
X123014286Y-77783390D02*
X123014286Y-78164342D01*
X123014286Y-78164342D02*
X123061905Y-78259580D01*
X123061905Y-78259580D02*
X123109524Y-78307200D01*
X123109524Y-78307200D02*
X123204762Y-78354819D01*
X123204762Y-78354819D02*
X123395238Y-78354819D01*
X123395238Y-78354819D02*
X123490476Y-78307200D01*
X123490476Y-78307200D02*
X123538095Y-78259580D01*
X123538095Y-78259580D02*
X123585714Y-78164342D01*
X123585714Y-78164342D02*
X123585714Y-77926247D01*
X123585714Y-77926247D02*
X123538095Y-77831009D01*
X123538095Y-77831009D02*
X123490476Y-77783390D01*
X123490476Y-77783390D02*
X123395238Y-77735771D01*
X123395238Y-77735771D02*
X123204762Y-77735771D01*
X123204762Y-77735771D02*
X123109524Y-77783390D01*
X123109524Y-77783390D02*
X123061905Y-77831009D01*
X123061905Y-77831009D02*
X123014286Y-77926247D01*
X117233333Y-62254819D02*
X116900000Y-61778628D01*
X116661905Y-62254819D02*
X116661905Y-61254819D01*
X116661905Y-61254819D02*
X117042857Y-61254819D01*
X117042857Y-61254819D02*
X117138095Y-61302438D01*
X117138095Y-61302438D02*
X117185714Y-61350057D01*
X117185714Y-61350057D02*
X117233333Y-61445295D01*
X117233333Y-61445295D02*
X117233333Y-61588152D01*
X117233333Y-61588152D02*
X117185714Y-61683390D01*
X117185714Y-61683390D02*
X117138095Y-61731009D01*
X117138095Y-61731009D02*
X117042857Y-61778628D01*
X117042857Y-61778628D02*
X116661905Y-61778628D01*
X117566667Y-61254819D02*
X118233333Y-61254819D01*
X118233333Y-61254819D02*
X117804762Y-62254819D01*
X103233333Y-104159580D02*
X103185714Y-104207200D01*
X103185714Y-104207200D02*
X103042857Y-104254819D01*
X103042857Y-104254819D02*
X102947619Y-104254819D01*
X102947619Y-104254819D02*
X102804762Y-104207200D01*
X102804762Y-104207200D02*
X102709524Y-104111961D01*
X102709524Y-104111961D02*
X102661905Y-104016723D01*
X102661905Y-104016723D02*
X102614286Y-103826247D01*
X102614286Y-103826247D02*
X102614286Y-103683390D01*
X102614286Y-103683390D02*
X102661905Y-103492914D01*
X102661905Y-103492914D02*
X102709524Y-103397676D01*
X102709524Y-103397676D02*
X102804762Y-103302438D01*
X102804762Y-103302438D02*
X102947619Y-103254819D01*
X102947619Y-103254819D02*
X103042857Y-103254819D01*
X103042857Y-103254819D02*
X103185714Y-103302438D01*
X103185714Y-103302438D02*
X103233333Y-103350057D01*
X104185714Y-104254819D02*
X103614286Y-104254819D01*
X103900000Y-104254819D02*
X103900000Y-103254819D01*
X103900000Y-103254819D02*
X103804762Y-103397676D01*
X103804762Y-103397676D02*
X103709524Y-103492914D01*
X103709524Y-103492914D02*
X103614286Y-103540533D01*
X129566666Y-104854819D02*
X129566666Y-105569104D01*
X129566666Y-105569104D02*
X129519047Y-105711961D01*
X129519047Y-105711961D02*
X129423809Y-105807200D01*
X129423809Y-105807200D02*
X129280952Y-105854819D01*
X129280952Y-105854819D02*
X129185714Y-105854819D01*
X129995238Y-104950057D02*
X130042857Y-104902438D01*
X130042857Y-104902438D02*
X130138095Y-104854819D01*
X130138095Y-104854819D02*
X130376190Y-104854819D01*
X130376190Y-104854819D02*
X130471428Y-104902438D01*
X130471428Y-104902438D02*
X130519047Y-104950057D01*
X130519047Y-104950057D02*
X130566666Y-105045295D01*
X130566666Y-105045295D02*
X130566666Y-105140533D01*
X130566666Y-105140533D02*
X130519047Y-105283390D01*
X130519047Y-105283390D02*
X129947619Y-105854819D01*
X129947619Y-105854819D02*
X130566666Y-105854819D01*
X131757142Y-80254819D02*
X131423809Y-79778628D01*
X131185714Y-80254819D02*
X131185714Y-79254819D01*
X131185714Y-79254819D02*
X131566666Y-79254819D01*
X131566666Y-79254819D02*
X131661904Y-79302438D01*
X131661904Y-79302438D02*
X131709523Y-79350057D01*
X131709523Y-79350057D02*
X131757142Y-79445295D01*
X131757142Y-79445295D02*
X131757142Y-79588152D01*
X131757142Y-79588152D02*
X131709523Y-79683390D01*
X131709523Y-79683390D02*
X131661904Y-79731009D01*
X131661904Y-79731009D02*
X131566666Y-79778628D01*
X131566666Y-79778628D02*
X131185714Y-79778628D01*
X132709523Y-80254819D02*
X132138095Y-80254819D01*
X132423809Y-80254819D02*
X132423809Y-79254819D01*
X132423809Y-79254819D02*
X132328571Y-79397676D01*
X132328571Y-79397676D02*
X132233333Y-79492914D01*
X132233333Y-79492914D02*
X132138095Y-79540533D01*
X133328571Y-79254819D02*
X133423809Y-79254819D01*
X133423809Y-79254819D02*
X133519047Y-79302438D01*
X133519047Y-79302438D02*
X133566666Y-79350057D01*
X133566666Y-79350057D02*
X133614285Y-79445295D01*
X133614285Y-79445295D02*
X133661904Y-79635771D01*
X133661904Y-79635771D02*
X133661904Y-79873866D01*
X133661904Y-79873866D02*
X133614285Y-80064342D01*
X133614285Y-80064342D02*
X133566666Y-80159580D01*
X133566666Y-80159580D02*
X133519047Y-80207200D01*
X133519047Y-80207200D02*
X133423809Y-80254819D01*
X133423809Y-80254819D02*
X133328571Y-80254819D01*
X133328571Y-80254819D02*
X133233333Y-80207200D01*
X133233333Y-80207200D02*
X133185714Y-80159580D01*
X133185714Y-80159580D02*
X133138095Y-80064342D01*
X133138095Y-80064342D02*
X133090476Y-79873866D01*
X133090476Y-79873866D02*
X133090476Y-79635771D01*
X133090476Y-79635771D02*
X133138095Y-79445295D01*
X133138095Y-79445295D02*
X133185714Y-79350057D01*
X133185714Y-79350057D02*
X133233333Y-79302438D01*
X133233333Y-79302438D02*
X133328571Y-79254819D01*
X134854819Y-84738094D02*
X133854819Y-84738094D01*
X134854819Y-84166666D02*
X134283390Y-84595237D01*
X133854819Y-84166666D02*
X134426247Y-84738094D01*
X134854819Y-83214285D02*
X134854819Y-83785713D01*
X134854819Y-83499999D02*
X133854819Y-83499999D01*
X133854819Y-83499999D02*
X133997676Y-83595237D01*
X133997676Y-83595237D02*
X134092914Y-83690475D01*
X134092914Y-83690475D02*
X134140533Y-83785713D01*
X131657142Y-78854819D02*
X131323809Y-78378628D01*
X131085714Y-78854819D02*
X131085714Y-77854819D01*
X131085714Y-77854819D02*
X131466666Y-77854819D01*
X131466666Y-77854819D02*
X131561904Y-77902438D01*
X131561904Y-77902438D02*
X131609523Y-77950057D01*
X131609523Y-77950057D02*
X131657142Y-78045295D01*
X131657142Y-78045295D02*
X131657142Y-78188152D01*
X131657142Y-78188152D02*
X131609523Y-78283390D01*
X131609523Y-78283390D02*
X131561904Y-78331009D01*
X131561904Y-78331009D02*
X131466666Y-78378628D01*
X131466666Y-78378628D02*
X131085714Y-78378628D01*
X132609523Y-78854819D02*
X132038095Y-78854819D01*
X132323809Y-78854819D02*
X132323809Y-77854819D01*
X132323809Y-77854819D02*
X132228571Y-77997676D01*
X132228571Y-77997676D02*
X132133333Y-78092914D01*
X132133333Y-78092914D02*
X132038095Y-78140533D01*
X133561904Y-78854819D02*
X132990476Y-78854819D01*
X133276190Y-78854819D02*
X133276190Y-77854819D01*
X133276190Y-77854819D02*
X133180952Y-77997676D01*
X133180952Y-77997676D02*
X133085714Y-78092914D01*
X133085714Y-78092914D02*
X132990476Y-78140533D01*
X95333333Y-60109580D02*
X95285714Y-60157200D01*
X95285714Y-60157200D02*
X95142857Y-60204819D01*
X95142857Y-60204819D02*
X95047619Y-60204819D01*
X95047619Y-60204819D02*
X94904762Y-60157200D01*
X94904762Y-60157200D02*
X94809524Y-60061961D01*
X94809524Y-60061961D02*
X94761905Y-59966723D01*
X94761905Y-59966723D02*
X94714286Y-59776247D01*
X94714286Y-59776247D02*
X94714286Y-59633390D01*
X94714286Y-59633390D02*
X94761905Y-59442914D01*
X94761905Y-59442914D02*
X94809524Y-59347676D01*
X94809524Y-59347676D02*
X94904762Y-59252438D01*
X94904762Y-59252438D02*
X95047619Y-59204819D01*
X95047619Y-59204819D02*
X95142857Y-59204819D01*
X95142857Y-59204819D02*
X95285714Y-59252438D01*
X95285714Y-59252438D02*
X95333333Y-59300057D01*
X96238095Y-59204819D02*
X95761905Y-59204819D01*
X95761905Y-59204819D02*
X95714286Y-59681009D01*
X95714286Y-59681009D02*
X95761905Y-59633390D01*
X95761905Y-59633390D02*
X95857143Y-59585771D01*
X95857143Y-59585771D02*
X96095238Y-59585771D01*
X96095238Y-59585771D02*
X96190476Y-59633390D01*
X96190476Y-59633390D02*
X96238095Y-59681009D01*
X96238095Y-59681009D02*
X96285714Y-59776247D01*
X96285714Y-59776247D02*
X96285714Y-60014342D01*
X96285714Y-60014342D02*
X96238095Y-60109580D01*
X96238095Y-60109580D02*
X96190476Y-60157200D01*
X96190476Y-60157200D02*
X96095238Y-60204819D01*
X96095238Y-60204819D02*
X95857143Y-60204819D01*
X95857143Y-60204819D02*
X95761905Y-60157200D01*
X95761905Y-60157200D02*
X95714286Y-60109580D01*
X116133333Y-78054819D02*
X115800000Y-77578628D01*
X115561905Y-78054819D02*
X115561905Y-77054819D01*
X115561905Y-77054819D02*
X115942857Y-77054819D01*
X115942857Y-77054819D02*
X116038095Y-77102438D01*
X116038095Y-77102438D02*
X116085714Y-77150057D01*
X116085714Y-77150057D02*
X116133333Y-77245295D01*
X116133333Y-77245295D02*
X116133333Y-77388152D01*
X116133333Y-77388152D02*
X116085714Y-77483390D01*
X116085714Y-77483390D02*
X116038095Y-77531009D01*
X116038095Y-77531009D02*
X115942857Y-77578628D01*
X115942857Y-77578628D02*
X115561905Y-77578628D01*
X116990476Y-77388152D02*
X116990476Y-78054819D01*
X116752381Y-77007200D02*
X116514286Y-77721485D01*
X116514286Y-77721485D02*
X117133333Y-77721485D01*
X129133333Y-84654819D02*
X128800000Y-84178628D01*
X128561905Y-84654819D02*
X128561905Y-83654819D01*
X128561905Y-83654819D02*
X128942857Y-83654819D01*
X128942857Y-83654819D02*
X129038095Y-83702438D01*
X129038095Y-83702438D02*
X129085714Y-83750057D01*
X129085714Y-83750057D02*
X129133333Y-83845295D01*
X129133333Y-83845295D02*
X129133333Y-83988152D01*
X129133333Y-83988152D02*
X129085714Y-84083390D01*
X129085714Y-84083390D02*
X129038095Y-84131009D01*
X129038095Y-84131009D02*
X128942857Y-84178628D01*
X128942857Y-84178628D02*
X128561905Y-84178628D01*
X129609524Y-84654819D02*
X129800000Y-84654819D01*
X129800000Y-84654819D02*
X129895238Y-84607200D01*
X129895238Y-84607200D02*
X129942857Y-84559580D01*
X129942857Y-84559580D02*
X130038095Y-84416723D01*
X130038095Y-84416723D02*
X130085714Y-84226247D01*
X130085714Y-84226247D02*
X130085714Y-83845295D01*
X130085714Y-83845295D02*
X130038095Y-83750057D01*
X130038095Y-83750057D02*
X129990476Y-83702438D01*
X129990476Y-83702438D02*
X129895238Y-83654819D01*
X129895238Y-83654819D02*
X129704762Y-83654819D01*
X129704762Y-83654819D02*
X129609524Y-83702438D01*
X129609524Y-83702438D02*
X129561905Y-83750057D01*
X129561905Y-83750057D02*
X129514286Y-83845295D01*
X129514286Y-83845295D02*
X129514286Y-84083390D01*
X129514286Y-84083390D02*
X129561905Y-84178628D01*
X129561905Y-84178628D02*
X129609524Y-84226247D01*
X129609524Y-84226247D02*
X129704762Y-84273866D01*
X129704762Y-84273866D02*
X129895238Y-84273866D01*
X129895238Y-84273866D02*
X129990476Y-84226247D01*
X129990476Y-84226247D02*
X130038095Y-84178628D01*
X130038095Y-84178628D02*
X130085714Y-84083390D01*
X119395833Y-83554819D02*
X119062500Y-83078628D01*
X118824405Y-83554819D02*
X118824405Y-82554819D01*
X118824405Y-82554819D02*
X119205357Y-82554819D01*
X119205357Y-82554819D02*
X119300595Y-82602438D01*
X119300595Y-82602438D02*
X119348214Y-82650057D01*
X119348214Y-82650057D02*
X119395833Y-82745295D01*
X119395833Y-82745295D02*
X119395833Y-82888152D01*
X119395833Y-82888152D02*
X119348214Y-82983390D01*
X119348214Y-82983390D02*
X119300595Y-83031009D01*
X119300595Y-83031009D02*
X119205357Y-83078628D01*
X119205357Y-83078628D02*
X118824405Y-83078628D01*
X119729167Y-82554819D02*
X120348214Y-82554819D01*
X120348214Y-82554819D02*
X120014881Y-82935771D01*
X120014881Y-82935771D02*
X120157738Y-82935771D01*
X120157738Y-82935771D02*
X120252976Y-82983390D01*
X120252976Y-82983390D02*
X120300595Y-83031009D01*
X120300595Y-83031009D02*
X120348214Y-83126247D01*
X120348214Y-83126247D02*
X120348214Y-83364342D01*
X120348214Y-83364342D02*
X120300595Y-83459580D01*
X120300595Y-83459580D02*
X120252976Y-83507200D01*
X120252976Y-83507200D02*
X120157738Y-83554819D01*
X120157738Y-83554819D02*
X119872024Y-83554819D01*
X119872024Y-83554819D02*
X119776786Y-83507200D01*
X119776786Y-83507200D02*
X119729167Y-83459580D01*
X141366666Y-106254819D02*
X141366666Y-106969104D01*
X141366666Y-106969104D02*
X141319047Y-107111961D01*
X141319047Y-107111961D02*
X141223809Y-107207200D01*
X141223809Y-107207200D02*
X141080952Y-107254819D01*
X141080952Y-107254819D02*
X140985714Y-107254819D01*
X141747619Y-106254819D02*
X142366666Y-106254819D01*
X142366666Y-106254819D02*
X142033333Y-106635771D01*
X142033333Y-106635771D02*
X142176190Y-106635771D01*
X142176190Y-106635771D02*
X142271428Y-106683390D01*
X142271428Y-106683390D02*
X142319047Y-106731009D01*
X142319047Y-106731009D02*
X142366666Y-106826247D01*
X142366666Y-106826247D02*
X142366666Y-107064342D01*
X142366666Y-107064342D02*
X142319047Y-107159580D01*
X142319047Y-107159580D02*
X142271428Y-107207200D01*
X142271428Y-107207200D02*
X142176190Y-107254819D01*
X142176190Y-107254819D02*
X141890476Y-107254819D01*
X141890476Y-107254819D02*
X141795238Y-107207200D01*
X141795238Y-107207200D02*
X141747619Y-107159580D01*
X127661905Y-88354819D02*
X127661905Y-87354819D01*
X127661905Y-87354819D02*
X127900000Y-87354819D01*
X127900000Y-87354819D02*
X128042857Y-87402438D01*
X128042857Y-87402438D02*
X128138095Y-87497676D01*
X128138095Y-87497676D02*
X128185714Y-87592914D01*
X128185714Y-87592914D02*
X128233333Y-87783390D01*
X128233333Y-87783390D02*
X128233333Y-87926247D01*
X128233333Y-87926247D02*
X128185714Y-88116723D01*
X128185714Y-88116723D02*
X128138095Y-88211961D01*
X128138095Y-88211961D02*
X128042857Y-88307200D01*
X128042857Y-88307200D02*
X127900000Y-88354819D01*
X127900000Y-88354819D02*
X127661905Y-88354819D01*
X128614286Y-87450057D02*
X128661905Y-87402438D01*
X128661905Y-87402438D02*
X128757143Y-87354819D01*
X128757143Y-87354819D02*
X128995238Y-87354819D01*
X128995238Y-87354819D02*
X129090476Y-87402438D01*
X129090476Y-87402438D02*
X129138095Y-87450057D01*
X129138095Y-87450057D02*
X129185714Y-87545295D01*
X129185714Y-87545295D02*
X129185714Y-87640533D01*
X129185714Y-87640533D02*
X129138095Y-87783390D01*
X129138095Y-87783390D02*
X128566667Y-88354819D01*
X128566667Y-88354819D02*
X129185714Y-88354819D01*
X118057142Y-88324819D02*
X117723809Y-87848628D01*
X117485714Y-88324819D02*
X117485714Y-87324819D01*
X117485714Y-87324819D02*
X117866666Y-87324819D01*
X117866666Y-87324819D02*
X117961904Y-87372438D01*
X117961904Y-87372438D02*
X118009523Y-87420057D01*
X118009523Y-87420057D02*
X118057142Y-87515295D01*
X118057142Y-87515295D02*
X118057142Y-87658152D01*
X118057142Y-87658152D02*
X118009523Y-87753390D01*
X118009523Y-87753390D02*
X117961904Y-87801009D01*
X117961904Y-87801009D02*
X117866666Y-87848628D01*
X117866666Y-87848628D02*
X117485714Y-87848628D01*
X119009523Y-88324819D02*
X118438095Y-88324819D01*
X118723809Y-88324819D02*
X118723809Y-87324819D01*
X118723809Y-87324819D02*
X118628571Y-87467676D01*
X118628571Y-87467676D02*
X118533333Y-87562914D01*
X118533333Y-87562914D02*
X118438095Y-87610533D01*
X119580952Y-87753390D02*
X119485714Y-87705771D01*
X119485714Y-87705771D02*
X119438095Y-87658152D01*
X119438095Y-87658152D02*
X119390476Y-87562914D01*
X119390476Y-87562914D02*
X119390476Y-87515295D01*
X119390476Y-87515295D02*
X119438095Y-87420057D01*
X119438095Y-87420057D02*
X119485714Y-87372438D01*
X119485714Y-87372438D02*
X119580952Y-87324819D01*
X119580952Y-87324819D02*
X119771428Y-87324819D01*
X119771428Y-87324819D02*
X119866666Y-87372438D01*
X119866666Y-87372438D02*
X119914285Y-87420057D01*
X119914285Y-87420057D02*
X119961904Y-87515295D01*
X119961904Y-87515295D02*
X119961904Y-87562914D01*
X119961904Y-87562914D02*
X119914285Y-87658152D01*
X119914285Y-87658152D02*
X119866666Y-87705771D01*
X119866666Y-87705771D02*
X119771428Y-87753390D01*
X119771428Y-87753390D02*
X119580952Y-87753390D01*
X119580952Y-87753390D02*
X119485714Y-87801009D01*
X119485714Y-87801009D02*
X119438095Y-87848628D01*
X119438095Y-87848628D02*
X119390476Y-87943866D01*
X119390476Y-87943866D02*
X119390476Y-88134342D01*
X119390476Y-88134342D02*
X119438095Y-88229580D01*
X119438095Y-88229580D02*
X119485714Y-88277200D01*
X119485714Y-88277200D02*
X119580952Y-88324819D01*
X119580952Y-88324819D02*
X119771428Y-88324819D01*
X119771428Y-88324819D02*
X119866666Y-88277200D01*
X119866666Y-88277200D02*
X119914285Y-88229580D01*
X119914285Y-88229580D02*
X119961904Y-88134342D01*
X119961904Y-88134342D02*
X119961904Y-87943866D01*
X119961904Y-87943866D02*
X119914285Y-87848628D01*
X119914285Y-87848628D02*
X119866666Y-87801009D01*
X119866666Y-87801009D02*
X119771428Y-87753390D01*
X131457142Y-63154819D02*
X131123809Y-62678628D01*
X130885714Y-63154819D02*
X130885714Y-62154819D01*
X130885714Y-62154819D02*
X131266666Y-62154819D01*
X131266666Y-62154819D02*
X131361904Y-62202438D01*
X131361904Y-62202438D02*
X131409523Y-62250057D01*
X131409523Y-62250057D02*
X131457142Y-62345295D01*
X131457142Y-62345295D02*
X131457142Y-62488152D01*
X131457142Y-62488152D02*
X131409523Y-62583390D01*
X131409523Y-62583390D02*
X131361904Y-62631009D01*
X131361904Y-62631009D02*
X131266666Y-62678628D01*
X131266666Y-62678628D02*
X130885714Y-62678628D01*
X132409523Y-63154819D02*
X131838095Y-63154819D01*
X132123809Y-63154819D02*
X132123809Y-62154819D01*
X132123809Y-62154819D02*
X132028571Y-62297676D01*
X132028571Y-62297676D02*
X131933333Y-62392914D01*
X131933333Y-62392914D02*
X131838095Y-62440533D01*
X132790476Y-62250057D02*
X132838095Y-62202438D01*
X132838095Y-62202438D02*
X132933333Y-62154819D01*
X132933333Y-62154819D02*
X133171428Y-62154819D01*
X133171428Y-62154819D02*
X133266666Y-62202438D01*
X133266666Y-62202438D02*
X133314285Y-62250057D01*
X133314285Y-62250057D02*
X133361904Y-62345295D01*
X133361904Y-62345295D02*
X133361904Y-62440533D01*
X133361904Y-62440533D02*
X133314285Y-62583390D01*
X133314285Y-62583390D02*
X132742857Y-63154819D01*
X132742857Y-63154819D02*
X133361904Y-63154819D01*
X147250057Y-70095238D02*
X147202438Y-70190476D01*
X147202438Y-70190476D02*
X147107200Y-70285714D01*
X147107200Y-70285714D02*
X146964342Y-70428571D01*
X146964342Y-70428571D02*
X146916723Y-70523809D01*
X146916723Y-70523809D02*
X146916723Y-70619047D01*
X147154819Y-70571428D02*
X147107200Y-70666666D01*
X147107200Y-70666666D02*
X147011961Y-70761904D01*
X147011961Y-70761904D02*
X146821485Y-70809523D01*
X146821485Y-70809523D02*
X146488152Y-70809523D01*
X146488152Y-70809523D02*
X146297676Y-70761904D01*
X146297676Y-70761904D02*
X146202438Y-70666666D01*
X146202438Y-70666666D02*
X146154819Y-70571428D01*
X146154819Y-70571428D02*
X146154819Y-70380952D01*
X146154819Y-70380952D02*
X146202438Y-70285714D01*
X146202438Y-70285714D02*
X146297676Y-70190476D01*
X146297676Y-70190476D02*
X146488152Y-70142857D01*
X146488152Y-70142857D02*
X146821485Y-70142857D01*
X146821485Y-70142857D02*
X147011961Y-70190476D01*
X147011961Y-70190476D02*
X147107200Y-70285714D01*
X147107200Y-70285714D02*
X147154819Y-70380952D01*
X147154819Y-70380952D02*
X147154819Y-70571428D01*
X146154819Y-69809523D02*
X146154819Y-69142857D01*
X146154819Y-69142857D02*
X147154819Y-69571428D01*
D12*
%TO.C,R15*%
X144927064Y-65410000D02*
X143472936Y-65410000D01*
X144927064Y-63590000D02*
X143472936Y-63590000D01*
%TO.C,R16*%
X144927064Y-62710000D02*
X143472936Y-62710000D01*
X144927064Y-60890000D02*
X143472936Y-60890000D01*
%TO.C,Q6*%
X134390000Y-63330000D02*
X134060000Y-63570000D01*
X134060000Y-63090000D01*
X134390000Y-63330000D01*
G36*
X134390000Y-63330000D02*
G01*
X134060000Y-63570000D01*
X134060000Y-63090000D01*
X134390000Y-63330000D01*
G37*
X141110000Y-62050000D02*
X141110000Y-58290000D01*
X141110000Y-58290000D02*
X139850000Y-58290000D01*
X134290000Y-62050000D02*
X134290000Y-58290000D01*
X134290000Y-58290000D02*
X135550000Y-58290000D01*
%TO.C,C6*%
X94813748Y-63690000D02*
X96236252Y-63690000D01*
X94813748Y-65510000D02*
X96236252Y-65510000D01*
%TO.C,U1*%
X115300000Y-96945000D02*
X89900000Y-96945000D01*
X115300000Y-58025000D02*
X115300000Y-96945000D01*
X89900000Y-96945000D02*
X89900000Y-58025000D01*
X89900000Y-58025000D02*
X115300000Y-58025000D01*
%TO.C,C2*%
X111390000Y-102011252D02*
X111390000Y-100588748D01*
X113210000Y-102011252D02*
X113210000Y-100588748D01*
%TO.C,R2*%
X111127064Y-89390000D02*
X109672936Y-89390000D01*
X111127064Y-91210000D02*
X109672936Y-91210000D01*
D13*
%TO.C,PS1*%
X102580000Y-105350000D02*
X121080000Y-105350000D01*
X102580000Y-112550000D02*
X102580000Y-105350000D01*
D14*
X105280000Y-104800000D02*
X105280000Y-104800000D01*
X105480000Y-104800000D02*
X105480000Y-104800000D01*
D13*
X121080000Y-105350000D02*
X121080000Y-112550000D01*
X121080000Y-112550000D02*
X102580000Y-112550000D01*
D14*
X105280000Y-104800000D02*
G75*
G02*
X105480000Y-104800000I100000J0D01*
G01*
X105480000Y-104800000D02*
G75*
G02*
X105280000Y-104800000I-100000J0D01*
G01*
D12*
%TO.C,Q4*%
X126590000Y-65790000D02*
X127850000Y-65790000D01*
X126590000Y-69550000D02*
X126590000Y-65790000D01*
X133410000Y-65790000D02*
X132150000Y-65790000D01*
X133410000Y-69550000D02*
X133410000Y-65790000D01*
X126690000Y-70830000D02*
X126360000Y-71070000D01*
X126360000Y-70590000D01*
X126690000Y-70830000D01*
G36*
X126690000Y-70830000D02*
G01*
X126360000Y-71070000D01*
X126360000Y-70590000D01*
X126690000Y-70830000D01*
G37*
%TO.C,R8*%
X126572936Y-80090000D02*
X128027064Y-80090000D01*
X126572936Y-81910000D02*
X128027064Y-81910000D01*
%TO.C,D1*%
X122612500Y-86235000D02*
X126672500Y-86235000D01*
X126672500Y-86235000D02*
X126672500Y-83965000D01*
X126672500Y-83965000D02*
X122612500Y-83965000D01*
%TO.C,C3*%
X114440000Y-97740000D02*
X116140000Y-97740000D01*
X114440000Y-102195563D02*
X114440000Y-97740000D01*
X115202500Y-103812500D02*
X115827500Y-103812500D01*
X115504437Y-103260000D02*
X114440000Y-102195563D01*
X115504437Y-103260000D02*
X116140000Y-103260000D01*
X115515000Y-104125000D02*
X115515000Y-103500000D01*
X118895563Y-103260000D02*
X118260000Y-103260000D01*
X118895563Y-103260000D02*
X119960000Y-102195563D01*
X119960000Y-97740000D02*
X118260000Y-97740000D01*
X119960000Y-102195563D02*
X119960000Y-97740000D01*
%TO.C,R13*%
X136972936Y-72090000D02*
X138427064Y-72090000D01*
X136972936Y-73910000D02*
X138427064Y-73910000D01*
%TO.C,J4*%
X90190000Y-98890000D02*
X93000000Y-98890000D01*
X90190000Y-104950000D02*
X90190000Y-98890000D01*
X90190000Y-112110000D02*
X90190000Y-109050000D01*
X94300000Y-98700000D02*
X96300000Y-98700000D01*
X97600000Y-98890000D02*
X100410000Y-98890000D01*
X100410000Y-98890000D02*
X100410000Y-104950000D01*
X100410000Y-109050000D02*
X100410000Y-112110000D01*
X100410000Y-112110000D02*
X90190000Y-112110000D01*
%TO.C,J1*%
X119580000Y-52780000D02*
X128540000Y-52780000D01*
X119580000Y-59520000D02*
X119580000Y-52780000D01*
X129140000Y-52780000D02*
X130480000Y-52780000D01*
X130480000Y-52780000D02*
X130480000Y-59520000D01*
X130480000Y-53700000D02*
X119580000Y-53700000D01*
X130480000Y-54700000D02*
X119580000Y-54700000D01*
X130480000Y-57800000D02*
X119580000Y-57800000D01*
X130480000Y-59520000D02*
X119580000Y-59520000D01*
X128840000Y-52780000D02*
X128400000Y-52170000D01*
X129280000Y-52170000D01*
X128840000Y-52780000D01*
G36*
X128840000Y-52780000D02*
G01*
X128400000Y-52170000D01*
X129280000Y-52170000D01*
X128840000Y-52780000D01*
G37*
%TO.C,D5*%
X105750000Y-104010000D02*
X105750000Y-98500000D01*
X105750000Y-104010000D02*
X109050000Y-104010000D01*
X109050000Y-104010000D02*
X109050000Y-98500000D01*
%TO.C,C4*%
X94488748Y-91790000D02*
X95911252Y-91790000D01*
X94488748Y-93610000D02*
X95911252Y-93610000D01*
%TO.C,R19*%
X116790000Y-94527064D02*
X116790000Y-93072936D01*
X118610000Y-94527064D02*
X118610000Y-93072936D01*
%TO.C,R1*%
X110927064Y-84190000D02*
X109472936Y-84190000D01*
X110927064Y-86010000D02*
X109472936Y-86010000D01*
%TO.C,Q3*%
X126340000Y-74100000D02*
X126340000Y-73450000D01*
X126340000Y-74100000D02*
X126340000Y-74750000D01*
X129460000Y-74100000D02*
X129460000Y-73450000D01*
X129460000Y-74100000D02*
X129460000Y-74750000D01*
X126390000Y-75262500D02*
X126060000Y-75502500D01*
X126060000Y-75022500D01*
X126390000Y-75262500D01*
G36*
X126390000Y-75262500D02*
G01*
X126060000Y-75502500D01*
X126060000Y-75022500D01*
X126390000Y-75262500D01*
G37*
%TO.C,D3*%
X140890000Y-73400000D02*
X140890000Y-75400000D01*
X140890000Y-73400000D02*
X144750000Y-73400000D01*
X140890000Y-75400000D02*
X144750000Y-75400000D01*
%TO.C,Q1*%
X117990000Y-65790000D02*
X119250000Y-65790000D01*
X117990000Y-69550000D02*
X117990000Y-65790000D01*
X124810000Y-65790000D02*
X123550000Y-65790000D01*
X124810000Y-69550000D02*
X124810000Y-65790000D01*
X118090000Y-70830000D02*
X117760000Y-71070000D01*
X117760000Y-70590000D01*
X118090000Y-70830000D01*
G36*
X118090000Y-70830000D02*
G01*
X117760000Y-71070000D01*
X117760000Y-70590000D01*
X118090000Y-70830000D01*
G37*
%TO.C,Q2*%
X117190000Y-74262500D02*
X117190000Y-73612500D01*
X117190000Y-74262500D02*
X117190000Y-74912500D01*
X120310000Y-74262500D02*
X120310000Y-73612500D01*
X120310000Y-74262500D02*
X120310000Y-74912500D01*
X117240000Y-75425000D02*
X116910000Y-75665000D01*
X116910000Y-75185000D01*
X117240000Y-75425000D01*
G36*
X117240000Y-75425000D02*
G01*
X116910000Y-75665000D01*
X116910000Y-75185000D01*
X117240000Y-75425000D01*
G37*
%TO.C,R17*%
X146110000Y-55827064D02*
X146110000Y-54372936D01*
X144290000Y-55827064D02*
X144290000Y-54372936D01*
%TO.C,R5*%
X123527064Y-75090000D02*
X122072936Y-75090000D01*
X123527064Y-76910000D02*
X122072936Y-76910000D01*
%TO.C,Q5*%
X135840000Y-66750000D02*
X135840000Y-66100000D01*
X135840000Y-66750000D02*
X135840000Y-67400000D01*
X138960000Y-66750000D02*
X138960000Y-66100000D01*
X138960000Y-66750000D02*
X138960000Y-67400000D01*
X135890000Y-67912500D02*
X135560000Y-68152500D01*
X135560000Y-67672500D01*
X135890000Y-67912500D01*
G36*
X135890000Y-67912500D02*
G01*
X135560000Y-68152500D01*
X135560000Y-67672500D01*
X135890000Y-67912500D01*
G37*
%TO.C,R14*%
X138427064Y-69140000D02*
X136972936Y-69140000D01*
X138427064Y-70960000D02*
X136972936Y-70960000D01*
%TO.C,R6*%
X123489564Y-72590000D02*
X122035436Y-72590000D01*
X123489564Y-74410000D02*
X122035436Y-74410000D01*
%TO.C,R7*%
X122127064Y-60890000D02*
X120672936Y-60890000D01*
X122127064Y-62710000D02*
X120672936Y-62710000D01*
%TO.C,C1*%
X102490000Y-100188748D02*
X102490000Y-101611252D01*
X104310000Y-100188748D02*
X104310000Y-101611252D01*
%TO.C,R10*%
X132827064Y-75390000D02*
X131372936Y-75390000D01*
X132827064Y-77210000D02*
X131372936Y-77210000D01*
%TO.C,K1*%
X135372500Y-75922500D02*
X137562500Y-75922500D01*
X135372500Y-78262500D02*
X135372500Y-75922500D01*
X135612500Y-76162500D02*
X135612500Y-105162500D01*
X135612500Y-105162500D02*
X148312500Y-105162500D01*
X141612500Y-77962500D02*
X141612500Y-79162500D01*
X141612500Y-78762500D02*
X142312500Y-78362500D01*
X141612500Y-79162500D02*
X142312500Y-79162500D01*
X142312500Y-77962500D02*
X141612500Y-77962500D01*
X142312500Y-79162500D02*
X142312500Y-77962500D01*
X148312500Y-76162500D02*
X135612500Y-76162500D01*
X148312500Y-105162500D02*
X148312500Y-76162500D01*
%TO.C,R11*%
X132827064Y-72790000D02*
X131372936Y-72790000D01*
X132827064Y-74610000D02*
X131372936Y-74610000D01*
%TO.C,C5*%
X94788748Y-60690000D02*
X96211252Y-60690000D01*
X94788748Y-62510000D02*
X96211252Y-62510000D01*
%TO.C,R4*%
X120289564Y-77690000D02*
X118835436Y-77690000D01*
X120289564Y-79510000D02*
X118835436Y-79510000D01*
%TO.C,R9*%
X128027064Y-77490000D02*
X126572936Y-77490000D01*
X128027064Y-79310000D02*
X126572936Y-79310000D01*
%TO.C,R3*%
X118835436Y-80190000D02*
X120289564Y-80190000D01*
X118835436Y-82010000D02*
X120289564Y-82010000D01*
%TO.C,D2*%
X122600000Y-89035000D02*
X126660000Y-89035000D01*
X126660000Y-89035000D02*
X126660000Y-86765000D01*
X126660000Y-86765000D02*
X122600000Y-86765000D01*
%TO.C,R18*%
X117972936Y-88790000D02*
X119427064Y-88790000D01*
X117972936Y-90610000D02*
X119427064Y-90610000D01*
%TO.C,R12*%
X128827064Y-60790000D02*
X127372936Y-60790000D01*
X128827064Y-62610000D02*
X127372936Y-62610000D01*
%TO.C,Q7*%
X145810000Y-70737500D02*
X145810000Y-70087500D01*
X145810000Y-70737500D02*
X145810000Y-71387500D01*
X142690000Y-70737500D02*
X142690000Y-70087500D01*
X142690000Y-70737500D02*
X142690000Y-71387500D01*
X146090000Y-69815000D02*
X145760000Y-69575000D01*
X146090000Y-69335000D01*
X146090000Y-69815000D01*
G36*
X146090000Y-69815000D02*
G01*
X145760000Y-69575000D01*
X146090000Y-69335000D01*
X146090000Y-69815000D01*
G37*
%TD*%
M02*
