%TF.GenerationSoftware,KiCad,Pcbnew,9.0.3*%
%TF.CreationDate,2026-09-07T16:07:35+02:00*%
%TF.ProjectId,Bluetooth_Module,426c7565-746f-46f7-9468-5f4d6f64756c,rev?*%
%TF.SameCoordinates,Original*%
%TF.FileFunction,Soldermask,Bot*%
%TF.FilePolarity,Negative*%
%FSLAX46Y46*%
G04 Gerber Fmt 4.6, Leading zero omitted, Abs format (unit mm)*
G04 Created by KiCad (PCBNEW 9.0.3) date 2026-09-07 16:07:35*
%MOMM*%
%LPD*%
G01*
G04 APERTURE LIST*
G04 Aperture macros list*
%AMRoundRect*
0 Rectangle with rounded corners*
0 $1 Rounding radius*
0 $2 $3 $4 $5 $6 $7 $8 $9 X,Y pos of 4 corners*
0 Add a 4 corners polygon primitive as box body*
4,1,4,$2,$3,$4,$5,$6,$7,$8,$9,$2,$3,0*
0 Add four circle primitives for the rounded corners*
1,1,$1+$1,$2,$3*
1,1,$1+$1,$4,$5*
1,1,$1+$1,$6,$7*
1,1,$1+$1,$8,$9*
0 Add four rect primitives between the rounded corners*
20,1,$1+$1,$2,$3,$4,$5,0*
20,1,$1+$1,$4,$5,$6,$7,0*
20,1,$1+$1,$6,$7,$8,$9,0*
20,1,$1+$1,$8,$9,$2,$3,0*%
G04 Aperture macros list end*
%ADD10C,1.500000*%
%ADD11R,1.500000X1.500000*%
%ADD12C,3.500000*%
%ADD13C,1.303000*%
%ADD14C,1.600000*%
%ADD15R,4.000000X2.000000*%
%ADD16O,3.300000X2.000000*%
%ADD17O,2.000000X3.500000*%
%ADD18RoundRect,0.250000X0.750000X0.750000X-0.750000X0.750000X-0.750000X-0.750000X0.750000X-0.750000X0*%
%ADD19C,2.000000*%
%ADD20C,0.800000*%
%ADD21C,6.000000*%
%ADD22R,2.000000X2.000000*%
G04 APERTURE END LIST*
D10*
%TO.C,U1*%
X114030000Y-59705000D03*
X114030000Y-62245000D03*
X114030000Y-64785000D03*
X114030000Y-67325000D03*
X114030000Y-69865000D03*
X114030000Y-72405000D03*
X114030000Y-74945000D03*
X114030000Y-77485000D03*
X114030000Y-80025000D03*
X114030000Y-82565000D03*
X114030000Y-85105000D03*
X114030000Y-87645000D03*
X114030000Y-90185000D03*
X114030000Y-92725000D03*
X114030000Y-95265000D03*
X91170000Y-95265000D03*
X91170000Y-92725000D03*
X91170000Y-90185000D03*
X91170000Y-87645000D03*
X91170000Y-85105000D03*
X91170000Y-82565000D03*
X91170000Y-80025000D03*
X91170000Y-77485000D03*
X91170000Y-74945000D03*
X91170000Y-72405000D03*
X91170000Y-69865000D03*
X91170000Y-67325000D03*
X91170000Y-64785000D03*
X91170000Y-62245000D03*
D11*
X91170000Y-59705000D03*
%TD*%
D12*
%TO.C,H1*%
X102600000Y-63000000D03*
%TD*%
D13*
%TO.C,PS1*%
X105480000Y-106900000D03*
X108020000Y-106900000D03*
X113100000Y-106900000D03*
X115640000Y-106900000D03*
X118180000Y-106900000D03*
%TD*%
D14*
%TO.C,J4*%
X95300000Y-109000000D03*
D15*
X95300000Y-100000000D03*
D16*
X95300000Y-106000000D03*
D17*
X90800000Y-107000000D03*
X99800000Y-107000000D03*
%TD*%
D18*
%TO.C,J1*%
X128840000Y-56300000D03*
D19*
X126300000Y-56300000D03*
X123760000Y-56300000D03*
X121220000Y-56300000D03*
%TD*%
D12*
%TO.C,H4*%
X137400000Y-109800000D03*
%TD*%
D20*
%TO.C,J2*%
X127650000Y-109350000D03*
X128309010Y-107759010D03*
X128309010Y-110940990D03*
X129900000Y-107100000D03*
D21*
X129900000Y-109350000D03*
D20*
X129900000Y-111600000D03*
X131490990Y-107759010D03*
X131490990Y-110940990D03*
X132150000Y-109350000D03*
%TD*%
D19*
%TO.C,K1*%
X145712500Y-98562500D03*
X138212500Y-102062500D03*
D22*
X138212500Y-78562500D03*
D19*
X145712500Y-78562500D03*
%TD*%
D20*
%TO.C,J3*%
X143250000Y-109500000D03*
X143909010Y-107909010D03*
X143909010Y-111090990D03*
X145500000Y-107250000D03*
D21*
X145500000Y-109500000D03*
D20*
X145500000Y-111750000D03*
X147090990Y-107909010D03*
X147090990Y-111090990D03*
X147750000Y-109500000D03*
%TD*%
M02*
