%TF.GenerationSoftware,KiCad,Pcbnew,9.0.3*%
%TF.CreationDate,2026-09-07T16:07:35+02:00*%
%TF.ProjectId,Bluetooth_Module,426c7565-746f-46f7-9468-5f4d6f64756c,rev?*%
%TF.SameCoordinates,Original*%
%TF.FileFunction,Copper,L2,Bot*%
%TF.FilePolarity,Positive*%
%FSLAX46Y46*%
G04 Gerber Fmt 4.6, Leading zero omitted, Abs format (unit mm)*
G04 Created by KiCad (PCBNEW 9.0.3) date 2026-09-07 16:07:35*
%MOMM*%
%LPD*%
G01*
G04 APERTURE LIST*
G04 Aperture macros list*
%AMRoundRect*
0 Rectangle with rounded corners*
0 $1 Rounding radius*
0 $2 $3 $4 $5 $6 $7 $8 $9 X,Y pos of 4 corners*
0 Add a 4 corners polygon primitive as box body*
4,1,4,$2,$3,$4,$5,$6,$7,$8,$9,$2,$3,0*
0 Add four circle primitives for the rounded corners*
1,1,$1+$1,$2,$3*
1,1,$1+$1,$4,$5*
1,1,$1+$1,$6,$7*
1,1,$1+$1,$8,$9*
0 Add four rect primitives between the rounded corners*
20,1,$1+$1,$2,$3,$4,$5,0*
20,1,$1+$1,$4,$5,$6,$7,0*
20,1,$1+$1,$6,$7,$8,$9,0*
20,1,$1+$1,$8,$9,$2,$3,0*%
G04 Aperture macros list end*
%TA.AperFunction,ComponentPad*%
%ADD10C,1.500000*%
%TD*%
%TA.AperFunction,ComponentPad*%
%ADD11R,1.500000X1.500000*%
%TD*%
%TA.AperFunction,ComponentPad*%
%ADD12C,1.303000*%
%TD*%
%TA.AperFunction,ComponentPad*%
%ADD13R,4.000000X2.000000*%
%TD*%
%TA.AperFunction,ComponentPad*%
%ADD14O,3.300000X2.000000*%
%TD*%
%TA.AperFunction,ComponentPad*%
%ADD15O,2.000000X3.500000*%
%TD*%
%TA.AperFunction,ComponentPad*%
%ADD16RoundRect,0.250000X0.750000X0.750000X-0.750000X0.750000X-0.750000X-0.750000X0.750000X-0.750000X0*%
%TD*%
%TA.AperFunction,ComponentPad*%
%ADD17C,2.000000*%
%TD*%
%TA.AperFunction,ComponentPad*%
%ADD18C,0.800000*%
%TD*%
%TA.AperFunction,ComponentPad*%
%ADD19C,6.000000*%
%TD*%
%TA.AperFunction,ComponentPad*%
%ADD20R,2.000000X2.000000*%
%TD*%
%TA.AperFunction,ViaPad*%
%ADD21C,0.600000*%
%TD*%
%TA.AperFunction,Conductor*%
%ADD22C,0.200000*%
%TD*%
G04 APERTURE END LIST*
D10*
%TO.P,U1,30,GND*%
%TO.N,GND*%
X114030000Y-59705000D03*
%TO.P,U1,29,TX*%
%TO.N,unconnected-(U1-TX-Pad29)*%
X114030000Y-62245000D03*
%TO.P,U1,28,RX*%
%TO.N,unconnected-(U1-RX-Pad28)*%
X114030000Y-64785000D03*
%TO.P,U1,27,GND*%
%TO.N,GND*%
X114030000Y-67325000D03*
%TO.P,U1,26,IO9*%
%TO.N,unconnected-(U1-IO9-Pad26)*%
X114030000Y-69865000D03*
%TO.P,U1,25,IO8*%
%TO.N,unconnected-(U1-IO8-Pad25)*%
X114030000Y-72405000D03*
%TO.P,U1,24,GND*%
%TO.N,GND*%
X114030000Y-74945000D03*
%TO.P,U1,23,IO7*%
%TO.N,LED_R*%
X114030000Y-77485000D03*
%TO.P,U1,22,IO6*%
%TO.N,LED_G*%
X114030000Y-80025000D03*
%TO.P,U1,21,IO5*%
%TO.N,LED_B*%
X114030000Y-82565000D03*
%TO.P,U1,20,IO4*%
%TO.N,Net-(U1-IO4)*%
X114030000Y-85105000D03*
%TO.P,U1,19,GND*%
%TO.N,GND*%
X114030000Y-87645000D03*
%TO.P,U1,18,IO18*%
%TO.N,Net-(U1-IO18)*%
X114030000Y-90185000D03*
%TO.P,U1,17,IO19*%
%TO.N,RELAY*%
X114030000Y-92725000D03*
%TO.P,U1,16,GND*%
%TO.N,GND*%
X114030000Y-95265000D03*
%TO.P,U1,15,GND*%
X91170000Y-95265000D03*
%TO.P,U1,14,5V*%
%TO.N,+5V*%
X91170000Y-92725000D03*
%TO.P,U1,13,5V*%
X91170000Y-90185000D03*
%TO.P,U1,12,GND*%
%TO.N,GND*%
X91170000Y-87645000D03*
%TO.P,U1,11,IO10*%
%TO.N,unconnected-(U1-IO10-Pad11)*%
X91170000Y-85105000D03*
%TO.P,U1,10,IO1*%
%TO.N,unconnected-(U1-IO1-Pad10)*%
X91170000Y-82565000D03*
%TO.P,U1,9,IO0*%
%TO.N,unconnected-(U1-IO0-Pad9)*%
X91170000Y-80025000D03*
%TO.P,U1,8,GND*%
%TO.N,GND*%
X91170000Y-77485000D03*
%TO.P,U1,7,RST*%
%TO.N,unconnected-(U1-RST-Pad7)*%
X91170000Y-74945000D03*
%TO.P,U1,6,GND*%
%TO.N,GND*%
X91170000Y-72405000D03*
%TO.P,U1,5,IO3*%
%TO.N,unconnected-(U1-IO3-Pad5)*%
X91170000Y-69865000D03*
%TO.P,U1,4,IO2*%
%TO.N,unconnected-(U1-IO2-Pad4)*%
X91170000Y-67325000D03*
%TO.P,U1,3,3V3*%
%TO.N,+3V3*%
X91170000Y-64785000D03*
%TO.P,U1,2,3V3*%
X91170000Y-62245000D03*
D11*
%TO.P,U1,1,GND*%
%TO.N,GND*%
X91170000Y-59705000D03*
%TD*%
D12*
%TO.P,PS1,1,+VIN*%
%TO.N,+12V*%
X105480000Y-106900000D03*
%TO.P,PS1,2,-VIN*%
%TO.N,GND*%
X108020000Y-106900000D03*
%TO.P,PS1,4,-VOUT*%
X113100000Y-106900000D03*
%TO.P,PS1,5,COMMON*%
%TO.N,unconnected-(PS1-COMMON-Pad5)*%
X115640000Y-106900000D03*
%TO.P,PS1,6,+VOUT*%
%TO.N,+5V*%
X118180000Y-106900000D03*
%TD*%
D13*
%TO.P,J4,1*%
%TO.N,+12V*%
X95300000Y-100000000D03*
D14*
%TO.P,J4,2*%
%TO.N,GND*%
X95300000Y-106000000D03*
D15*
%TO.P,J4,MP*%
%TO.N,N/C*%
X90800000Y-107000000D03*
X99800000Y-107000000D03*
%TD*%
D16*
%TO.P,J1,1,Pin_1*%
%TO.N,LED_B_OUT*%
X128840000Y-56300000D03*
D17*
%TO.P,J1,2,Pin_2*%
%TO.N,LED_G_OUT*%
X126300000Y-56300000D03*
%TO.P,J1,3,Pin_3*%
%TO.N,LED_R_OUT*%
X123760000Y-56300000D03*
%TO.P,J1,4,Pin_4*%
%TO.N,+12V*%
X121220000Y-56300000D03*
%TD*%
D18*
%TO.P,J2,1,Pin_1*%
%TO.N,Net-(J2-Pin_1)*%
X127650000Y-109350000D03*
X128309010Y-107759010D03*
X128309010Y-110940990D03*
X129900000Y-107100000D03*
D19*
X129900000Y-109350000D03*
D18*
X129900000Y-111600000D03*
X131490990Y-107759010D03*
X131490990Y-110940990D03*
X132150000Y-109350000D03*
%TD*%
D17*
%TO.P,K1,13*%
%TO.N,Net-(J3-Pin_1)*%
X145712500Y-98562500D03*
%TO.P,K1,14*%
%TO.N,Net-(J2-Pin_1)*%
X138212500Y-102062500D03*
D20*
%TO.P,K1,A1*%
%TO.N,+12V*%
X138212500Y-78562500D03*
D17*
%TO.P,K1,A2*%
%TO.N,Net-(D3-A)*%
X145712500Y-78562500D03*
%TD*%
D18*
%TO.P,J3,1,Pin_1*%
%TO.N,Net-(J3-Pin_1)*%
X143250000Y-109500000D03*
X143909010Y-107909010D03*
X143909010Y-111090990D03*
X145500000Y-107250000D03*
D19*
X145500000Y-109500000D03*
D18*
X145500000Y-111750000D03*
X147090990Y-107909010D03*
X147090990Y-111090990D03*
X147750000Y-109500000D03*
%TD*%
D21*
%TO.N,GND*%
X138900000Y-74900000D03*
X147000000Y-72300000D03*
X141600000Y-73100000D03*
X148600000Y-81200000D03*
X137600000Y-91100000D03*
X141800000Y-68500000D03*
X137300000Y-74700000D03*
X132200000Y-73800000D03*
X137900000Y-72700000D03*
X116900000Y-78600000D03*
X116200000Y-81800000D03*
X115300000Y-80500000D03*
X127400000Y-78700000D03*
X119600000Y-81900000D03*
X121500000Y-85800000D03*
X116900000Y-84500000D03*
X121300000Y-84500000D03*
X115200000Y-101600000D03*
X119300000Y-97100000D03*
X139600000Y-80100000D03*
X148600000Y-91300000D03*
X127200000Y-88700000D03*
X135000000Y-87900000D03*
X136000000Y-81000000D03*
X102600000Y-112100000D03*
X97200000Y-96400000D03*
X110600000Y-97800000D03*
X90800000Y-98000000D03*
X120400000Y-111600000D03*
X90200000Y-112200000D03*
X117900000Y-53100000D03*
X90500000Y-53100000D03*
X121200000Y-63000000D03*
X137300000Y-68300000D03*
X139000000Y-71500000D03*
X139400000Y-68400000D03*
X136500000Y-66100000D03*
X115500000Y-85500000D03*
X146000000Y-80200000D03*
X141800000Y-78400000D03*
X122300000Y-80900000D03*
X123400000Y-79600000D03*
X141300000Y-66900000D03*
X139700000Y-77100000D03*
X140500000Y-75900000D03*
X137900000Y-76800000D03*
X131600000Y-83100000D03*
X126400000Y-83200000D03*
X123000000Y-82400000D03*
X135600000Y-74700000D03*
X130100000Y-81600000D03*
X129300000Y-76800000D03*
X124600000Y-78500000D03*
X125200000Y-70300000D03*
X125100000Y-72000000D03*
X124500000Y-69100000D03*
X123100000Y-69000000D03*
X133800000Y-72300000D03*
X131400000Y-72300000D03*
X133100000Y-68800000D03*
X131800000Y-68800000D03*
X141100000Y-61200000D03*
X139800000Y-61300000D03*
X146700000Y-59200000D03*
X138800000Y-64700000D03*
X146900000Y-62000000D03*
X148500000Y-53300000D03*
X146800000Y-55700000D03*
X127500000Y-57700000D03*
X125000000Y-57300000D03*
X120600000Y-59700000D03*
X122500000Y-57300000D03*
X123300000Y-54800000D03*
%TO.N,+12V*%
X124800000Y-61000000D03*
X122600000Y-60200000D03*
%TD*%
D22*
%TO.N,+12V*%
X123400000Y-61000000D02*
X124800000Y-61000000D01*
X122600000Y-60200000D02*
X123400000Y-61000000D01*
%TD*%
%TA.AperFunction,Conductor*%
%TO.N,GND*%
G36*
X149042539Y-52520185D02*
G01*
X149088294Y-52572989D01*
X149099500Y-52624500D01*
X149099500Y-91476000D01*
X149079815Y-91543039D01*
X149027011Y-91588794D01*
X148975500Y-91600000D01*
X121100000Y-91600000D01*
X121001962Y-112776074D01*
X120981967Y-112843022D01*
X120928952Y-112888532D01*
X120877963Y-112899500D01*
X89724500Y-112899500D01*
X89657461Y-112879815D01*
X89611706Y-112827011D01*
X89600500Y-112775500D01*
X89600500Y-108523075D01*
X89620185Y-108456036D01*
X89672989Y-108410281D01*
X89742147Y-108400337D01*
X89805703Y-108429362D01*
X89824815Y-108450186D01*
X89884310Y-108532073D01*
X90017927Y-108665690D01*
X90170801Y-108776760D01*
X90242028Y-108813052D01*
X90339163Y-108862545D01*
X90339165Y-108862545D01*
X90339168Y-108862547D01*
X90435497Y-108893846D01*
X90518881Y-108920940D01*
X90705514Y-108950500D01*
X90705519Y-108950500D01*
X90894486Y-108950500D01*
X91081118Y-108920940D01*
X91104622Y-108913303D01*
X91156244Y-108896530D01*
X94249500Y-108896530D01*
X94249500Y-109103469D01*
X94289868Y-109306412D01*
X94289870Y-109306420D01*
X94369058Y-109497596D01*
X94484024Y-109669657D01*
X94630342Y-109815975D01*
X94630345Y-109815977D01*
X94802402Y-109930941D01*
X94993580Y-110010130D01*
X95196530Y-110050499D01*
X95196534Y-110050500D01*
X95196535Y-110050500D01*
X95403466Y-110050500D01*
X95403467Y-110050499D01*
X95606420Y-110010130D01*
X95797598Y-109930941D01*
X95969655Y-109815977D01*
X96115977Y-109669655D01*
X96230941Y-109497598D01*
X96310130Y-109306420D01*
X96350500Y-109103465D01*
X96350500Y-108896535D01*
X96310130Y-108693580D01*
X96230941Y-108502402D01*
X96115977Y-108330345D01*
X96115975Y-108330342D01*
X95969657Y-108184024D01*
X95878764Y-108123292D01*
X95797598Y-108069059D01*
X95606420Y-107989870D01*
X95606412Y-107989868D01*
X95403469Y-107949500D01*
X95403465Y-107949500D01*
X95196535Y-107949500D01*
X95196530Y-107949500D01*
X94993587Y-107989868D01*
X94993579Y-107989870D01*
X94802403Y-108069058D01*
X94630342Y-108184024D01*
X94484024Y-108330342D01*
X94369058Y-108502403D01*
X94289870Y-108693579D01*
X94289868Y-108693587D01*
X94249500Y-108896530D01*
X91156244Y-108896530D01*
X91260832Y-108862547D01*
X91429199Y-108776760D01*
X91582073Y-108665690D01*
X91715690Y-108532073D01*
X91826760Y-108379199D01*
X91912547Y-108210832D01*
X91970940Y-108031118D01*
X91983880Y-107949418D01*
X92000500Y-107844486D01*
X92000500Y-106155513D01*
X91970940Y-105968881D01*
X91956424Y-105924208D01*
X91912547Y-105789168D01*
X91892590Y-105750000D01*
X93474638Y-105750000D01*
X94216988Y-105750000D01*
X94184075Y-105807007D01*
X94150000Y-105934174D01*
X94150000Y-106065826D01*
X94184075Y-106192993D01*
X94216988Y-106250000D01*
X93474638Y-106250000D01*
X93479548Y-106281002D01*
X93537914Y-106460637D01*
X93623670Y-106628940D01*
X93734685Y-106781741D01*
X93734689Y-106781746D01*
X93868253Y-106915310D01*
X93868258Y-106915314D01*
X94021059Y-107026329D01*
X94189362Y-107112085D01*
X94368997Y-107170451D01*
X94555553Y-107200000D01*
X95050000Y-107200000D01*
X95050000Y-106500000D01*
X95550000Y-106500000D01*
X95550000Y-107200000D01*
X96044447Y-107200000D01*
X96231002Y-107170451D01*
X96410637Y-107112085D01*
X96578940Y-107026329D01*
X96731741Y-106915314D01*
X96731746Y-106915310D01*
X96865310Y-106781746D01*
X96865314Y-106781741D01*
X96976329Y-106628940D01*
X97062085Y-106460637D01*
X97120451Y-106281002D01*
X97125362Y-106250000D01*
X96383012Y-106250000D01*
X96415925Y-106192993D01*
X96425968Y-106155513D01*
X98599500Y-106155513D01*
X98599500Y-107844486D01*
X98629059Y-108031118D01*
X98687454Y-108210836D01*
X98773240Y-108379199D01*
X98884310Y-108532073D01*
X99017927Y-108665690D01*
X99170801Y-108776760D01*
X99242028Y-108813052D01*
X99339163Y-108862545D01*
X99339165Y-108862545D01*
X99339168Y-108862547D01*
X99435497Y-108893846D01*
X99518881Y-108920940D01*
X99705514Y-108950500D01*
X99705519Y-108950500D01*
X99894486Y-108950500D01*
X100081118Y-108920940D01*
X100104622Y-108913303D01*
X100260832Y-108862547D01*
X100429199Y-108776760D01*
X100582073Y-108665690D01*
X100715690Y-108532073D01*
X100826760Y-108379199D01*
X100912547Y-108210832D01*
X100970940Y-108031118D01*
X100983880Y-107949418D01*
X101000500Y-107844486D01*
X101000500Y-106816080D01*
X104628000Y-106816080D01*
X104628000Y-106983919D01*
X104660740Y-107148511D01*
X104660742Y-107148519D01*
X104724966Y-107303569D01*
X104724971Y-107303579D01*
X104818208Y-107443117D01*
X104818211Y-107443121D01*
X104936878Y-107561788D01*
X104936882Y-107561791D01*
X105076420Y-107655028D01*
X105076424Y-107655030D01*
X105076427Y-107655032D01*
X105231481Y-107719258D01*
X105393571Y-107751500D01*
X105396080Y-107751999D01*
X105396083Y-107752000D01*
X105396085Y-107752000D01*
X105563917Y-107752000D01*
X105563918Y-107751999D01*
X105728519Y-107719258D01*
X105883573Y-107655032D01*
X106023118Y-107561791D01*
X106023121Y-107561788D01*
X106058144Y-107526766D01*
X106141788Y-107443121D01*
X106141791Y-107443118D01*
X106235032Y-107303573D01*
X106299258Y-107148519D01*
X106332000Y-106983915D01*
X106332000Y-106983867D01*
X107168499Y-106983867D01*
X107201221Y-107148367D01*
X107201223Y-107148373D01*
X107264737Y-107301709D01*
X107640000Y-106926446D01*
X107640000Y-106950028D01*
X107665896Y-107046675D01*
X107715924Y-107133325D01*
X107786675Y-107204076D01*
X107873325Y-107254104D01*
X107969972Y-107280000D01*
X107993553Y-107280000D01*
X107618289Y-107655261D01*
X107771626Y-107718776D01*
X107771632Y-107718778D01*
X107936132Y-107751500D01*
X108103867Y-107751500D01*
X108268367Y-107718778D01*
X108268369Y-107718777D01*
X108421709Y-107655261D01*
X108046448Y-107280000D01*
X108070028Y-107280000D01*
X108166675Y-107254104D01*
X108253325Y-107204076D01*
X108324076Y-107133325D01*
X108374104Y-107046675D01*
X108400000Y-106950028D01*
X108400000Y-106926448D01*
X108775261Y-107301709D01*
X108838777Y-107148369D01*
X108838778Y-107148367D01*
X108871500Y-106983867D01*
X112248499Y-106983867D01*
X112281221Y-107148367D01*
X112281223Y-107148373D01*
X112344737Y-107301709D01*
X112720000Y-106926446D01*
X112720000Y-106950028D01*
X112745896Y-107046675D01*
X112795924Y-107133325D01*
X112866675Y-107204076D01*
X112953325Y-107254104D01*
X113049972Y-107280000D01*
X113073553Y-107280000D01*
X112698289Y-107655261D01*
X112851626Y-107718776D01*
X112851632Y-107718778D01*
X113016132Y-107751500D01*
X113183867Y-107751500D01*
X113348367Y-107718778D01*
X113348369Y-107718777D01*
X113501709Y-107655261D01*
X113126448Y-107280000D01*
X113150028Y-107280000D01*
X113246675Y-107254104D01*
X113333325Y-107204076D01*
X113404076Y-107133325D01*
X113454104Y-107046675D01*
X113480000Y-106950028D01*
X113480000Y-106926448D01*
X113855261Y-107301709D01*
X113918777Y-107148369D01*
X113918778Y-107148367D01*
X113951500Y-106983867D01*
X113951500Y-106816132D01*
X113951490Y-106816080D01*
X114788000Y-106816080D01*
X114788000Y-106983919D01*
X114820740Y-107148511D01*
X114820742Y-107148519D01*
X114884966Y-107303569D01*
X114884971Y-107303579D01*
X114978208Y-107443117D01*
X114978211Y-107443121D01*
X115096878Y-107561788D01*
X115096882Y-107561791D01*
X115236420Y-107655028D01*
X115236424Y-107655030D01*
X115236427Y-107655032D01*
X115391481Y-107719258D01*
X115553571Y-107751500D01*
X115556080Y-107751999D01*
X115556083Y-107752000D01*
X115556085Y-107752000D01*
X115723917Y-107752000D01*
X115723918Y-107751999D01*
X115888519Y-107719258D01*
X116043573Y-107655032D01*
X116183118Y-107561791D01*
X116301791Y-107443118D01*
X116395032Y-107303573D01*
X116459258Y-107148519D01*
X116492000Y-106983915D01*
X116492000Y-106816085D01*
X116492000Y-106816082D01*
X116491999Y-106816080D01*
X117328000Y-106816080D01*
X117328000Y-106983919D01*
X117360740Y-107148511D01*
X117360742Y-107148519D01*
X117424966Y-107303569D01*
X117424971Y-107303579D01*
X117518208Y-107443117D01*
X117518211Y-107443121D01*
X117636878Y-107561788D01*
X117636882Y-107561791D01*
X117776420Y-107655028D01*
X117776424Y-107655030D01*
X117776427Y-107655032D01*
X117931481Y-107719258D01*
X118093571Y-107751500D01*
X118096080Y-107751999D01*
X118096083Y-107752000D01*
X118096085Y-107752000D01*
X118263917Y-107752000D01*
X118263918Y-107751999D01*
X118428519Y-107719258D01*
X118583573Y-107655032D01*
X118723118Y-107561791D01*
X118841791Y-107443118D01*
X118935032Y-107303573D01*
X118999258Y-107148519D01*
X119032000Y-106983915D01*
X119032000Y-106816085D01*
X119032000Y-106816082D01*
X119031999Y-106816080D01*
X118999258Y-106651481D01*
X118935032Y-106496427D01*
X118935030Y-106496424D01*
X118935028Y-106496420D01*
X118841791Y-106356882D01*
X118841788Y-106356878D01*
X118723121Y-106238211D01*
X118723117Y-106238208D01*
X118583579Y-106144971D01*
X118583569Y-106144966D01*
X118428519Y-106080742D01*
X118428511Y-106080740D01*
X118263918Y-106048000D01*
X118263915Y-106048000D01*
X118096085Y-106048000D01*
X118096082Y-106048000D01*
X117931488Y-106080740D01*
X117931480Y-106080742D01*
X117776430Y-106144966D01*
X117776420Y-106144971D01*
X117636882Y-106238208D01*
X117636878Y-106238211D01*
X117518211Y-106356878D01*
X117518208Y-106356882D01*
X117424971Y-106496420D01*
X117424966Y-106496430D01*
X117360742Y-106651480D01*
X117360740Y-106651488D01*
X117328000Y-106816080D01*
X116491999Y-106816080D01*
X116459258Y-106651481D01*
X116395032Y-106496427D01*
X116395030Y-106496424D01*
X116395028Y-106496420D01*
X116301791Y-106356882D01*
X116301788Y-106356878D01*
X116183121Y-106238211D01*
X116183117Y-106238208D01*
X116043579Y-106144971D01*
X116043569Y-106144966D01*
X115888519Y-106080742D01*
X115888511Y-106080740D01*
X115723918Y-106048000D01*
X115723915Y-106048000D01*
X115556085Y-106048000D01*
X115556082Y-106048000D01*
X115391488Y-106080740D01*
X115391480Y-106080742D01*
X115236430Y-106144966D01*
X115236420Y-106144971D01*
X115096882Y-106238208D01*
X115096878Y-106238211D01*
X114978211Y-106356878D01*
X114978208Y-106356882D01*
X114884971Y-106496420D01*
X114884966Y-106496430D01*
X114820742Y-106651480D01*
X114820740Y-106651488D01*
X114788000Y-106816080D01*
X113951490Y-106816080D01*
X113918778Y-106651632D01*
X113918776Y-106651626D01*
X113855261Y-106498289D01*
X113480000Y-106873551D01*
X113480000Y-106849972D01*
X113454104Y-106753325D01*
X113404076Y-106666675D01*
X113333325Y-106595924D01*
X113246675Y-106545896D01*
X113150028Y-106520000D01*
X113126447Y-106520000D01*
X113501709Y-106144737D01*
X113348373Y-106081223D01*
X113348367Y-106081221D01*
X113183867Y-106048500D01*
X113016133Y-106048500D01*
X112851632Y-106081221D01*
X112851626Y-106081223D01*
X112698289Y-106144737D01*
X113073554Y-106520000D01*
X113049972Y-106520000D01*
X112953325Y-106545896D01*
X112866675Y-106595924D01*
X112795924Y-106666675D01*
X112745896Y-106753325D01*
X112720000Y-106849972D01*
X112720000Y-106873552D01*
X112344737Y-106498289D01*
X112281223Y-106651626D01*
X112281221Y-106651632D01*
X112248500Y-106816132D01*
X112248500Y-106983867D01*
X112248499Y-106983867D01*
X108871500Y-106983867D01*
X108871500Y-106816132D01*
X108838778Y-106651632D01*
X108838776Y-106651626D01*
X108775261Y-106498289D01*
X108400000Y-106873551D01*
X108400000Y-106849972D01*
X108374104Y-106753325D01*
X108324076Y-106666675D01*
X108253325Y-106595924D01*
X108166675Y-106545896D01*
X108070028Y-106520000D01*
X108046447Y-106520000D01*
X108421709Y-106144737D01*
X108268373Y-106081223D01*
X108268367Y-106081221D01*
X108103867Y-106048500D01*
X107936133Y-106048500D01*
X107771632Y-106081221D01*
X107771626Y-106081223D01*
X107618289Y-106144737D01*
X107993554Y-106520000D01*
X107969972Y-106520000D01*
X107873325Y-106545896D01*
X107786675Y-106595924D01*
X107715924Y-106666675D01*
X107665896Y-106753325D01*
X107640000Y-106849972D01*
X107640000Y-106873552D01*
X107264737Y-106498289D01*
X107201223Y-106651626D01*
X107201221Y-106651632D01*
X107168500Y-106816132D01*
X107168500Y-106983867D01*
X107168499Y-106983867D01*
X106332000Y-106983867D01*
X106332000Y-106816085D01*
X106332000Y-106816082D01*
X106331999Y-106816080D01*
X106299258Y-106651481D01*
X106235032Y-106496427D01*
X106235030Y-106496424D01*
X106235028Y-106496420D01*
X106141791Y-106356882D01*
X106141788Y-106356878D01*
X106023121Y-106238211D01*
X106023117Y-106238208D01*
X105883579Y-106144971D01*
X105883569Y-106144966D01*
X105728519Y-106080742D01*
X105728511Y-106080740D01*
X105563918Y-106048000D01*
X105563915Y-106048000D01*
X105396085Y-106048000D01*
X105396082Y-106048000D01*
X105231488Y-106080740D01*
X105231480Y-106080742D01*
X105076430Y-106144966D01*
X105076420Y-106144971D01*
X104936882Y-106238208D01*
X104936878Y-106238211D01*
X104818211Y-106356878D01*
X104818208Y-106356882D01*
X104724971Y-106496420D01*
X104724966Y-106496430D01*
X104660742Y-106651480D01*
X104660740Y-106651488D01*
X104628000Y-106816080D01*
X101000500Y-106816080D01*
X101000500Y-106155513D01*
X100970940Y-105968881D01*
X100943846Y-105885497D01*
X100912547Y-105789168D01*
X100912545Y-105789165D01*
X100912545Y-105789163D01*
X100867290Y-105700347D01*
X100826760Y-105620801D01*
X100715690Y-105467927D01*
X100582073Y-105334310D01*
X100429199Y-105223240D01*
X100419421Y-105218258D01*
X100260836Y-105137454D01*
X100081118Y-105079059D01*
X99894486Y-105049500D01*
X99894481Y-105049500D01*
X99705519Y-105049500D01*
X99705514Y-105049500D01*
X99518881Y-105079059D01*
X99339163Y-105137454D01*
X99170800Y-105223240D01*
X99083579Y-105286610D01*
X99017927Y-105334310D01*
X99017925Y-105334312D01*
X99017924Y-105334312D01*
X98884312Y-105467924D01*
X98884312Y-105467925D01*
X98884310Y-105467927D01*
X98857369Y-105505008D01*
X98773240Y-105620800D01*
X98687454Y-105789163D01*
X98629059Y-105968881D01*
X98599500Y-106155513D01*
X96425968Y-106155513D01*
X96450000Y-106065826D01*
X96450000Y-105934174D01*
X96415925Y-105807007D01*
X96383012Y-105750000D01*
X97125362Y-105750000D01*
X97120451Y-105718997D01*
X97062085Y-105539362D01*
X96976329Y-105371059D01*
X96865314Y-105218258D01*
X96865310Y-105218253D01*
X96731746Y-105084689D01*
X96731741Y-105084685D01*
X96578940Y-104973670D01*
X96410637Y-104887914D01*
X96231002Y-104829548D01*
X96044447Y-104800000D01*
X95550000Y-104800000D01*
X95550000Y-105500000D01*
X95050000Y-105500000D01*
X95050000Y-104800000D01*
X94555553Y-104800000D01*
X94368997Y-104829548D01*
X94189362Y-104887914D01*
X94021059Y-104973670D01*
X93868258Y-105084685D01*
X93868253Y-105084689D01*
X93734689Y-105218253D01*
X93734685Y-105218258D01*
X93623670Y-105371059D01*
X93537914Y-105539362D01*
X93479548Y-105718997D01*
X93474638Y-105750000D01*
X91892590Y-105750000D01*
X91826760Y-105620801D01*
X91715690Y-105467927D01*
X91582073Y-105334310D01*
X91429199Y-105223240D01*
X91419421Y-105218258D01*
X91260836Y-105137454D01*
X91081118Y-105079059D01*
X90894486Y-105049500D01*
X90894481Y-105049500D01*
X90705519Y-105049500D01*
X90705514Y-105049500D01*
X90518881Y-105079059D01*
X90339163Y-105137454D01*
X90170800Y-105223240D01*
X90083579Y-105286610D01*
X90017927Y-105334310D01*
X90017925Y-105334312D01*
X90017924Y-105334312D01*
X89884312Y-105467924D01*
X89884305Y-105467933D01*
X89824817Y-105549810D01*
X89769487Y-105592476D01*
X89699874Y-105598454D01*
X89638079Y-105565848D01*
X89603722Y-105505008D01*
X89600500Y-105476924D01*
X89600500Y-98980247D01*
X93099500Y-98980247D01*
X93099500Y-101019752D01*
X93111131Y-101078229D01*
X93111132Y-101078230D01*
X93155447Y-101144552D01*
X93221769Y-101188867D01*
X93221770Y-101188868D01*
X93280247Y-101200499D01*
X93280250Y-101200500D01*
X93280252Y-101200500D01*
X97319750Y-101200500D01*
X97319751Y-101200499D01*
X97334568Y-101197552D01*
X97378229Y-101188868D01*
X97378229Y-101188867D01*
X97378231Y-101188867D01*
X97444552Y-101144552D01*
X97488867Y-101078231D01*
X97488867Y-101078229D01*
X97488868Y-101078229D01*
X97500499Y-101019752D01*
X97500500Y-101019750D01*
X97500500Y-98980249D01*
X97500499Y-98980247D01*
X97488868Y-98921770D01*
X97488867Y-98921769D01*
X97444552Y-98855447D01*
X97378230Y-98811132D01*
X97378229Y-98811131D01*
X97319752Y-98799500D01*
X97319748Y-98799500D01*
X93280252Y-98799500D01*
X93280247Y-98799500D01*
X93221770Y-98811131D01*
X93221769Y-98811132D01*
X93155447Y-98855447D01*
X93111132Y-98921769D01*
X93111131Y-98921770D01*
X93099500Y-98980247D01*
X89600500Y-98980247D01*
X89600500Y-95171428D01*
X90220000Y-95171428D01*
X90220000Y-95358571D01*
X90256506Y-95542097D01*
X90256508Y-95542105D01*
X90328119Y-95714990D01*
X90328126Y-95715002D01*
X90343473Y-95737971D01*
X90343474Y-95737972D01*
X90727861Y-95353584D01*
X90750667Y-95438694D01*
X90809910Y-95541306D01*
X90893694Y-95625090D01*
X90996306Y-95684333D01*
X91081414Y-95707137D01*
X90697027Y-96091524D01*
X90697027Y-96091525D01*
X90720007Y-96106879D01*
X90892894Y-96178491D01*
X90892902Y-96178493D01*
X91076428Y-96214999D01*
X91076431Y-96215000D01*
X91263569Y-96215000D01*
X91263571Y-96214999D01*
X91447097Y-96178493D01*
X91447105Y-96178491D01*
X91619992Y-96106879D01*
X91619998Y-96106876D01*
X91642971Y-96091525D01*
X91642972Y-96091524D01*
X91258585Y-95707137D01*
X91343694Y-95684333D01*
X91446306Y-95625090D01*
X91530090Y-95541306D01*
X91589333Y-95438694D01*
X91612137Y-95353585D01*
X91996524Y-95737972D01*
X91996525Y-95737971D01*
X92011876Y-95714998D01*
X92011879Y-95714992D01*
X92083491Y-95542105D01*
X92083493Y-95542097D01*
X92119999Y-95358571D01*
X92120000Y-95358569D01*
X92120000Y-95171430D01*
X92119999Y-95171428D01*
X113080000Y-95171428D01*
X113080000Y-95358571D01*
X113116506Y-95542097D01*
X113116508Y-95542105D01*
X113188119Y-95714990D01*
X113188126Y-95715002D01*
X113203473Y-95737971D01*
X113203474Y-95737972D01*
X113587861Y-95353584D01*
X113610667Y-95438694D01*
X113669910Y-95541306D01*
X113753694Y-95625090D01*
X113856306Y-95684333D01*
X113941414Y-95707137D01*
X113557027Y-96091524D01*
X113557027Y-96091525D01*
X113580007Y-96106879D01*
X113752894Y-96178491D01*
X113752902Y-96178493D01*
X113936428Y-96214999D01*
X113936431Y-96215000D01*
X114123569Y-96215000D01*
X114123571Y-96214999D01*
X114307097Y-96178493D01*
X114307105Y-96178491D01*
X114479992Y-96106879D01*
X114479998Y-96106876D01*
X114502971Y-96091525D01*
X114502972Y-96091524D01*
X114118585Y-95707137D01*
X114203694Y-95684333D01*
X114306306Y-95625090D01*
X114390090Y-95541306D01*
X114449333Y-95438694D01*
X114472137Y-95353585D01*
X114856524Y-95737972D01*
X114856525Y-95737971D01*
X114871876Y-95714998D01*
X114871879Y-95714992D01*
X114943491Y-95542105D01*
X114943493Y-95542097D01*
X114979999Y-95358571D01*
X114980000Y-95358569D01*
X114980000Y-95171430D01*
X114979999Y-95171428D01*
X114943493Y-94987902D01*
X114943491Y-94987894D01*
X114871879Y-94815007D01*
X114856524Y-94792027D01*
X114472137Y-95176414D01*
X114449333Y-95091306D01*
X114390090Y-94988694D01*
X114306306Y-94904910D01*
X114203694Y-94845667D01*
X114118584Y-94822861D01*
X114502972Y-94438474D01*
X114502971Y-94438473D01*
X114480002Y-94423126D01*
X114479990Y-94423119D01*
X114307105Y-94351508D01*
X114307097Y-94351506D01*
X114123570Y-94315000D01*
X113936430Y-94315000D01*
X113752902Y-94351506D01*
X113752894Y-94351508D01*
X113580005Y-94423121D01*
X113557027Y-94438473D01*
X113557027Y-94438474D01*
X113941415Y-94822861D01*
X113856306Y-94845667D01*
X113753694Y-94904910D01*
X113669910Y-94988694D01*
X113610667Y-95091306D01*
X113587861Y-95176414D01*
X113203474Y-94792027D01*
X113203473Y-94792027D01*
X113188121Y-94815005D01*
X113116508Y-94987894D01*
X113116506Y-94987902D01*
X113080000Y-95171428D01*
X92119999Y-95171428D01*
X92083493Y-94987902D01*
X92083491Y-94987894D01*
X92011879Y-94815007D01*
X91996524Y-94792027D01*
X91612137Y-95176414D01*
X91589333Y-95091306D01*
X91530090Y-94988694D01*
X91446306Y-94904910D01*
X91343694Y-94845667D01*
X91258584Y-94822861D01*
X91642972Y-94438474D01*
X91642971Y-94438473D01*
X91620002Y-94423126D01*
X91619990Y-94423119D01*
X91447105Y-94351508D01*
X91447097Y-94351506D01*
X91263570Y-94315000D01*
X91076430Y-94315000D01*
X90892902Y-94351506D01*
X90892894Y-94351508D01*
X90720005Y-94423121D01*
X90697027Y-94438473D01*
X90697027Y-94438474D01*
X91081415Y-94822861D01*
X90996306Y-94845667D01*
X90893694Y-94904910D01*
X90809910Y-94988694D01*
X90750667Y-95091306D01*
X90727861Y-95176414D01*
X90343474Y-94792027D01*
X90343473Y-94792027D01*
X90328121Y-94815005D01*
X90256508Y-94987894D01*
X90256506Y-94987902D01*
X90220000Y-95171428D01*
X89600500Y-95171428D01*
X89600500Y-92631379D01*
X90219500Y-92631379D01*
X90219500Y-92818620D01*
X90256025Y-93002243D01*
X90256027Y-93002251D01*
X90327676Y-93175228D01*
X90327681Y-93175237D01*
X90431697Y-93330907D01*
X90431700Y-93330911D01*
X90564088Y-93463299D01*
X90564092Y-93463302D01*
X90719762Y-93567318D01*
X90719768Y-93567321D01*
X90719769Y-93567322D01*
X90892749Y-93638973D01*
X91076379Y-93675499D01*
X91076383Y-93675500D01*
X91076384Y-93675500D01*
X91263617Y-93675500D01*
X91263618Y-93675499D01*
X91447251Y-93638973D01*
X91620231Y-93567322D01*
X91775908Y-93463302D01*
X91908302Y-93330908D01*
X92012322Y-93175231D01*
X92083973Y-93002251D01*
X92120500Y-92818616D01*
X92120500Y-92631384D01*
X92120499Y-92631379D01*
X113079500Y-92631379D01*
X113079500Y-92818620D01*
X113116025Y-93002243D01*
X113116027Y-93002251D01*
X113187676Y-93175228D01*
X113187681Y-93175237D01*
X113291697Y-93330907D01*
X113291700Y-93330911D01*
X113424088Y-93463299D01*
X113424092Y-93463302D01*
X113579762Y-93567318D01*
X113579768Y-93567321D01*
X113579769Y-93567322D01*
X113752749Y-93638973D01*
X113936379Y-93675499D01*
X113936383Y-93675500D01*
X113936384Y-93675500D01*
X114123617Y-93675500D01*
X114123618Y-93675499D01*
X114307251Y-93638973D01*
X114480231Y-93567322D01*
X114635908Y-93463302D01*
X114768302Y-93330908D01*
X114872322Y-93175231D01*
X114943973Y-93002251D01*
X114980500Y-92818616D01*
X114980500Y-92631384D01*
X114943973Y-92447749D01*
X114872322Y-92274769D01*
X114872321Y-92274768D01*
X114872318Y-92274762D01*
X114768302Y-92119092D01*
X114768299Y-92119088D01*
X114635911Y-91986700D01*
X114635907Y-91986697D01*
X114480237Y-91882681D01*
X114480228Y-91882676D01*
X114307251Y-91811027D01*
X114307243Y-91811025D01*
X114123620Y-91774500D01*
X114123616Y-91774500D01*
X113936384Y-91774500D01*
X113936379Y-91774500D01*
X113752756Y-91811025D01*
X113752748Y-91811027D01*
X113579771Y-91882676D01*
X113579762Y-91882681D01*
X113424092Y-91986697D01*
X113424088Y-91986700D01*
X113291700Y-92119088D01*
X113291697Y-92119092D01*
X113187681Y-92274762D01*
X113187676Y-92274771D01*
X113116027Y-92447748D01*
X113116025Y-92447756D01*
X113079500Y-92631379D01*
X92120499Y-92631379D01*
X92083973Y-92447749D01*
X92012322Y-92274769D01*
X92012321Y-92274768D01*
X92012318Y-92274762D01*
X91908302Y-92119092D01*
X91908299Y-92119088D01*
X91775911Y-91986700D01*
X91775907Y-91986697D01*
X91620237Y-91882681D01*
X91620228Y-91882676D01*
X91447251Y-91811027D01*
X91447243Y-91811025D01*
X91263620Y-91774500D01*
X91263616Y-91774500D01*
X91076384Y-91774500D01*
X91076379Y-91774500D01*
X90892756Y-91811025D01*
X90892748Y-91811027D01*
X90719771Y-91882676D01*
X90719762Y-91882681D01*
X90564092Y-91986697D01*
X90564088Y-91986700D01*
X90431700Y-92119088D01*
X90431697Y-92119092D01*
X90327681Y-92274762D01*
X90327676Y-92274771D01*
X90256027Y-92447748D01*
X90256025Y-92447756D01*
X90219500Y-92631379D01*
X89600500Y-92631379D01*
X89600500Y-90091379D01*
X90219500Y-90091379D01*
X90219500Y-90278620D01*
X90256025Y-90462243D01*
X90256027Y-90462251D01*
X90327676Y-90635228D01*
X90327681Y-90635237D01*
X90431697Y-90790907D01*
X90431700Y-90790911D01*
X90564088Y-90923299D01*
X90564092Y-90923302D01*
X90719762Y-91027318D01*
X90719768Y-91027321D01*
X90719769Y-91027322D01*
X90892749Y-91098973D01*
X91076379Y-91135499D01*
X91076383Y-91135500D01*
X91076384Y-91135500D01*
X91263617Y-91135500D01*
X91263618Y-91135499D01*
X91447251Y-91098973D01*
X91620231Y-91027322D01*
X91775908Y-90923302D01*
X91908302Y-90790908D01*
X92012322Y-90635231D01*
X92083973Y-90462251D01*
X92120500Y-90278616D01*
X92120500Y-90091384D01*
X92120499Y-90091379D01*
X113079500Y-90091379D01*
X113079500Y-90278620D01*
X113116025Y-90462243D01*
X113116027Y-90462251D01*
X113187676Y-90635228D01*
X113187681Y-90635237D01*
X113291697Y-90790907D01*
X113291700Y-90790911D01*
X113424088Y-90923299D01*
X113424092Y-90923302D01*
X113579762Y-91027318D01*
X113579768Y-91027321D01*
X113579769Y-91027322D01*
X113752749Y-91098973D01*
X113936379Y-91135499D01*
X113936383Y-91135500D01*
X113936384Y-91135500D01*
X114123617Y-91135500D01*
X114123618Y-91135499D01*
X114307251Y-91098973D01*
X114480231Y-91027322D01*
X114635908Y-90923302D01*
X114768302Y-90790908D01*
X114872322Y-90635231D01*
X114943973Y-90462251D01*
X114980500Y-90278616D01*
X114980500Y-90091384D01*
X114943973Y-89907749D01*
X114872322Y-89734769D01*
X114872321Y-89734768D01*
X114872318Y-89734762D01*
X114768302Y-89579092D01*
X114768299Y-89579088D01*
X114635911Y-89446700D01*
X114635907Y-89446697D01*
X114480237Y-89342681D01*
X114480228Y-89342676D01*
X114307251Y-89271027D01*
X114307243Y-89271025D01*
X114123620Y-89234500D01*
X114123616Y-89234500D01*
X113936384Y-89234500D01*
X113936379Y-89234500D01*
X113752756Y-89271025D01*
X113752748Y-89271027D01*
X113579771Y-89342676D01*
X113579762Y-89342681D01*
X113424092Y-89446697D01*
X113424088Y-89446700D01*
X113291700Y-89579088D01*
X113291697Y-89579092D01*
X113187681Y-89734762D01*
X113187676Y-89734771D01*
X113116027Y-89907748D01*
X113116025Y-89907756D01*
X113079500Y-90091379D01*
X92120499Y-90091379D01*
X92083973Y-89907749D01*
X92012322Y-89734769D01*
X92012321Y-89734768D01*
X92012318Y-89734762D01*
X91908302Y-89579092D01*
X91908299Y-89579088D01*
X91775911Y-89446700D01*
X91775907Y-89446697D01*
X91620237Y-89342681D01*
X91620228Y-89342676D01*
X91447251Y-89271027D01*
X91447243Y-89271025D01*
X91263620Y-89234500D01*
X91263616Y-89234500D01*
X91076384Y-89234500D01*
X91076379Y-89234500D01*
X90892756Y-89271025D01*
X90892748Y-89271027D01*
X90719771Y-89342676D01*
X90719762Y-89342681D01*
X90564092Y-89446697D01*
X90564088Y-89446700D01*
X90431700Y-89579088D01*
X90431697Y-89579092D01*
X90327681Y-89734762D01*
X90327676Y-89734771D01*
X90256027Y-89907748D01*
X90256025Y-89907756D01*
X90219500Y-90091379D01*
X89600500Y-90091379D01*
X89600500Y-87551428D01*
X90220000Y-87551428D01*
X90220000Y-87738571D01*
X90256506Y-87922097D01*
X90256508Y-87922105D01*
X90328119Y-88094990D01*
X90328126Y-88095002D01*
X90343473Y-88117971D01*
X90343474Y-88117972D01*
X90727861Y-87733584D01*
X90750667Y-87818694D01*
X90809910Y-87921306D01*
X90893694Y-88005090D01*
X90996306Y-88064333D01*
X91081414Y-88087137D01*
X90697027Y-88471524D01*
X90697027Y-88471525D01*
X90720007Y-88486879D01*
X90892894Y-88558491D01*
X90892902Y-88558493D01*
X91076428Y-88594999D01*
X91076431Y-88595000D01*
X91263569Y-88595000D01*
X91263571Y-88594999D01*
X91447097Y-88558493D01*
X91447105Y-88558491D01*
X91619992Y-88486879D01*
X91619998Y-88486876D01*
X91642971Y-88471525D01*
X91642972Y-88471524D01*
X91258585Y-88087137D01*
X91343694Y-88064333D01*
X91446306Y-88005090D01*
X91530090Y-87921306D01*
X91589333Y-87818694D01*
X91612137Y-87733585D01*
X91996524Y-88117972D01*
X91996525Y-88117971D01*
X92011876Y-88094998D01*
X92011879Y-88094992D01*
X92083491Y-87922105D01*
X92083493Y-87922097D01*
X92119999Y-87738571D01*
X92120000Y-87738569D01*
X92120000Y-87551430D01*
X92119999Y-87551428D01*
X113080000Y-87551428D01*
X113080000Y-87738571D01*
X113116506Y-87922097D01*
X113116508Y-87922105D01*
X113188119Y-88094990D01*
X113188126Y-88095002D01*
X113203473Y-88117971D01*
X113203474Y-88117972D01*
X113587861Y-87733584D01*
X113610667Y-87818694D01*
X113669910Y-87921306D01*
X113753694Y-88005090D01*
X113856306Y-88064333D01*
X113941414Y-88087137D01*
X113557027Y-88471524D01*
X113557027Y-88471525D01*
X113580007Y-88486879D01*
X113752894Y-88558491D01*
X113752902Y-88558493D01*
X113936428Y-88594999D01*
X113936431Y-88595000D01*
X114123569Y-88595000D01*
X114123571Y-88594999D01*
X114307097Y-88558493D01*
X114307105Y-88558491D01*
X114479992Y-88486879D01*
X114479998Y-88486876D01*
X114502971Y-88471525D01*
X114502972Y-88471524D01*
X114118585Y-88087137D01*
X114203694Y-88064333D01*
X114306306Y-88005090D01*
X114390090Y-87921306D01*
X114449333Y-87818694D01*
X114472137Y-87733585D01*
X114856524Y-88117972D01*
X114856525Y-88117971D01*
X114871876Y-88094998D01*
X114871879Y-88094992D01*
X114943491Y-87922105D01*
X114943493Y-87922097D01*
X114979999Y-87738571D01*
X114980000Y-87738569D01*
X114980000Y-87551430D01*
X114979999Y-87551428D01*
X114943493Y-87367902D01*
X114943491Y-87367894D01*
X114871879Y-87195007D01*
X114856524Y-87172027D01*
X114472137Y-87556414D01*
X114449333Y-87471306D01*
X114390090Y-87368694D01*
X114306306Y-87284910D01*
X114203694Y-87225667D01*
X114118584Y-87202861D01*
X114502972Y-86818474D01*
X114502971Y-86818473D01*
X114480002Y-86803126D01*
X114479990Y-86803119D01*
X114307105Y-86731508D01*
X114307097Y-86731506D01*
X114123570Y-86695000D01*
X113936430Y-86695000D01*
X113752902Y-86731506D01*
X113752894Y-86731508D01*
X113580005Y-86803121D01*
X113557027Y-86818473D01*
X113557027Y-86818474D01*
X113941415Y-87202861D01*
X113856306Y-87225667D01*
X113753694Y-87284910D01*
X113669910Y-87368694D01*
X113610667Y-87471306D01*
X113587861Y-87556414D01*
X113203474Y-87172027D01*
X113203473Y-87172027D01*
X113188121Y-87195005D01*
X113116508Y-87367894D01*
X113116506Y-87367902D01*
X113080000Y-87551428D01*
X92119999Y-87551428D01*
X92083493Y-87367902D01*
X92083491Y-87367894D01*
X92011879Y-87195007D01*
X91996524Y-87172027D01*
X91612137Y-87556414D01*
X91589333Y-87471306D01*
X91530090Y-87368694D01*
X91446306Y-87284910D01*
X91343694Y-87225667D01*
X91258584Y-87202861D01*
X91642972Y-86818474D01*
X91642971Y-86818473D01*
X91620002Y-86803126D01*
X91619990Y-86803119D01*
X91447105Y-86731508D01*
X91447097Y-86731506D01*
X91263570Y-86695000D01*
X91076430Y-86695000D01*
X90892902Y-86731506D01*
X90892894Y-86731508D01*
X90720005Y-86803121D01*
X90697027Y-86818473D01*
X90697027Y-86818474D01*
X91081415Y-87202861D01*
X90996306Y-87225667D01*
X90893694Y-87284910D01*
X90809910Y-87368694D01*
X90750667Y-87471306D01*
X90727861Y-87556414D01*
X90343474Y-87172027D01*
X90343473Y-87172027D01*
X90328121Y-87195005D01*
X90256508Y-87367894D01*
X90256506Y-87367902D01*
X90220000Y-87551428D01*
X89600500Y-87551428D01*
X89600500Y-85011379D01*
X90219500Y-85011379D01*
X90219500Y-85198620D01*
X90256025Y-85382243D01*
X90256027Y-85382251D01*
X90327676Y-85555228D01*
X90327681Y-85555237D01*
X90431697Y-85710907D01*
X90431700Y-85710911D01*
X90564088Y-85843299D01*
X90564092Y-85843302D01*
X90719762Y-85947318D01*
X90719768Y-85947321D01*
X90719769Y-85947322D01*
X90892749Y-86018973D01*
X91076379Y-86055499D01*
X91076383Y-86055500D01*
X91076384Y-86055500D01*
X91263617Y-86055500D01*
X91263618Y-86055499D01*
X91447251Y-86018973D01*
X91620231Y-85947322D01*
X91775908Y-85843302D01*
X91908302Y-85710908D01*
X92012322Y-85555231D01*
X92083973Y-85382251D01*
X92120500Y-85198616D01*
X92120500Y-85011384D01*
X92120499Y-85011379D01*
X113079500Y-85011379D01*
X113079500Y-85198620D01*
X113116025Y-85382243D01*
X113116027Y-85382251D01*
X113187676Y-85555228D01*
X113187681Y-85555237D01*
X113291697Y-85710907D01*
X113291700Y-85710911D01*
X113424088Y-85843299D01*
X113424092Y-85843302D01*
X113579762Y-85947318D01*
X113579768Y-85947321D01*
X113579769Y-85947322D01*
X113752749Y-86018973D01*
X113936379Y-86055499D01*
X113936383Y-86055500D01*
X113936384Y-86055500D01*
X114123617Y-86055500D01*
X114123618Y-86055499D01*
X114307251Y-86018973D01*
X114480231Y-85947322D01*
X114635908Y-85843302D01*
X114768302Y-85710908D01*
X114872322Y-85555231D01*
X114943973Y-85382251D01*
X114980500Y-85198616D01*
X114980500Y-85011384D01*
X114943973Y-84827749D01*
X114872322Y-84654769D01*
X114872321Y-84654768D01*
X114872318Y-84654762D01*
X114768302Y-84499092D01*
X114768299Y-84499088D01*
X114635911Y-84366700D01*
X114635907Y-84366697D01*
X114480237Y-84262681D01*
X114480228Y-84262676D01*
X114307251Y-84191027D01*
X114307243Y-84191025D01*
X114123620Y-84154500D01*
X114123616Y-84154500D01*
X113936384Y-84154500D01*
X113936379Y-84154500D01*
X113752756Y-84191025D01*
X113752748Y-84191027D01*
X113579771Y-84262676D01*
X113579762Y-84262681D01*
X113424092Y-84366697D01*
X113424088Y-84366700D01*
X113291700Y-84499088D01*
X113291697Y-84499092D01*
X113187681Y-84654762D01*
X113187676Y-84654771D01*
X113116027Y-84827748D01*
X113116025Y-84827756D01*
X113079500Y-85011379D01*
X92120499Y-85011379D01*
X92083973Y-84827749D01*
X92012322Y-84654769D01*
X92012321Y-84654768D01*
X92012318Y-84654762D01*
X91908302Y-84499092D01*
X91908299Y-84499088D01*
X91775911Y-84366700D01*
X91775907Y-84366697D01*
X91620237Y-84262681D01*
X91620228Y-84262676D01*
X91447251Y-84191027D01*
X91447243Y-84191025D01*
X91263620Y-84154500D01*
X91263616Y-84154500D01*
X91076384Y-84154500D01*
X91076379Y-84154500D01*
X90892756Y-84191025D01*
X90892748Y-84191027D01*
X90719771Y-84262676D01*
X90719762Y-84262681D01*
X90564092Y-84366697D01*
X90564088Y-84366700D01*
X90431700Y-84499088D01*
X90431697Y-84499092D01*
X90327681Y-84654762D01*
X90327676Y-84654771D01*
X90256027Y-84827748D01*
X90256025Y-84827756D01*
X90219500Y-85011379D01*
X89600500Y-85011379D01*
X89600500Y-82471379D01*
X90219500Y-82471379D01*
X90219500Y-82658620D01*
X90256025Y-82842243D01*
X90256027Y-82842251D01*
X90327676Y-83015228D01*
X90327681Y-83015237D01*
X90431697Y-83170907D01*
X90431700Y-83170911D01*
X90564088Y-83303299D01*
X90564092Y-83303302D01*
X90719762Y-83407318D01*
X90719768Y-83407321D01*
X90719769Y-83407322D01*
X90892749Y-83478973D01*
X91076379Y-83515499D01*
X91076383Y-83515500D01*
X91076384Y-83515500D01*
X91263617Y-83515500D01*
X91263618Y-83515499D01*
X91447251Y-83478973D01*
X91620231Y-83407322D01*
X91775908Y-83303302D01*
X91908302Y-83170908D01*
X92012322Y-83015231D01*
X92083973Y-82842251D01*
X92120500Y-82658616D01*
X92120500Y-82471384D01*
X92120499Y-82471379D01*
X113079500Y-82471379D01*
X113079500Y-82658620D01*
X113116025Y-82842243D01*
X113116027Y-82842251D01*
X113187676Y-83015228D01*
X113187681Y-83015237D01*
X113291697Y-83170907D01*
X113291700Y-83170911D01*
X113424088Y-83303299D01*
X113424092Y-83303302D01*
X113579762Y-83407318D01*
X113579768Y-83407321D01*
X113579769Y-83407322D01*
X113752749Y-83478973D01*
X113936379Y-83515499D01*
X113936383Y-83515500D01*
X113936384Y-83515500D01*
X114123617Y-83515500D01*
X114123618Y-83515499D01*
X114307251Y-83478973D01*
X114480231Y-83407322D01*
X114635908Y-83303302D01*
X114768302Y-83170908D01*
X114872322Y-83015231D01*
X114943973Y-82842251D01*
X114980500Y-82658616D01*
X114980500Y-82471384D01*
X114943973Y-82287749D01*
X114872322Y-82114769D01*
X114872321Y-82114768D01*
X114872318Y-82114762D01*
X114768302Y-81959092D01*
X114768299Y-81959088D01*
X114635911Y-81826700D01*
X114635907Y-81826697D01*
X114480237Y-81722681D01*
X114480228Y-81722676D01*
X114307251Y-81651027D01*
X114307243Y-81651025D01*
X114123620Y-81614500D01*
X114123616Y-81614500D01*
X113936384Y-81614500D01*
X113936379Y-81614500D01*
X113752756Y-81651025D01*
X113752748Y-81651027D01*
X113579771Y-81722676D01*
X113579762Y-81722681D01*
X113424092Y-81826697D01*
X113424088Y-81826700D01*
X113291700Y-81959088D01*
X113291697Y-81959092D01*
X113187681Y-82114762D01*
X113187676Y-82114771D01*
X113116027Y-82287748D01*
X113116025Y-82287756D01*
X113079500Y-82471379D01*
X92120499Y-82471379D01*
X92083973Y-82287749D01*
X92012322Y-82114769D01*
X92012321Y-82114768D01*
X92012318Y-82114762D01*
X91908302Y-81959092D01*
X91908299Y-81959088D01*
X91775911Y-81826700D01*
X91775907Y-81826697D01*
X91620237Y-81722681D01*
X91620228Y-81722676D01*
X91447251Y-81651027D01*
X91447243Y-81651025D01*
X91263620Y-81614500D01*
X91263616Y-81614500D01*
X91076384Y-81614500D01*
X91076379Y-81614500D01*
X90892756Y-81651025D01*
X90892748Y-81651027D01*
X90719771Y-81722676D01*
X90719762Y-81722681D01*
X90564092Y-81826697D01*
X90564088Y-81826700D01*
X90431700Y-81959088D01*
X90431697Y-81959092D01*
X90327681Y-82114762D01*
X90327676Y-82114771D01*
X90256027Y-82287748D01*
X90256025Y-82287756D01*
X90219500Y-82471379D01*
X89600500Y-82471379D01*
X89600500Y-79931379D01*
X90219500Y-79931379D01*
X90219500Y-80118620D01*
X90256025Y-80302243D01*
X90256027Y-80302251D01*
X90327676Y-80475228D01*
X90327681Y-80475237D01*
X90431697Y-80630907D01*
X90431700Y-80630911D01*
X90564088Y-80763299D01*
X90564092Y-80763302D01*
X90719762Y-80867318D01*
X90719768Y-80867321D01*
X90719769Y-80867322D01*
X90892749Y-80938973D01*
X91076379Y-80975499D01*
X91076383Y-80975500D01*
X91076384Y-80975500D01*
X91263617Y-80975500D01*
X91263618Y-80975499D01*
X91447251Y-80938973D01*
X91620231Y-80867322D01*
X91775908Y-80763302D01*
X91908302Y-80630908D01*
X92012322Y-80475231D01*
X92083973Y-80302251D01*
X92120500Y-80118616D01*
X92120500Y-79931384D01*
X92120499Y-79931379D01*
X113079500Y-79931379D01*
X113079500Y-80118620D01*
X113116025Y-80302243D01*
X113116027Y-80302251D01*
X113187676Y-80475228D01*
X113187681Y-80475237D01*
X113291697Y-80630907D01*
X113291700Y-80630911D01*
X113424088Y-80763299D01*
X113424092Y-80763302D01*
X113579762Y-80867318D01*
X113579768Y-80867321D01*
X113579769Y-80867322D01*
X113752749Y-80938973D01*
X113936379Y-80975499D01*
X113936383Y-80975500D01*
X113936384Y-80975500D01*
X114123617Y-80975500D01*
X114123618Y-80975499D01*
X114307251Y-80938973D01*
X114480231Y-80867322D01*
X114635908Y-80763302D01*
X114768302Y-80630908D01*
X114872322Y-80475231D01*
X114943973Y-80302251D01*
X114980500Y-80118616D01*
X114980500Y-79931384D01*
X114943973Y-79747749D01*
X114888554Y-79613956D01*
X114872323Y-79574771D01*
X114872318Y-79574762D01*
X114768302Y-79419092D01*
X114768299Y-79419088D01*
X114635911Y-79286700D01*
X114635907Y-79286697D01*
X114480237Y-79182681D01*
X114480228Y-79182676D01*
X114307251Y-79111027D01*
X114307243Y-79111025D01*
X114123620Y-79074500D01*
X114123616Y-79074500D01*
X113936384Y-79074500D01*
X113936379Y-79074500D01*
X113752756Y-79111025D01*
X113752748Y-79111027D01*
X113579771Y-79182676D01*
X113579762Y-79182681D01*
X113424092Y-79286697D01*
X113424088Y-79286700D01*
X113291700Y-79419088D01*
X113291697Y-79419092D01*
X113187681Y-79574762D01*
X113187676Y-79574771D01*
X113116027Y-79747748D01*
X113116025Y-79747756D01*
X113079500Y-79931379D01*
X92120499Y-79931379D01*
X92083973Y-79747749D01*
X92028554Y-79613956D01*
X92012323Y-79574771D01*
X92012318Y-79574762D01*
X91908302Y-79419092D01*
X91908299Y-79419088D01*
X91775911Y-79286700D01*
X91775907Y-79286697D01*
X91620237Y-79182681D01*
X91620228Y-79182676D01*
X91447251Y-79111027D01*
X91447243Y-79111025D01*
X91263620Y-79074500D01*
X91263616Y-79074500D01*
X91076384Y-79074500D01*
X91076379Y-79074500D01*
X90892756Y-79111025D01*
X90892748Y-79111027D01*
X90719771Y-79182676D01*
X90719762Y-79182681D01*
X90564092Y-79286697D01*
X90564088Y-79286700D01*
X90431700Y-79419088D01*
X90431697Y-79419092D01*
X90327681Y-79574762D01*
X90327676Y-79574771D01*
X90256027Y-79747748D01*
X90256025Y-79747756D01*
X90219500Y-79931379D01*
X89600500Y-79931379D01*
X89600500Y-77391428D01*
X90220000Y-77391428D01*
X90220000Y-77578571D01*
X90256506Y-77762097D01*
X90256508Y-77762105D01*
X90328119Y-77934990D01*
X90328126Y-77935002D01*
X90343473Y-77957971D01*
X90343474Y-77957972D01*
X90727861Y-77573584D01*
X90750667Y-77658694D01*
X90809910Y-77761306D01*
X90893694Y-77845090D01*
X90996306Y-77904333D01*
X91081414Y-77927137D01*
X90697027Y-78311524D01*
X90697027Y-78311525D01*
X90720007Y-78326879D01*
X90892894Y-78398491D01*
X90892902Y-78398493D01*
X91076428Y-78434999D01*
X91076431Y-78435000D01*
X91263569Y-78435000D01*
X91263571Y-78434999D01*
X91447097Y-78398493D01*
X91447105Y-78398491D01*
X91619992Y-78326879D01*
X91619998Y-78326876D01*
X91642971Y-78311525D01*
X91642972Y-78311524D01*
X91258585Y-77927137D01*
X91343694Y-77904333D01*
X91446306Y-77845090D01*
X91530090Y-77761306D01*
X91589333Y-77658694D01*
X91612137Y-77573585D01*
X91996524Y-77957972D01*
X91996525Y-77957971D01*
X92011876Y-77934998D01*
X92011879Y-77934992D01*
X92083491Y-77762105D01*
X92083493Y-77762097D01*
X92119999Y-77578571D01*
X92120000Y-77578569D01*
X92120000Y-77391429D01*
X92119990Y-77391379D01*
X113079500Y-77391379D01*
X113079500Y-77578620D01*
X113116025Y-77762243D01*
X113116027Y-77762251D01*
X113187676Y-77935228D01*
X113187681Y-77935237D01*
X113291697Y-78090907D01*
X113291700Y-78090911D01*
X113424088Y-78223299D01*
X113424092Y-78223302D01*
X113579762Y-78327318D01*
X113579768Y-78327321D01*
X113579769Y-78327322D01*
X113752749Y-78398973D01*
X113933865Y-78434999D01*
X113936379Y-78435499D01*
X113936383Y-78435500D01*
X113936384Y-78435500D01*
X114123617Y-78435500D01*
X114123618Y-78435499D01*
X114307251Y-78398973D01*
X114480231Y-78327322D01*
X114635908Y-78223302D01*
X114768302Y-78090908D01*
X114872322Y-77935231D01*
X114943973Y-77762251D01*
X114980500Y-77578616D01*
X114980500Y-77542747D01*
X137012000Y-77542747D01*
X137012000Y-79582252D01*
X137023631Y-79640729D01*
X137023632Y-79640730D01*
X137067947Y-79707052D01*
X137134269Y-79751367D01*
X137134270Y-79751368D01*
X137192747Y-79762999D01*
X137192750Y-79763000D01*
X137192752Y-79763000D01*
X139232250Y-79763000D01*
X139232251Y-79762999D01*
X139247068Y-79760052D01*
X139290729Y-79751368D01*
X139290729Y-79751367D01*
X139290731Y-79751367D01*
X139357052Y-79707052D01*
X139401367Y-79640731D01*
X139401367Y-79640729D01*
X139401368Y-79640729D01*
X139412999Y-79582252D01*
X139413000Y-79582250D01*
X139413000Y-78468013D01*
X144512000Y-78468013D01*
X144512000Y-78656986D01*
X144541559Y-78843618D01*
X144599954Y-79023336D01*
X144681143Y-79182676D01*
X144685740Y-79191699D01*
X144796810Y-79344573D01*
X144930427Y-79478190D01*
X145083301Y-79589260D01*
X145162847Y-79629790D01*
X145251663Y-79675045D01*
X145251665Y-79675045D01*
X145251668Y-79675047D01*
X145347997Y-79706346D01*
X145431381Y-79733440D01*
X145618014Y-79763000D01*
X145618019Y-79763000D01*
X145806986Y-79763000D01*
X145993618Y-79733440D01*
X146173332Y-79675047D01*
X146341699Y-79589260D01*
X146494573Y-79478190D01*
X146628190Y-79344573D01*
X146739260Y-79191699D01*
X146825047Y-79023332D01*
X146883440Y-78843618D01*
X146913000Y-78656986D01*
X146913000Y-78468013D01*
X146883440Y-78281381D01*
X146825045Y-78101663D01*
X146740243Y-77935231D01*
X146739260Y-77933301D01*
X146628190Y-77780427D01*
X146494573Y-77646810D01*
X146341699Y-77535740D01*
X146173336Y-77449954D01*
X145993618Y-77391559D01*
X145806986Y-77362000D01*
X145806981Y-77362000D01*
X145618019Y-77362000D01*
X145618014Y-77362000D01*
X145431381Y-77391559D01*
X145251663Y-77449954D01*
X145083300Y-77535740D01*
X145024286Y-77578617D01*
X144930427Y-77646810D01*
X144930425Y-77646812D01*
X144930424Y-77646812D01*
X144796812Y-77780424D01*
X144796812Y-77780425D01*
X144796810Y-77780427D01*
X144754579Y-77838553D01*
X144685740Y-77933300D01*
X144599954Y-78101663D01*
X144541559Y-78281381D01*
X144512000Y-78468013D01*
X139413000Y-78468013D01*
X139413000Y-77542749D01*
X139412999Y-77542747D01*
X139401368Y-77484270D01*
X139401367Y-77484269D01*
X139357052Y-77417947D01*
X139290730Y-77373632D01*
X139290729Y-77373631D01*
X139232252Y-77362000D01*
X139232248Y-77362000D01*
X137192752Y-77362000D01*
X137192747Y-77362000D01*
X137134270Y-77373631D01*
X137134269Y-77373632D01*
X137067947Y-77417947D01*
X137023632Y-77484269D01*
X137023631Y-77484270D01*
X137012000Y-77542747D01*
X114980500Y-77542747D01*
X114980500Y-77391384D01*
X114943973Y-77207749D01*
X114872322Y-77034769D01*
X114872321Y-77034768D01*
X114872318Y-77034762D01*
X114768302Y-76879092D01*
X114768299Y-76879088D01*
X114635911Y-76746700D01*
X114635907Y-76746697D01*
X114480237Y-76642681D01*
X114480228Y-76642676D01*
X114307251Y-76571027D01*
X114307243Y-76571025D01*
X114123620Y-76534500D01*
X114123616Y-76534500D01*
X113936384Y-76534500D01*
X113936379Y-76534500D01*
X113752756Y-76571025D01*
X113752748Y-76571027D01*
X113579771Y-76642676D01*
X113579762Y-76642681D01*
X113424092Y-76746697D01*
X113424088Y-76746700D01*
X113291700Y-76879088D01*
X113291697Y-76879092D01*
X113187681Y-77034762D01*
X113187676Y-77034771D01*
X113116027Y-77207748D01*
X113116025Y-77207756D01*
X113079500Y-77391379D01*
X92119990Y-77391379D01*
X92083493Y-77207902D01*
X92083491Y-77207894D01*
X92011879Y-77035007D01*
X91996524Y-77012027D01*
X91612137Y-77396414D01*
X91589333Y-77311306D01*
X91530090Y-77208694D01*
X91446306Y-77124910D01*
X91343694Y-77065667D01*
X91258584Y-77042861D01*
X91642972Y-76658474D01*
X91642971Y-76658473D01*
X91620002Y-76643126D01*
X91619990Y-76643119D01*
X91447105Y-76571508D01*
X91447097Y-76571506D01*
X91263570Y-76535000D01*
X91076430Y-76535000D01*
X90892902Y-76571506D01*
X90892894Y-76571508D01*
X90720005Y-76643121D01*
X90697027Y-76658473D01*
X90697027Y-76658474D01*
X91081415Y-77042861D01*
X90996306Y-77065667D01*
X90893694Y-77124910D01*
X90809910Y-77208694D01*
X90750667Y-77311306D01*
X90727861Y-77396414D01*
X90343474Y-77012027D01*
X90343473Y-77012027D01*
X90328121Y-77035005D01*
X90256508Y-77207894D01*
X90256506Y-77207902D01*
X90220000Y-77391428D01*
X89600500Y-77391428D01*
X89600500Y-74851379D01*
X90219500Y-74851379D01*
X90219500Y-75038620D01*
X90256025Y-75222243D01*
X90256027Y-75222251D01*
X90327676Y-75395228D01*
X90327681Y-75395237D01*
X90431697Y-75550907D01*
X90431700Y-75550911D01*
X90564088Y-75683299D01*
X90564092Y-75683302D01*
X90719762Y-75787318D01*
X90719768Y-75787321D01*
X90719769Y-75787322D01*
X90892749Y-75858973D01*
X91073865Y-75894999D01*
X91076379Y-75895499D01*
X91076383Y-75895500D01*
X91076384Y-75895500D01*
X91263617Y-75895500D01*
X91263618Y-75895499D01*
X91447251Y-75858973D01*
X91620231Y-75787322D01*
X91775908Y-75683302D01*
X91775911Y-75683299D01*
X91821578Y-75637633D01*
X91908299Y-75550911D01*
X91908302Y-75550908D01*
X92012322Y-75395231D01*
X92083973Y-75222251D01*
X92120500Y-75038616D01*
X92120500Y-74851428D01*
X113080000Y-74851428D01*
X113080000Y-75038571D01*
X113116506Y-75222097D01*
X113116508Y-75222105D01*
X113188119Y-75394990D01*
X113188126Y-75395002D01*
X113203473Y-75417971D01*
X113203474Y-75417972D01*
X113587861Y-75033584D01*
X113610667Y-75118694D01*
X113669910Y-75221306D01*
X113753694Y-75305090D01*
X113856306Y-75364333D01*
X113941414Y-75387137D01*
X113557027Y-75771524D01*
X113557027Y-75771525D01*
X113580007Y-75786879D01*
X113752894Y-75858491D01*
X113752902Y-75858493D01*
X113936428Y-75894999D01*
X113936431Y-75895000D01*
X114123569Y-75895000D01*
X114123571Y-75894999D01*
X114307097Y-75858493D01*
X114307105Y-75858491D01*
X114479992Y-75786879D01*
X114479998Y-75786876D01*
X114502971Y-75771525D01*
X114502972Y-75771524D01*
X114118585Y-75387137D01*
X114203694Y-75364333D01*
X114306306Y-75305090D01*
X114390090Y-75221306D01*
X114449333Y-75118694D01*
X114472137Y-75033585D01*
X114856524Y-75417972D01*
X114856525Y-75417971D01*
X114871876Y-75394998D01*
X114871879Y-75394992D01*
X114943491Y-75222105D01*
X114943493Y-75222097D01*
X114979999Y-75038571D01*
X114980000Y-75038569D01*
X114980000Y-74851430D01*
X114979999Y-74851428D01*
X114943493Y-74667902D01*
X114943491Y-74667894D01*
X114871879Y-74495007D01*
X114856524Y-74472027D01*
X114472137Y-74856414D01*
X114449333Y-74771306D01*
X114390090Y-74668694D01*
X114306306Y-74584910D01*
X114203694Y-74525667D01*
X114118584Y-74502861D01*
X114502972Y-74118474D01*
X114502971Y-74118473D01*
X114480002Y-74103126D01*
X114479990Y-74103119D01*
X114307105Y-74031508D01*
X114307097Y-74031506D01*
X114123570Y-73995000D01*
X113936430Y-73995000D01*
X113752902Y-74031506D01*
X113752894Y-74031508D01*
X113580005Y-74103121D01*
X113557027Y-74118473D01*
X113557027Y-74118474D01*
X113941415Y-74502861D01*
X113856306Y-74525667D01*
X113753694Y-74584910D01*
X113669910Y-74668694D01*
X113610667Y-74771306D01*
X113587861Y-74856414D01*
X113203474Y-74472027D01*
X113203473Y-74472027D01*
X113188121Y-74495005D01*
X113116508Y-74667894D01*
X113116506Y-74667902D01*
X113080000Y-74851428D01*
X92120500Y-74851428D01*
X92120500Y-74851384D01*
X92083973Y-74667749D01*
X92012322Y-74494769D01*
X92012321Y-74494768D01*
X92012318Y-74494762D01*
X91908302Y-74339092D01*
X91908299Y-74339088D01*
X91775911Y-74206700D01*
X91775907Y-74206697D01*
X91620237Y-74102681D01*
X91620228Y-74102676D01*
X91447251Y-74031027D01*
X91447243Y-74031025D01*
X91263620Y-73994500D01*
X91263616Y-73994500D01*
X91076384Y-73994500D01*
X91076379Y-73994500D01*
X90892756Y-74031025D01*
X90892748Y-74031027D01*
X90719771Y-74102676D01*
X90719762Y-74102681D01*
X90564092Y-74206697D01*
X90564088Y-74206700D01*
X90431700Y-74339088D01*
X90431697Y-74339092D01*
X90327681Y-74494762D01*
X90327676Y-74494771D01*
X90256027Y-74667748D01*
X90256025Y-74667756D01*
X90219500Y-74851379D01*
X89600500Y-74851379D01*
X89600500Y-72311428D01*
X90220000Y-72311428D01*
X90220000Y-72498571D01*
X90256506Y-72682097D01*
X90256508Y-72682105D01*
X90328119Y-72854990D01*
X90328126Y-72855002D01*
X90343473Y-72877971D01*
X90343474Y-72877972D01*
X90727861Y-72493584D01*
X90750667Y-72578694D01*
X90809910Y-72681306D01*
X90893694Y-72765090D01*
X90996306Y-72824333D01*
X91081414Y-72847137D01*
X90697027Y-73231524D01*
X90697027Y-73231525D01*
X90720007Y-73246879D01*
X90892894Y-73318491D01*
X90892902Y-73318493D01*
X91076428Y-73354999D01*
X91076431Y-73355000D01*
X91263569Y-73355000D01*
X91263571Y-73354999D01*
X91447097Y-73318493D01*
X91447105Y-73318491D01*
X91619992Y-73246879D01*
X91619998Y-73246876D01*
X91642971Y-73231525D01*
X91642972Y-73231524D01*
X91258585Y-72847137D01*
X91343694Y-72824333D01*
X91446306Y-72765090D01*
X91530090Y-72681306D01*
X91589333Y-72578694D01*
X91612137Y-72493585D01*
X91996524Y-72877972D01*
X91996525Y-72877971D01*
X92011876Y-72854998D01*
X92011879Y-72854992D01*
X92083491Y-72682105D01*
X92083493Y-72682097D01*
X92119999Y-72498571D01*
X92120000Y-72498569D01*
X92120000Y-72311429D01*
X92119990Y-72311379D01*
X113079500Y-72311379D01*
X113079500Y-72498620D01*
X113116025Y-72682243D01*
X113116027Y-72682251D01*
X113187676Y-72855228D01*
X113187681Y-72855237D01*
X113291697Y-73010907D01*
X113291700Y-73010911D01*
X113424088Y-73143299D01*
X113424092Y-73143302D01*
X113579762Y-73247318D01*
X113579768Y-73247321D01*
X113579769Y-73247322D01*
X113752749Y-73318973D01*
X113933865Y-73354999D01*
X113936379Y-73355499D01*
X113936383Y-73355500D01*
X113936384Y-73355500D01*
X114123617Y-73355500D01*
X114123618Y-73355499D01*
X114307251Y-73318973D01*
X114480231Y-73247322D01*
X114635908Y-73143302D01*
X114768302Y-73010908D01*
X114872322Y-72855231D01*
X114943973Y-72682251D01*
X114980500Y-72498616D01*
X114980500Y-72311384D01*
X114943973Y-72127749D01*
X114872322Y-71954769D01*
X114872321Y-71954768D01*
X114872318Y-71954762D01*
X114768302Y-71799092D01*
X114768299Y-71799088D01*
X114635911Y-71666700D01*
X114635907Y-71666697D01*
X114480237Y-71562681D01*
X114480228Y-71562676D01*
X114307251Y-71491027D01*
X114307243Y-71491025D01*
X114123620Y-71454500D01*
X114123616Y-71454500D01*
X113936384Y-71454500D01*
X113936379Y-71454500D01*
X113752756Y-71491025D01*
X113752748Y-71491027D01*
X113579771Y-71562676D01*
X113579762Y-71562681D01*
X113424092Y-71666697D01*
X113424088Y-71666700D01*
X113291700Y-71799088D01*
X113291697Y-71799092D01*
X113187681Y-71954762D01*
X113187676Y-71954771D01*
X113116027Y-72127748D01*
X113116025Y-72127756D01*
X113079500Y-72311379D01*
X92119990Y-72311379D01*
X92083493Y-72127902D01*
X92083491Y-72127894D01*
X92011879Y-71955007D01*
X91996524Y-71932027D01*
X91612137Y-72316414D01*
X91589333Y-72231306D01*
X91530090Y-72128694D01*
X91446306Y-72044910D01*
X91343694Y-71985667D01*
X91258584Y-71962861D01*
X91642972Y-71578474D01*
X91642971Y-71578473D01*
X91620002Y-71563126D01*
X91619990Y-71563119D01*
X91447105Y-71491508D01*
X91447097Y-71491506D01*
X91263570Y-71455000D01*
X91076430Y-71455000D01*
X90892902Y-71491506D01*
X90892894Y-71491508D01*
X90720005Y-71563121D01*
X90697027Y-71578473D01*
X90697027Y-71578474D01*
X91081415Y-71962861D01*
X90996306Y-71985667D01*
X90893694Y-72044910D01*
X90809910Y-72128694D01*
X90750667Y-72231306D01*
X90727861Y-72316414D01*
X90343474Y-71932027D01*
X90343473Y-71932027D01*
X90328121Y-71955005D01*
X90256508Y-72127894D01*
X90256506Y-72127902D01*
X90220000Y-72311428D01*
X89600500Y-72311428D01*
X89600500Y-69771379D01*
X90219500Y-69771379D01*
X90219500Y-69958620D01*
X90256025Y-70142243D01*
X90256027Y-70142251D01*
X90327676Y-70315228D01*
X90327681Y-70315237D01*
X90431697Y-70470907D01*
X90431700Y-70470911D01*
X90564088Y-70603299D01*
X90564092Y-70603302D01*
X90719762Y-70707318D01*
X90719768Y-70707321D01*
X90719769Y-70707322D01*
X90892749Y-70778973D01*
X91076379Y-70815499D01*
X91076383Y-70815500D01*
X91076384Y-70815500D01*
X91263617Y-70815500D01*
X91263618Y-70815499D01*
X91447251Y-70778973D01*
X91620231Y-70707322D01*
X91775908Y-70603302D01*
X91908302Y-70470908D01*
X92012322Y-70315231D01*
X92083973Y-70142251D01*
X92120500Y-69958616D01*
X92120500Y-69771384D01*
X92120499Y-69771379D01*
X113079500Y-69771379D01*
X113079500Y-69958620D01*
X113116025Y-70142243D01*
X113116027Y-70142251D01*
X113187676Y-70315228D01*
X113187681Y-70315237D01*
X113291697Y-70470907D01*
X113291700Y-70470911D01*
X113424088Y-70603299D01*
X113424092Y-70603302D01*
X113579762Y-70707318D01*
X113579768Y-70707321D01*
X113579769Y-70707322D01*
X113752749Y-70778973D01*
X113936379Y-70815499D01*
X113936383Y-70815500D01*
X113936384Y-70815500D01*
X114123617Y-70815500D01*
X114123618Y-70815499D01*
X114307251Y-70778973D01*
X114480231Y-70707322D01*
X114635908Y-70603302D01*
X114768302Y-70470908D01*
X114872322Y-70315231D01*
X114943973Y-70142251D01*
X114980500Y-69958616D01*
X114980500Y-69771384D01*
X114943973Y-69587749D01*
X114872322Y-69414769D01*
X114872321Y-69414768D01*
X114872318Y-69414762D01*
X114768302Y-69259092D01*
X114768299Y-69259088D01*
X114635911Y-69126700D01*
X114635907Y-69126697D01*
X114480237Y-69022681D01*
X114480228Y-69022676D01*
X114307251Y-68951027D01*
X114307243Y-68951025D01*
X114123620Y-68914500D01*
X114123616Y-68914500D01*
X113936384Y-68914500D01*
X113936379Y-68914500D01*
X113752756Y-68951025D01*
X113752748Y-68951027D01*
X113579771Y-69022676D01*
X113579762Y-69022681D01*
X113424092Y-69126697D01*
X113424088Y-69126700D01*
X113291700Y-69259088D01*
X113291697Y-69259092D01*
X113187681Y-69414762D01*
X113187676Y-69414771D01*
X113116027Y-69587748D01*
X113116025Y-69587756D01*
X113079500Y-69771379D01*
X92120499Y-69771379D01*
X92083973Y-69587749D01*
X92012322Y-69414769D01*
X92012321Y-69414768D01*
X92012318Y-69414762D01*
X91908302Y-69259092D01*
X91908299Y-69259088D01*
X91775911Y-69126700D01*
X91775907Y-69126697D01*
X91620237Y-69022681D01*
X91620228Y-69022676D01*
X91447251Y-68951027D01*
X91447243Y-68951025D01*
X91263620Y-68914500D01*
X91263616Y-68914500D01*
X91076384Y-68914500D01*
X91076379Y-68914500D01*
X90892756Y-68951025D01*
X90892748Y-68951027D01*
X90719771Y-69022676D01*
X90719762Y-69022681D01*
X90564092Y-69126697D01*
X90564088Y-69126700D01*
X90431700Y-69259088D01*
X90431697Y-69259092D01*
X90327681Y-69414762D01*
X90327676Y-69414771D01*
X90256027Y-69587748D01*
X90256025Y-69587756D01*
X90219500Y-69771379D01*
X89600500Y-69771379D01*
X89600500Y-67231379D01*
X90219500Y-67231379D01*
X90219500Y-67418620D01*
X90256025Y-67602243D01*
X90256027Y-67602251D01*
X90327676Y-67775228D01*
X90327681Y-67775237D01*
X90431697Y-67930907D01*
X90431700Y-67930911D01*
X90564088Y-68063299D01*
X90564092Y-68063302D01*
X90719762Y-68167318D01*
X90719768Y-68167321D01*
X90719769Y-68167322D01*
X90892749Y-68238973D01*
X91073865Y-68274999D01*
X91076379Y-68275499D01*
X91076383Y-68275500D01*
X91076384Y-68275500D01*
X91263617Y-68275500D01*
X91263618Y-68275499D01*
X91447251Y-68238973D01*
X91620231Y-68167322D01*
X91775908Y-68063302D01*
X91775911Y-68063299D01*
X91821578Y-68017633D01*
X91908299Y-67930911D01*
X91908302Y-67930908D01*
X92012322Y-67775231D01*
X92083973Y-67602251D01*
X92120500Y-67418616D01*
X92120500Y-67231428D01*
X113080000Y-67231428D01*
X113080000Y-67418571D01*
X113116506Y-67602097D01*
X113116508Y-67602105D01*
X113188119Y-67774990D01*
X113188126Y-67775002D01*
X113203473Y-67797971D01*
X113203474Y-67797972D01*
X113587861Y-67413584D01*
X113610667Y-67498694D01*
X113669910Y-67601306D01*
X113753694Y-67685090D01*
X113856306Y-67744333D01*
X113941414Y-67767137D01*
X113557027Y-68151524D01*
X113557027Y-68151525D01*
X113580007Y-68166879D01*
X113752894Y-68238491D01*
X113752902Y-68238493D01*
X113936428Y-68274999D01*
X113936431Y-68275000D01*
X114123569Y-68275000D01*
X114123571Y-68274999D01*
X114307097Y-68238493D01*
X114307105Y-68238491D01*
X114479992Y-68166879D01*
X114479998Y-68166876D01*
X114502971Y-68151525D01*
X114502972Y-68151524D01*
X114118585Y-67767137D01*
X114203694Y-67744333D01*
X114306306Y-67685090D01*
X114390090Y-67601306D01*
X114449333Y-67498694D01*
X114472137Y-67413585D01*
X114856524Y-67797972D01*
X114856525Y-67797971D01*
X114871876Y-67774998D01*
X114871879Y-67774992D01*
X114943491Y-67602105D01*
X114943493Y-67602097D01*
X114979999Y-67418571D01*
X114980000Y-67418569D01*
X114980000Y-67231430D01*
X114979999Y-67231428D01*
X114943493Y-67047902D01*
X114943491Y-67047894D01*
X114871879Y-66875007D01*
X114856524Y-66852027D01*
X114472137Y-67236414D01*
X114449333Y-67151306D01*
X114390090Y-67048694D01*
X114306306Y-66964910D01*
X114203694Y-66905667D01*
X114118584Y-66882861D01*
X114502972Y-66498474D01*
X114502971Y-66498473D01*
X114480002Y-66483126D01*
X114479990Y-66483119D01*
X114307105Y-66411508D01*
X114307097Y-66411506D01*
X114123570Y-66375000D01*
X113936430Y-66375000D01*
X113752902Y-66411506D01*
X113752894Y-66411508D01*
X113580005Y-66483121D01*
X113557027Y-66498473D01*
X113557027Y-66498474D01*
X113941415Y-66882861D01*
X113856306Y-66905667D01*
X113753694Y-66964910D01*
X113669910Y-67048694D01*
X113610667Y-67151306D01*
X113587861Y-67236414D01*
X113203474Y-66852027D01*
X113203473Y-66852027D01*
X113188121Y-66875005D01*
X113116508Y-67047894D01*
X113116506Y-67047902D01*
X113080000Y-67231428D01*
X92120500Y-67231428D01*
X92120500Y-67231384D01*
X92083973Y-67047749D01*
X92012322Y-66874769D01*
X92012321Y-66874768D01*
X92012318Y-66874762D01*
X91908302Y-66719092D01*
X91908299Y-66719088D01*
X91775911Y-66586700D01*
X91775907Y-66586697D01*
X91620237Y-66482681D01*
X91620228Y-66482676D01*
X91447251Y-66411027D01*
X91447243Y-66411025D01*
X91263620Y-66374500D01*
X91263616Y-66374500D01*
X91076384Y-66374500D01*
X91076379Y-66374500D01*
X90892756Y-66411025D01*
X90892748Y-66411027D01*
X90719771Y-66482676D01*
X90719762Y-66482681D01*
X90564092Y-66586697D01*
X90564088Y-66586700D01*
X90431700Y-66719088D01*
X90431697Y-66719092D01*
X90327681Y-66874762D01*
X90327676Y-66874771D01*
X90256027Y-67047748D01*
X90256025Y-67047756D01*
X90219500Y-67231379D01*
X89600500Y-67231379D01*
X89600500Y-64691379D01*
X90219500Y-64691379D01*
X90219500Y-64878620D01*
X90256025Y-65062243D01*
X90256027Y-65062251D01*
X90327676Y-65235228D01*
X90327681Y-65235237D01*
X90431697Y-65390907D01*
X90431700Y-65390911D01*
X90564088Y-65523299D01*
X90564092Y-65523302D01*
X90719762Y-65627318D01*
X90719768Y-65627321D01*
X90719769Y-65627322D01*
X90892749Y-65698973D01*
X91076379Y-65735499D01*
X91076383Y-65735500D01*
X91076384Y-65735500D01*
X91263617Y-65735500D01*
X91263618Y-65735499D01*
X91447251Y-65698973D01*
X91620231Y-65627322D01*
X91775908Y-65523302D01*
X91908302Y-65390908D01*
X92012322Y-65235231D01*
X92083973Y-65062251D01*
X92120500Y-64878616D01*
X92120500Y-64691384D01*
X92083973Y-64507749D01*
X92012322Y-64334769D01*
X92012321Y-64334768D01*
X92012318Y-64334762D01*
X91908302Y-64179092D01*
X91908299Y-64179088D01*
X91775911Y-64046700D01*
X91775907Y-64046697D01*
X91620237Y-63942681D01*
X91620228Y-63942676D01*
X91447251Y-63871027D01*
X91447243Y-63871025D01*
X91263620Y-63834500D01*
X91263616Y-63834500D01*
X91076384Y-63834500D01*
X91076379Y-63834500D01*
X90892756Y-63871025D01*
X90892748Y-63871027D01*
X90719771Y-63942676D01*
X90719762Y-63942681D01*
X90564092Y-64046697D01*
X90564088Y-64046700D01*
X90431700Y-64179088D01*
X90431697Y-64179092D01*
X90327681Y-64334762D01*
X90327676Y-64334771D01*
X90256027Y-64507748D01*
X90256025Y-64507756D01*
X90219500Y-64691379D01*
X89600500Y-64691379D01*
X89600500Y-62151379D01*
X90219500Y-62151379D01*
X90219500Y-62338620D01*
X90256025Y-62522243D01*
X90256027Y-62522251D01*
X90327676Y-62695228D01*
X90327681Y-62695237D01*
X90431697Y-62850907D01*
X90431700Y-62850911D01*
X90564088Y-62983299D01*
X90564092Y-62983302D01*
X90719762Y-63087318D01*
X90719768Y-63087321D01*
X90719769Y-63087322D01*
X90892749Y-63158973D01*
X91076379Y-63195499D01*
X91076383Y-63195500D01*
X91076384Y-63195500D01*
X91263617Y-63195500D01*
X91263618Y-63195499D01*
X91447251Y-63158973D01*
X91620231Y-63087322D01*
X91775908Y-62983302D01*
X91890338Y-62868872D01*
X100599500Y-62868872D01*
X100599500Y-63131127D01*
X100626123Y-63333339D01*
X100633730Y-63391116D01*
X100701602Y-63644418D01*
X100701605Y-63644428D01*
X100801953Y-63886690D01*
X100801958Y-63886700D01*
X100933075Y-64113803D01*
X101092718Y-64321851D01*
X101092726Y-64321860D01*
X101278140Y-64507274D01*
X101278148Y-64507281D01*
X101278149Y-64507282D01*
X101278758Y-64507749D01*
X101486196Y-64666924D01*
X101713299Y-64798041D01*
X101713309Y-64798046D01*
X101955571Y-64898394D01*
X101955581Y-64898398D01*
X102208884Y-64966270D01*
X102468880Y-65000500D01*
X102468887Y-65000500D01*
X102731113Y-65000500D01*
X102731120Y-65000500D01*
X102991116Y-64966270D01*
X103244419Y-64898398D01*
X103486697Y-64798043D01*
X103671439Y-64691383D01*
X103671446Y-64691379D01*
X113079500Y-64691379D01*
X113079500Y-64878620D01*
X113116025Y-65062243D01*
X113116027Y-65062251D01*
X113187676Y-65235228D01*
X113187681Y-65235237D01*
X113291697Y-65390907D01*
X113291700Y-65390911D01*
X113424088Y-65523299D01*
X113424092Y-65523302D01*
X113579762Y-65627318D01*
X113579768Y-65627321D01*
X113579769Y-65627322D01*
X113752749Y-65698973D01*
X113936379Y-65735499D01*
X113936383Y-65735500D01*
X113936384Y-65735500D01*
X114123617Y-65735500D01*
X114123618Y-65735499D01*
X114307251Y-65698973D01*
X114480231Y-65627322D01*
X114635908Y-65523302D01*
X114768302Y-65390908D01*
X114872322Y-65235231D01*
X114943973Y-65062251D01*
X114980500Y-64878616D01*
X114980500Y-64691384D01*
X114943973Y-64507749D01*
X114872322Y-64334769D01*
X114872321Y-64334768D01*
X114872318Y-64334762D01*
X114768302Y-64179092D01*
X114768299Y-64179088D01*
X114635911Y-64046700D01*
X114635907Y-64046697D01*
X114480237Y-63942681D01*
X114480228Y-63942676D01*
X114307251Y-63871027D01*
X114307243Y-63871025D01*
X114123620Y-63834500D01*
X114123616Y-63834500D01*
X113936384Y-63834500D01*
X113936379Y-63834500D01*
X113752756Y-63871025D01*
X113752748Y-63871027D01*
X113579771Y-63942676D01*
X113579762Y-63942681D01*
X113424092Y-64046697D01*
X113424088Y-64046700D01*
X113291700Y-64179088D01*
X113291697Y-64179092D01*
X113187681Y-64334762D01*
X113187676Y-64334771D01*
X113116027Y-64507748D01*
X113116025Y-64507756D01*
X113079500Y-64691379D01*
X103671446Y-64691379D01*
X103713798Y-64666927D01*
X103713798Y-64666926D01*
X103713803Y-64666924D01*
X103921851Y-64507282D01*
X103921855Y-64507277D01*
X103921860Y-64507274D01*
X104107274Y-64321860D01*
X104107277Y-64321855D01*
X104107282Y-64321851D01*
X104266924Y-64113803D01*
X104398043Y-63886697D01*
X104498398Y-63644419D01*
X104566270Y-63391116D01*
X104600500Y-63131120D01*
X104600500Y-62868880D01*
X104566270Y-62608884D01*
X104498398Y-62355581D01*
X104413814Y-62151379D01*
X113079500Y-62151379D01*
X113079500Y-62338620D01*
X113116025Y-62522243D01*
X113116027Y-62522251D01*
X113187676Y-62695228D01*
X113187681Y-62695237D01*
X113291697Y-62850907D01*
X113291700Y-62850911D01*
X113424088Y-62983299D01*
X113424092Y-62983302D01*
X113579762Y-63087318D01*
X113579768Y-63087321D01*
X113579769Y-63087322D01*
X113752749Y-63158973D01*
X113936379Y-63195499D01*
X113936383Y-63195500D01*
X113936384Y-63195500D01*
X114123617Y-63195500D01*
X114123618Y-63195499D01*
X114307251Y-63158973D01*
X114480231Y-63087322D01*
X114635908Y-62983302D01*
X114768302Y-62850908D01*
X114872322Y-62695231D01*
X114943973Y-62522251D01*
X114980500Y-62338616D01*
X114980500Y-62151384D01*
X114943973Y-61967749D01*
X114872322Y-61794769D01*
X114872321Y-61794768D01*
X114872318Y-61794762D01*
X114768302Y-61639092D01*
X114768299Y-61639088D01*
X114635911Y-61506700D01*
X114635907Y-61506697D01*
X114480237Y-61402681D01*
X114480228Y-61402676D01*
X114307251Y-61331027D01*
X114307243Y-61331025D01*
X114123620Y-61294500D01*
X114123616Y-61294500D01*
X113936384Y-61294500D01*
X113936379Y-61294500D01*
X113752756Y-61331025D01*
X113752748Y-61331027D01*
X113579771Y-61402676D01*
X113579762Y-61402681D01*
X113424092Y-61506697D01*
X113424088Y-61506700D01*
X113291700Y-61639088D01*
X113291697Y-61639092D01*
X113187681Y-61794762D01*
X113187676Y-61794771D01*
X113116027Y-61967748D01*
X113116025Y-61967756D01*
X113079500Y-62151379D01*
X104413814Y-62151379D01*
X104398045Y-62113309D01*
X104398041Y-62113299D01*
X104266924Y-61886196D01*
X104107281Y-61678148D01*
X104107274Y-61678140D01*
X103921860Y-61492726D01*
X103921851Y-61492718D01*
X103713803Y-61333075D01*
X103486700Y-61201958D01*
X103486690Y-61201953D01*
X103244428Y-61101605D01*
X103244421Y-61101603D01*
X103244419Y-61101602D01*
X102991116Y-61033730D01*
X102933339Y-61026123D01*
X102731127Y-60999500D01*
X102731120Y-60999500D01*
X102468880Y-60999500D01*
X102468872Y-60999500D01*
X102237772Y-61029926D01*
X102208884Y-61033730D01*
X101955581Y-61101602D01*
X101955571Y-61101605D01*
X101713309Y-61201953D01*
X101713299Y-61201958D01*
X101486196Y-61333075D01*
X101278148Y-61492718D01*
X101092718Y-61678148D01*
X100933075Y-61886196D01*
X100801958Y-62113299D01*
X100801953Y-62113309D01*
X100701605Y-62355571D01*
X100701602Y-62355581D01*
X100633730Y-62608885D01*
X100599500Y-62868872D01*
X91890338Y-62868872D01*
X91908302Y-62850908D01*
X91924044Y-62827347D01*
X91945038Y-62795930D01*
X92012318Y-62695237D01*
X92012318Y-62695236D01*
X92012322Y-62695231D01*
X92083973Y-62522251D01*
X92120500Y-62338616D01*
X92120500Y-62151384D01*
X92083973Y-61967749D01*
X92012322Y-61794769D01*
X92012321Y-61794768D01*
X92012318Y-61794762D01*
X91908302Y-61639092D01*
X91908299Y-61639088D01*
X91775911Y-61506700D01*
X91775907Y-61506697D01*
X91620237Y-61402681D01*
X91620228Y-61402676D01*
X91447251Y-61331027D01*
X91447243Y-61331025D01*
X91263620Y-61294500D01*
X91263616Y-61294500D01*
X91076384Y-61294500D01*
X91076379Y-61294500D01*
X90892756Y-61331025D01*
X90892748Y-61331027D01*
X90719771Y-61402676D01*
X90719762Y-61402681D01*
X90564092Y-61506697D01*
X90564088Y-61506700D01*
X90431700Y-61639088D01*
X90431697Y-61639092D01*
X90327681Y-61794762D01*
X90327676Y-61794771D01*
X90256027Y-61967748D01*
X90256025Y-61967756D01*
X90219500Y-62151379D01*
X89600500Y-62151379D01*
X89600500Y-58935297D01*
X90220000Y-58935297D01*
X90220000Y-59455000D01*
X90794722Y-59455000D01*
X90750667Y-59531306D01*
X90720000Y-59645756D01*
X90720000Y-59764244D01*
X90750667Y-59878694D01*
X90794722Y-59955000D01*
X90220000Y-59955000D01*
X90220000Y-60474702D01*
X90231602Y-60533033D01*
X90231603Y-60533034D01*
X90275808Y-60599191D01*
X90341965Y-60643396D01*
X90341966Y-60643397D01*
X90400297Y-60654999D01*
X90400301Y-60655000D01*
X90920000Y-60655000D01*
X90920000Y-60080277D01*
X90996306Y-60124333D01*
X91110756Y-60155000D01*
X91229244Y-60155000D01*
X91343694Y-60124333D01*
X91420000Y-60080277D01*
X91420000Y-60655000D01*
X91939699Y-60655000D01*
X91939702Y-60654999D01*
X91998033Y-60643397D01*
X91998034Y-60643396D01*
X92064191Y-60599191D01*
X92108396Y-60533034D01*
X92108397Y-60533033D01*
X92119998Y-60474708D01*
X92120000Y-60474692D01*
X92120000Y-59955000D01*
X91545278Y-59955000D01*
X91589333Y-59878694D01*
X91620000Y-59764244D01*
X91620000Y-59645756D01*
X91610802Y-59611428D01*
X113080000Y-59611428D01*
X113080000Y-59798571D01*
X113116506Y-59982097D01*
X113116508Y-59982105D01*
X113188119Y-60154990D01*
X113188126Y-60155002D01*
X113203473Y-60177971D01*
X113203474Y-60177972D01*
X113587861Y-59793584D01*
X113610667Y-59878694D01*
X113669910Y-59981306D01*
X113753694Y-60065090D01*
X113856306Y-60124333D01*
X113941414Y-60147137D01*
X113557027Y-60531524D01*
X113557027Y-60531525D01*
X113580007Y-60546879D01*
X113752894Y-60618491D01*
X113752902Y-60618493D01*
X113936428Y-60654999D01*
X113936431Y-60655000D01*
X114123569Y-60655000D01*
X114123571Y-60654999D01*
X114307097Y-60618493D01*
X114307105Y-60618491D01*
X114479992Y-60546879D01*
X114479998Y-60546876D01*
X114502971Y-60531525D01*
X114502972Y-60531524D01*
X114118585Y-60147137D01*
X114203694Y-60124333D01*
X114306306Y-60065090D01*
X114390090Y-59981306D01*
X114449333Y-59878694D01*
X114472137Y-59793585D01*
X114856524Y-60177972D01*
X114856525Y-60177971D01*
X114871876Y-60154998D01*
X114871881Y-60154989D01*
X114880530Y-60134108D01*
X122099500Y-60134108D01*
X122099500Y-60265892D01*
X122111814Y-60311848D01*
X122133608Y-60393187D01*
X122166554Y-60450250D01*
X122199500Y-60507314D01*
X122292686Y-60600500D01*
X122406814Y-60666392D01*
X122534108Y-60700500D01*
X122534110Y-60700500D01*
X122624167Y-60700500D01*
X122691206Y-60720185D01*
X122711848Y-60736819D01*
X123159540Y-61184511D01*
X123215489Y-61240460D01*
X123215491Y-61240461D01*
X123215495Y-61240464D01*
X123284004Y-61280017D01*
X123284011Y-61280021D01*
X123360438Y-61300500D01*
X123439562Y-61300500D01*
X124341324Y-61300500D01*
X124408363Y-61320185D01*
X124429005Y-61336819D01*
X124492686Y-61400500D01*
X124606814Y-61466392D01*
X124734108Y-61500500D01*
X124734110Y-61500500D01*
X124865890Y-61500500D01*
X124865892Y-61500500D01*
X124993186Y-61466392D01*
X125107314Y-61400500D01*
X125200500Y-61307314D01*
X125266392Y-61193186D01*
X125300500Y-61065892D01*
X125300500Y-60934108D01*
X125266392Y-60806814D01*
X125200500Y-60692686D01*
X125107314Y-60599500D01*
X125050250Y-60566554D01*
X124993187Y-60533608D01*
X124929539Y-60516554D01*
X124865892Y-60499500D01*
X124734108Y-60499500D01*
X124606812Y-60533608D01*
X124492686Y-60599500D01*
X124492683Y-60599502D01*
X124429005Y-60663181D01*
X124367682Y-60696666D01*
X124341324Y-60699500D01*
X123575833Y-60699500D01*
X123508794Y-60679815D01*
X123488152Y-60663181D01*
X123136819Y-60311848D01*
X123103334Y-60250525D01*
X123100500Y-60224167D01*
X123100500Y-60134110D01*
X123100500Y-60134108D01*
X123066392Y-60006814D01*
X123000500Y-59892686D01*
X122907314Y-59799500D01*
X122846249Y-59764244D01*
X122793187Y-59733608D01*
X122686422Y-59705001D01*
X122665892Y-59699500D01*
X122534108Y-59699500D01*
X122406812Y-59733608D01*
X122292686Y-59799500D01*
X122292683Y-59799502D01*
X122199502Y-59892683D01*
X122199500Y-59892686D01*
X122133608Y-60006812D01*
X122117993Y-60065090D01*
X122099500Y-60134108D01*
X114880530Y-60134108D01*
X114903552Y-60078529D01*
X114903552Y-60078528D01*
X114943491Y-59982105D01*
X114943493Y-59982097D01*
X114979999Y-59798571D01*
X114980000Y-59798569D01*
X114980000Y-59611430D01*
X114979999Y-59611428D01*
X114943493Y-59427902D01*
X114943491Y-59427894D01*
X114871879Y-59255007D01*
X114856524Y-59232027D01*
X114472137Y-59616414D01*
X114449333Y-59531306D01*
X114390090Y-59428694D01*
X114306306Y-59344910D01*
X114203694Y-59285667D01*
X114118584Y-59262861D01*
X114502972Y-58878474D01*
X114502971Y-58878473D01*
X114480002Y-58863126D01*
X114479990Y-58863119D01*
X114307105Y-58791508D01*
X114307097Y-58791506D01*
X114123570Y-58755000D01*
X113936430Y-58755000D01*
X113752902Y-58791506D01*
X113752894Y-58791508D01*
X113580005Y-58863121D01*
X113557027Y-58878473D01*
X113557027Y-58878474D01*
X113941415Y-59262861D01*
X113856306Y-59285667D01*
X113753694Y-59344910D01*
X113669910Y-59428694D01*
X113610667Y-59531306D01*
X113587861Y-59616414D01*
X113203474Y-59232027D01*
X113203473Y-59232027D01*
X113188121Y-59255005D01*
X113116508Y-59427894D01*
X113116506Y-59427902D01*
X113080000Y-59611428D01*
X91610802Y-59611428D01*
X91589333Y-59531306D01*
X91545278Y-59455000D01*
X92120000Y-59455000D01*
X92120000Y-58935299D01*
X92108397Y-58876966D01*
X92108396Y-58876965D01*
X92064191Y-58810808D01*
X91998034Y-58766603D01*
X91998033Y-58766602D01*
X91939702Y-58755000D01*
X91420000Y-58755000D01*
X91420000Y-59329722D01*
X91343694Y-59285667D01*
X91229244Y-59255000D01*
X91110756Y-59255000D01*
X90996306Y-59285667D01*
X90920000Y-59329722D01*
X90920000Y-58755000D01*
X90400297Y-58755000D01*
X90341966Y-58766602D01*
X90341965Y-58766603D01*
X90275808Y-58810808D01*
X90231603Y-58876965D01*
X90231602Y-58876966D01*
X90220000Y-58935297D01*
X89600500Y-58935297D01*
X89600500Y-56205513D01*
X120019500Y-56205513D01*
X120019500Y-56394486D01*
X120049059Y-56581118D01*
X120107454Y-56760836D01*
X120143668Y-56831909D01*
X120193240Y-56929199D01*
X120304310Y-57082073D01*
X120437927Y-57215690D01*
X120590801Y-57326760D01*
X120670347Y-57367290D01*
X120759163Y-57412545D01*
X120759165Y-57412545D01*
X120759168Y-57412547D01*
X120855497Y-57443846D01*
X120938881Y-57470940D01*
X121125514Y-57500500D01*
X121125519Y-57500500D01*
X121314486Y-57500500D01*
X121501118Y-57470940D01*
X121556971Y-57452792D01*
X121680832Y-57412547D01*
X121849199Y-57326760D01*
X122002073Y-57215690D01*
X122135690Y-57082073D01*
X122246760Y-56929199D01*
X122332547Y-56760832D01*
X122372069Y-56639195D01*
X122411507Y-56581521D01*
X122475866Y-56554323D01*
X122544712Y-56566238D01*
X122596188Y-56613482D01*
X122607931Y-56639196D01*
X122647454Y-56760836D01*
X122683668Y-56831909D01*
X122733240Y-56929199D01*
X122844310Y-57082073D01*
X122977927Y-57215690D01*
X123130801Y-57326760D01*
X123210347Y-57367290D01*
X123299163Y-57412545D01*
X123299165Y-57412545D01*
X123299168Y-57412547D01*
X123395497Y-57443846D01*
X123478881Y-57470940D01*
X123665514Y-57500500D01*
X123665519Y-57500500D01*
X123854486Y-57500500D01*
X124041118Y-57470940D01*
X124096971Y-57452792D01*
X124220832Y-57412547D01*
X124389199Y-57326760D01*
X124542073Y-57215690D01*
X124675690Y-57082073D01*
X124786760Y-56929199D01*
X124872547Y-56760832D01*
X124912069Y-56639195D01*
X124951507Y-56581521D01*
X125015866Y-56554323D01*
X125084712Y-56566238D01*
X125136188Y-56613482D01*
X125147931Y-56639196D01*
X125187454Y-56760836D01*
X125223668Y-56831909D01*
X125273240Y-56929199D01*
X125384310Y-57082073D01*
X125517927Y-57215690D01*
X125670801Y-57326760D01*
X125750347Y-57367290D01*
X125839163Y-57412545D01*
X125839165Y-57412545D01*
X125839168Y-57412547D01*
X125935497Y-57443846D01*
X126018881Y-57470940D01*
X126205514Y-57500500D01*
X126205519Y-57500500D01*
X126394486Y-57500500D01*
X126581118Y-57470940D01*
X126636971Y-57452792D01*
X126760832Y-57412547D01*
X126929199Y-57326760D01*
X127082073Y-57215690D01*
X127215690Y-57082073D01*
X127326760Y-56929199D01*
X127405015Y-56775613D01*
X127452989Y-56724818D01*
X127520810Y-56708023D01*
X127586945Y-56730560D01*
X127630397Y-56785275D01*
X127639500Y-56831909D01*
X127639500Y-57104269D01*
X127642353Y-57134699D01*
X127642353Y-57134701D01*
X127687206Y-57262880D01*
X127687207Y-57262882D01*
X127767850Y-57372150D01*
X127877118Y-57452793D01*
X127919845Y-57467744D01*
X128005299Y-57497646D01*
X128035730Y-57500500D01*
X128035734Y-57500500D01*
X129644270Y-57500500D01*
X129674699Y-57497646D01*
X129674701Y-57497646D01*
X129738790Y-57475219D01*
X129802882Y-57452793D01*
X129912150Y-57372150D01*
X129992793Y-57262882D01*
X130015219Y-57198790D01*
X130037646Y-57134701D01*
X130037646Y-57134699D01*
X130040500Y-57104269D01*
X130040500Y-55495730D01*
X130037646Y-55465300D01*
X130037646Y-55465298D01*
X129992793Y-55337119D01*
X129992792Y-55337117D01*
X129912150Y-55227850D01*
X129802882Y-55147207D01*
X129802880Y-55147206D01*
X129674700Y-55102353D01*
X129644270Y-55099500D01*
X129644266Y-55099500D01*
X128035734Y-55099500D01*
X128035730Y-55099500D01*
X128005300Y-55102353D01*
X128005298Y-55102353D01*
X127877119Y-55147206D01*
X127877117Y-55147207D01*
X127767850Y-55227850D01*
X127687207Y-55337117D01*
X127687206Y-55337119D01*
X127642353Y-55465298D01*
X127642353Y-55465300D01*
X127639500Y-55495730D01*
X127639500Y-55768090D01*
X127619815Y-55835129D01*
X127567011Y-55880884D01*
X127497853Y-55890828D01*
X127434297Y-55861803D01*
X127405015Y-55824385D01*
X127326759Y-55670800D01*
X127215690Y-55517927D01*
X127082073Y-55384310D01*
X126929199Y-55273240D01*
X126760836Y-55187454D01*
X126581118Y-55129059D01*
X126394486Y-55099500D01*
X126394481Y-55099500D01*
X126205519Y-55099500D01*
X126205514Y-55099500D01*
X126018881Y-55129059D01*
X125839163Y-55187454D01*
X125670800Y-55273240D01*
X125583579Y-55336610D01*
X125517927Y-55384310D01*
X125517925Y-55384312D01*
X125517924Y-55384312D01*
X125384312Y-55517924D01*
X125384312Y-55517925D01*
X125384310Y-55517927D01*
X125336610Y-55583579D01*
X125273240Y-55670800D01*
X125187454Y-55839163D01*
X125147931Y-55960803D01*
X125108493Y-56018478D01*
X125044134Y-56045676D01*
X124975288Y-56033761D01*
X124923812Y-55986516D01*
X124912069Y-55960803D01*
X124886101Y-55880884D01*
X124872547Y-55839168D01*
X124872545Y-55839165D01*
X124872545Y-55839163D01*
X124786759Y-55670800D01*
X124675690Y-55517927D01*
X124542073Y-55384310D01*
X124389199Y-55273240D01*
X124220836Y-55187454D01*
X124041118Y-55129059D01*
X123854486Y-55099500D01*
X123854481Y-55099500D01*
X123665519Y-55099500D01*
X123665514Y-55099500D01*
X123478881Y-55129059D01*
X123299163Y-55187454D01*
X123130800Y-55273240D01*
X123043579Y-55336610D01*
X122977927Y-55384310D01*
X122977925Y-55384312D01*
X122977924Y-55384312D01*
X122844312Y-55517924D01*
X122844312Y-55517925D01*
X122844310Y-55517927D01*
X122796610Y-55583579D01*
X122733240Y-55670800D01*
X122647454Y-55839163D01*
X122607931Y-55960803D01*
X122568493Y-56018478D01*
X122504134Y-56045676D01*
X122435288Y-56033761D01*
X122383812Y-55986516D01*
X122372069Y-55960803D01*
X122346101Y-55880884D01*
X122332547Y-55839168D01*
X122332545Y-55839165D01*
X122332545Y-55839163D01*
X122246759Y-55670800D01*
X122135690Y-55517927D01*
X122002073Y-55384310D01*
X121849199Y-55273240D01*
X121680836Y-55187454D01*
X121501118Y-55129059D01*
X121314486Y-55099500D01*
X121314481Y-55099500D01*
X121125519Y-55099500D01*
X121125514Y-55099500D01*
X120938881Y-55129059D01*
X120759163Y-55187454D01*
X120590800Y-55273240D01*
X120503579Y-55336610D01*
X120437927Y-55384310D01*
X120437925Y-55384312D01*
X120437924Y-55384312D01*
X120304312Y-55517924D01*
X120304312Y-55517925D01*
X120304310Y-55517927D01*
X120256610Y-55583579D01*
X120193240Y-55670800D01*
X120107454Y-55839163D01*
X120049059Y-56018881D01*
X120019500Y-56205513D01*
X89600500Y-56205513D01*
X89600500Y-52624500D01*
X89620185Y-52557461D01*
X89672989Y-52511706D01*
X89724500Y-52500500D01*
X148975500Y-52500500D01*
X149042539Y-52520185D01*
G37*
%TD.AperFunction*%
%TD*%
M02*
